<?xml version="1.0" encoding="utf-8"?>
<!-- Generator: Adobe Illustrator 21.0.0, SVG Export Plug-In . SVG Version: 6.00 Build 0)  -->
<svg version="1.1" id="Layer_1" xmlns="http://www.w3.org/2000/svg" xmlns:xlink="http://www.w3.org/1999/xlink" x="0px" y="0px"
	 viewBox="0 0 417 623.7" style="enable-background:new 0 0 417 623.7;" xml:space="preserve">
<style type="text/css">
	.st0{fill:#51AFBC;}
	.st1{fill:#30B085;}
	.st2{fill:#BDBDBD;}
	.st3{fill:#0B9DB8;}
	.st4{fill:#8FCAD1;}
	.st5{fill:#CCF3FA;}
	.st6{fill:#AFEBF2;}
	.st7{fill:#B0EDF4;}
	.st8{fill:#98E1E5;}
	.st9{fill:#EBFBFF;}
	.st10{fill:#D7F4F9;}
	.st11{fill:#D9F4F9;}
</style>
<rect id="XMLID_57_" x="212.7" y="377.8" class="st0" width="161.5" height="230.2"/>
<g>
	<rect x="-0.1" y="607.8" class="st1" width="417" height="16"/>
</g>
<g>
	<g>
		<rect x="80.5" y="170.8" class="st2" width="5.2" height="78.5"/>
		<rect x="104.2" y="185.8" class="st2" width="5.2" height="78.5"/>
	</g>
	<rect id="XMLID_136_" x="65" y="220.1" class="st1" width="134.7" height="18.7"/>
	<rect id="XMLID_135_" x="51.7" y="233.9" class="st3" width="161.5" height="374.1"/>
	<g id="XMLID_128_">
		<rect id="XMLID_134_" x="64.2" y="254.1" class="st4" width="14.6" height="27.9"/>
		<rect id="XMLID_133_" x="88.5" y="254.1" class="st5" width="14.6" height="27.9"/>
		<rect id="XMLID_132_" x="112.9" y="254.1" class="st6" width="14.6" height="27.9"/>
		<rect id="XMLID_131_" x="137.3" y="254.1" class="st7" width="14.6" height="27.9"/>
		<rect id="XMLID_130_" x="161.6" y="254.1" class="st5" width="14.6" height="27.9"/>
		<rect id="XMLID_129_" x="186" y="254.1" class="st5" width="14.6" height="27.9"/>
	</g>
	<g id="XMLID_121_">
		<rect id="XMLID_127_" x="64.2" y="290.5" class="st5" width="14.6" height="27.9"/>
		<rect id="XMLID_126_" x="88.5" y="290.5" class="st4" width="14.6" height="27.9"/>
		<rect id="XMLID_125_" x="112.9" y="290.5" class="st5" width="14.6" height="27.9"/>
		<rect id="XMLID_124_" x="137.3" y="290.5" class="st6" width="14.6" height="27.9"/>
		<rect id="XMLID_123_" x="161.6" y="290.5" class="st7" width="14.6" height="27.9"/>
		<rect id="XMLID_122_" x="186" y="290.5" class="st5" width="14.6" height="27.9"/>
	</g>
	<g id="XMLID_114_">
		<rect id="XMLID_120_" x="64.2" y="327" class="st7" width="14.6" height="27.9"/>
		<rect id="XMLID_119_" x="88.5" y="327" class="st5" width="14.6" height="27.9"/>
		<rect id="XMLID_118_" x="112.9" y="327" class="st4" width="14.6" height="27.9"/>
		<rect id="XMLID_117_" x="137.3" y="327" class="st5" width="14.6" height="27.9"/>
		<rect id="XMLID_116_" x="161.6" y="327" class="st6" width="14.6" height="27.9"/>
		<rect id="XMLID_115_" x="186" y="327" class="st7" width="14.6" height="27.9"/>
	</g>
	<g id="XMLID_107_">
		<rect id="XMLID_113_" x="64.2" y="363.4" class="st5" width="14.6" height="27.9"/>
		<rect id="XMLID_112_" x="88.5" y="363.4" class="st7" width="14.6" height="27.9"/>
		<rect id="XMLID_111_" x="112.9" y="363.4" class="st5" width="14.6" height="27.9"/>
		<rect id="XMLID_110_" x="137.3" y="363.4" class="st4" width="14.6" height="27.9"/>
		<rect id="XMLID_109_" x="161.6" y="363.4" class="st5" width="14.6" height="27.9"/>
		<rect id="XMLID_108_" x="186" y="363.4" class="st6" width="14.6" height="27.9"/>
	</g>
	<g id="XMLID_100_">
		<rect id="XMLID_106_" x="64.2" y="399.9" class="st5" width="14.6" height="27.9"/>
		<rect id="XMLID_105_" x="88.5" y="399.9" class="st5" width="14.6" height="27.9"/>
		<rect id="XMLID_104_" x="112.9" y="399.9" class="st7" width="14.6" height="27.9"/>
		<rect id="XMLID_103_" x="137.3" y="399.9" class="st5" width="14.6" height="27.9"/>
		<rect id="XMLID_102_" x="161.6" y="399.9" class="st4" width="14.6" height="27.9"/>
		<rect id="XMLID_101_" x="186" y="399.9" class="st5" width="14.6" height="27.9"/>
	</g>
	<g id="XMLID_93_">
		<rect id="XMLID_99_" x="64.2" y="436.3" class="st5" width="14.6" height="27.9"/>
		<rect id="XMLID_98_" x="88.5" y="436.3" class="st5" width="14.6" height="27.9"/>
		<rect id="XMLID_97_" x="112.9" y="436.3" class="st5" width="14.6" height="27.9"/>
		<rect id="XMLID_96_" x="137.3" y="436.3" class="st6" width="14.6" height="27.9"/>
		<rect id="XMLID_95_" x="161.6" y="436.3" class="st5" width="14.6" height="27.9"/>
		<rect id="XMLID_94_" x="186" y="436.3" class="st4" width="14.6" height="27.9"/>
	</g>
	<g id="XMLID_86_">
		<rect id="XMLID_92_" x="64.2" y="472.7" class="st5" width="14.6" height="27.9"/>
		<rect id="XMLID_91_" x="88.5" y="472.7" class="st5" width="14.6" height="27.9"/>
		<rect id="XMLID_90_" x="112.9" y="472.7" class="st6" width="14.6" height="27.9"/>
		<rect id="XMLID_89_" x="137.3" y="472.7" class="st5" width="14.6" height="27.9"/>
		<rect id="XMLID_88_" x="161.6" y="472.7" class="st4" width="14.6" height="27.9"/>
		<rect id="XMLID_87_" x="186" y="472.7" class="st5" width="14.6" height="27.9"/>
	</g>
	<g id="XMLID_79_">
		<rect id="XMLID_85_" x="64.2" y="509.2" class="st5" width="14.6" height="27.9"/>
		<rect id="XMLID_84_" x="88.5" y="509.2" class="st6" width="14.6" height="27.9"/>
		<rect id="XMLID_83_" x="112.9" y="509.2" class="st5" width="14.6" height="27.9"/>
		<rect id="XMLID_15_" x="113.4" y="570.8" class="st5" width="19.5" height="37.3"/>
		<rect id="XMLID_16_" x="132.4" y="570.8" class="st8" width="19.5" height="37.3"/>
		<rect id="XMLID_82_" x="137.3" y="509.2" class="st4" width="14.6" height="27.9"/>
		<rect id="XMLID_81_" x="161.6" y="509.2" class="st5" width="14.6" height="27.9"/>
		<rect id="XMLID_80_" x="186" y="509.2" class="st5" width="14.6" height="27.9"/>
		<rect id="XMLID_9_" x="274.4" y="570.8" class="st5" width="19.5" height="37.3"/>
		<rect id="XMLID_8_" x="293.4" y="570.8" class="st8" width="19.5" height="37.3"/>
	</g>
</g>
<rect id="XMLID_3_" x="288.1" y="400.3" class="st9" width="10.4" height="137.5"/>
<rect id="XMLID_5_" x="308.1" y="400.3" class="st9" width="10.4" height="137.5"/>
<rect id="XMLID_6_" x="328.1" y="400.3" class="st10" width="10.4" height="137.5"/>
<rect id="XMLID_7_" x="348.1" y="400.3" class="st9" width="10.4" height="137.5"/>
<rect id="XMLID_1_" x="268.1" y="400.3" class="st9" width="10.4" height="137.5"/>
<rect id="XMLID_2_" x="248.1" y="400.3" class="st11" width="10.4" height="137.5"/>
<rect id="XMLID_4_" x="228.1" y="400.3" class="st9" width="10.4" height="137.5"/>
</svg>
