<?xml version="1.0" encoding="utf-8"?>
<!-- Generator: Adobe Illustrator 21.0.0, SVG Export Plug-In . SVG Version: 6.00 Build 0)  -->
<svg version="1.1" id="Layer_1" xmlns="http://www.w3.org/2000/svg" xmlns:xlink="http://www.w3.org/1999/xlink" x="0px" y="0px"
	 viewBox="0 0 415.7 623.6" style="enable-background:new 0 0 415.7 623.6;" xml:space="preserve">
<style type="text/css">
	.st0{fill:#0B9DB8;}
	.st1{fill:#30B085;}
	.st2{fill:#85D6E2;}
	.st3{fill:#EBFBFF;}
	.st4{fill:#EAEAEA;stroke:#000000;stroke-miterlimit:10;}
	.st5{fill:#3E60ED;}
	.st6{fill:#8CF46E;}
	.st7{fill:#E26464;}
	.st8{fill:#FF1212;}
</style>
<rect x="304.1" y="438.2" class="st0" width="20" height="30"/>
<g>
	<rect x="-0.9" y="607.2" class="st1" width="417" height="16"/>
</g>
<rect x="72.1" y="488.2" class="st0" width="271" height="119"/>
<rect x="52.1" y="466.2" class="st2" width="310" height="22"/>
<rect x="86.1" y="512.2" class="st3" width="162" height="67"/>
<rect x="263.1" y="512.2" class="st3" width="41" height="95"/>
<polyline class="st4" points="239.1,579.2 239.1,521.2 95.1,521.2 95.1,579.2 "/>
<polygon class="st5" points="198.1,521.2 239.1,521.2 239.1,579.2 187.1,579.2 "/>
<polygon class="st6" points="198.1,521.2 187.1,579.2 126.1,579.2 145.1,521.2 "/>
<polygon class="st7" points="149.1,521.2 137.1,579.2 95.1,579.2 95.1,521.2 "/>
<circle cx="175.8" cy="525.9" r="2.7"/>
<circle cx="175.8" cy="533.5" r="2.7"/>
<circle cx="175.8" cy="541.1" r="2.7"/>
<circle cx="175.8" cy="548.7" r="2.7"/>
<circle cx="175.8" cy="556.3" r="2.7"/>
<circle cx="175.8" cy="563.9" r="2.7"/>
<circle cx="159" cy="525.9" r="2.7"/>
<circle cx="159" cy="533.5" r="2.7"/>
<circle cx="159" cy="541.1" r="2.7"/>
<circle cx="159" cy="548.7" r="2.7"/>
<circle cx="159" cy="556.3" r="2.7"/>
<circle cx="159" cy="563.9" r="2.7"/>
<circle cx="167.4" cy="525.9" r="2.7"/>
<circle cx="167.4" cy="533.5" r="2.7"/>
<circle cx="167.4" cy="541.1" r="2.7"/>
<circle cx="167.4" cy="548.7" r="2.7"/>
<circle cx="167.4" cy="556.3" r="2.7"/>
<circle cx="167.4" cy="563.9" r="2.7"/>
<circle cx="184.3" cy="525.9" r="2.7"/>
<circle cx="184.3" cy="533.5" r="2.7"/>
<circle cx="184.3" cy="541.1" r="2.7"/>
<circle cx="184.3" cy="548.7" r="2.7"/>
<circle cx="184.3" cy="556.3" r="2.7"/>
<circle cx="184.3" cy="563.9" r="2.7"/>
<circle cx="192.7" cy="525.9" r="2.7"/>
<circle cx="192.7" cy="533.5" r="2.7"/>
<circle cx="192.7" cy="541.1" r="2.7"/>
<circle cx="192.7" cy="548.7" r="2.7"/>
<circle cx="192.7" cy="556.3" r="2.7"/>
<circle cx="192.7" cy="563.9" r="2.7"/>
<circle cx="201.1" cy="525.9" r="2.7"/>
<circle cx="201.1" cy="533.5" r="2.7"/>
<circle cx="201.1" cy="541.1" r="2.7"/>
<circle cx="201.1" cy="548.7" r="2.7"/>
<circle cx="201.1" cy="556.3" r="2.7"/>
<circle cx="201.1" cy="563.9" r="2.7"/>
<circle cx="209.2" cy="525.9" r="2.7"/>
<circle cx="209.2" cy="533.5" r="2.7"/>
<circle cx="209.2" cy="541.1" r="2.7"/>
<circle cx="209.2" cy="548.7" r="2.7"/>
<circle cx="209.2" cy="556.3" r="2.7"/>
<circle cx="209.2" cy="563.9" r="2.7"/>
<circle cx="217.3" cy="525.9" r="2.7"/>
<circle cx="217.3" cy="533.5" r="2.7"/>
<circle cx="217.3" cy="541.1" r="2.7"/>
<circle cx="217.3" cy="548.7" r="2.7"/>
<circle cx="217.3" cy="556.3" r="2.7"/>
<circle cx="217.3" cy="563.9" r="2.7"/>
<circle cx="225.4" cy="525.9" r="2.7"/>
<circle cx="225.4" cy="533.5" r="2.7"/>
<circle cx="225.4" cy="541.1" r="2.7"/>
<circle cx="225.4" cy="548.7" r="2.7"/>
<circle cx="225.4" cy="556.3" r="2.7"/>
<circle cx="225.4" cy="563.9" r="2.7"/>
<circle cx="233.4" cy="525.9" r="2.7"/>
<circle cx="233.4" cy="533.5" r="2.7"/>
<circle cx="233.4" cy="541.1" r="2.7"/>
<circle cx="233.4" cy="548.7" r="2.7"/>
<circle cx="233.4" cy="556.3" r="2.7"/>
<circle cx="233.4" cy="563.9" r="2.7"/>
<circle cx="117.6" cy="525.9" r="2.7"/>
<circle cx="117.6" cy="533.5" r="2.7"/>
<circle cx="117.6" cy="541.1" r="2.7"/>
<circle cx="117.6" cy="548.7" r="2.7"/>
<circle cx="117.6" cy="556.3" r="2.7"/>
<circle cx="117.6" cy="563.9" r="2.7"/>
<circle cx="100.7" cy="525.9" r="2.7"/>
<circle cx="100.7" cy="533.5" r="2.7"/>
<circle cx="100.7" cy="541.1" r="2.7"/>
<circle cx="100.7" cy="548.7" r="2.7"/>
<circle cx="100.7" cy="556.3" r="2.7"/>
<circle cx="100.7" cy="563.9" r="2.7"/>
<circle cx="109.2" cy="525.9" r="2.7"/>
<circle cx="109.2" cy="533.5" r="2.7"/>
<circle cx="109.2" cy="541.1" r="2.7"/>
<circle cx="109.2" cy="548.7" r="2.7"/>
<circle cx="109.2" cy="556.3" r="2.7"/>
<circle cx="109.2" cy="563.9" r="2.7"/>
<circle cx="126" cy="525.9" r="2.7"/>
<circle cx="126" cy="533.5" r="2.7"/>
<circle cx="126" cy="541.1" r="2.7"/>
<circle cx="126" cy="548.7" r="2.7"/>
<circle cx="126" cy="556.3" r="2.7"/>
<circle cx="126" cy="563.9" r="2.7"/>
<circle cx="134.5" cy="525.9" r="2.7"/>
<circle cx="134.5" cy="533.5" r="2.7"/>
<circle cx="134.5" cy="541.1" r="2.7"/>
<circle cx="134.5" cy="548.7" r="2.7"/>
<circle cx="134.5" cy="556.3" r="2.7"/>
<circle cx="134.5" cy="563.9" r="2.7"/>
<circle cx="142.9" cy="525.9" r="2.7"/>
<circle cx="142.9" cy="533.5" r="2.7"/>
<circle cx="142.9" cy="541.1" r="2.7"/>
<circle cx="142.9" cy="548.7" r="2.7"/>
<circle cx="142.9" cy="556.3" r="2.7"/>
<circle cx="142.9" cy="563.9" r="2.7"/>
<circle cx="151.4" cy="525.9" r="2.7"/>
<circle cx="151.4" cy="533.5" r="2.7"/>
<circle cx="151.4" cy="541.1" r="2.7"/>
<circle cx="151.4" cy="548.7" r="2.7"/>
<circle cx="151.4" cy="556.3" r="2.7"/>
<circle cx="151.4" cy="563.9" r="2.7"/>
<circle cx="175.8" cy="570.9" r="2.7"/>
<circle cx="159" cy="570.9" r="2.7"/>
<circle cx="167.4" cy="570.9" r="2.7"/>
<circle cx="184.3" cy="570.9" r="2.7"/>
<circle cx="192.7" cy="570.9" r="2.7"/>
<circle cx="201.1" cy="570.9" r="2.7"/>
<circle cx="209.2" cy="570.9" r="2.7"/>
<circle cx="217.3" cy="570.9" r="2.7"/>
<circle cx="225.4" cy="570.9" r="2.7"/>
<circle cx="233.4" cy="570.9" r="2.7"/>
<circle cx="117.6" cy="570.9" r="2.7"/>
<circle cx="100.7" cy="570.9" r="2.7"/>
<circle cx="109.2" cy="570.9" r="2.7"/>
<circle cx="126" cy="570.9" r="2.7"/>
<circle cx="134.5" cy="570.9" r="2.7"/>
<circle cx="142.9" cy="570.9" r="2.7"/>
<circle cx="151.4" cy="570.9" r="2.7"/>
<path d="M178.5,577.9c0,0.5-0.1,0.9-0.3,1.3h-4.7c-0.2-0.4-0.3-0.8-0.3-1.3c0-1.5,1.2-2.7,2.7-2.7
	C177.3,575.2,178.5,576.4,178.5,577.9z"/>
<path d="M161.6,577.9c0,0.5-0.1,0.9-0.3,1.3h-4.7c-0.2-0.4-0.3-0.8-0.3-1.3c0-1.5,1.2-2.7,2.7-2.7
	C160.4,575.2,161.6,576.4,161.6,577.9z"/>
<path d="M170.1,577.9c0,0.5-0.1,0.9-0.3,1.3h-4.7c-0.2-0.4-0.3-0.8-0.3-1.3c0-1.5,1.2-2.7,2.7-2.7
	C168.9,575.2,170.1,576.4,170.1,577.9z"/>
<path d="M187,577.9c0,0.5-0.1,0.9-0.3,1.3H182c-0.2-0.4-0.3-0.8-0.3-1.3c0-1.5,1.2-2.7,2.7-2.7C185.8,575.2,187,576.4,187,577.9z"/>
<path d="M195.4,577.9c0,0.5-0.1,0.9-0.3,1.3h-4.7c-0.2-0.4-0.3-0.8-0.3-1.3c0-1.5,1.2-2.7,2.7-2.7
	C194.2,575.2,195.4,576.4,195.4,577.9z"/>
<path d="M203.8,577.9c0,0.5-0.1,0.9-0.3,1.3h-4.7c-0.2-0.4-0.3-0.8-0.3-1.3c0-1.5,1.2-2.7,2.7-2.7
	C202.6,575.2,203.8,576.4,203.8,577.9z"/>
<path d="M211.9,577.9c0,0.5-0.1,0.9-0.3,1.3h-4.7c-0.2-0.4-0.3-0.8-0.3-1.3c0-1.5,1.2-2.7,2.7-2.7
	C210.7,575.2,211.9,576.4,211.9,577.9z"/>
<path d="M220,577.9c0,0.5-0.1,0.9-0.3,1.3H215c-0.2-0.4-0.3-0.8-0.3-1.3c0-1.5,1.2-2.7,2.7-2.7S220,576.4,220,577.9z"/>
<path d="M228,577.9c0,0.5-0.1,0.9-0.3,1.3H223c-0.2-0.4-0.3-0.8-0.3-1.3c0-1.5,1.2-2.7,2.7-2.7S228,576.4,228,577.9z"/>
<path d="M235.8,579.2c0.2-0.4,0.3-0.8,0.3-1.3c0-1.5-1.2-2.7-2.7-2.7s-2.7,1.2-2.7,2.7c0,0.5,0.1,0.9,0.3,1.3H235.8z"/>
<path d="M120.3,577.9c0,0.5-0.1,0.9-0.3,1.3h-4.7c-0.2-0.4-0.3-0.8-0.3-1.3c0-1.5,1.2-2.7,2.7-2.7S120.3,576.4,120.3,577.9z"/>
<path d="M103.4,577.9c0,0.5-0.1,0.9-0.3,1.3h-4.7c-0.2-0.4-0.3-0.8-0.3-1.3c0-1.5,1.2-2.7,2.7-2.7S103.4,576.4,103.4,577.9z"/>
<path d="M111.9,577.9c0,0.5-0.1,0.9-0.3,1.3h-4.7c-0.2-0.4-0.3-0.8-0.3-1.3c0-1.5,1.2-2.7,2.7-2.7S111.9,576.4,111.9,577.9z"/>
<path d="M128.7,577.9c0,0.5-0.1,0.9-0.3,1.3h-4.7c-0.2-0.4-0.3-0.8-0.3-1.3c0-1.5,1.2-2.7,2.7-2.7S128.7,576.4,128.7,577.9z"/>
<path d="M137.2,577.9c0,0.5-0.1,0.9-0.3,1.3h-4.7c-0.2-0.4-0.3-0.8-0.3-1.3c0-1.5,1.2-2.7,2.7-2.7
	C136,575.2,137.2,576.4,137.2,577.9z"/>
<path d="M145.6,577.9c0,0.5-0.1,0.9-0.3,1.3h-4.7c-0.2-0.4-0.3-0.8-0.3-1.3c0-1.5,1.2-2.7,2.7-2.7S145.6,576.4,145.6,577.9z"/>
<path d="M154,577.9c0,0.5-0.1,0.9-0.3,1.3H149c-0.2-0.4-0.3-0.8-0.3-1.3c0-1.5,1.2-2.7,2.7-2.7S154,576.4,154,577.9z"/>
<path class="st8" d="M193.1,521.2"/>
</svg>
