<?xml version="1.0" encoding="utf-8"?>
<!-- Generator: Adobe Illustrator 21.0.0, SVG Export Plug-In . SVG Version: 6.00 Build 0)  -->
<svg version="1.1" id="Layer_1" xmlns="http://www.w3.org/2000/svg" xmlns:xlink="http://www.w3.org/1999/xlink" x="0px" y="0px"
	 viewBox="0 0 417 623.7" style="enable-background:new 0 0 417 623.7;" xml:space="preserve">
<style type="text/css">
	.st0{fill:#30B085;}
	.st1{fill:#6DB5B5;}
	.st2{fill:#85D6E2;}
	.st3{fill:#9EEFE9;}
	.st4{fill:#77D8CF;}
	.st5{fill:#CCF3FA;}
	.st6{fill:#A0D8D6;}
	.st7{fill:#C9E0D6;}
	.st8{clip-path:url(#SVGID_3_);}
	.st9{fill:#FFFFFF;}
	.st10{fill:#435761;}
	.st11{fill:#6D7D83;}
	.st12{fill:#E9BB49;}
	.st13{fill:#0B9DB8;}
	.st14{fill:#1194A5;}
	.st15{fill:#EBFBFF;}
	.st16{fill:#51AFBC;}
	.st17{fill:#D7F4F9;}
	.st18{fill:#4A4E4F;}
</style>
<g>
	<rect x="14.6" y="607.7" class="st0" width="404" height="16"/>
</g>
<rect x="187.6" y="325.7" class="st1" width="185" height="282"/>
<rect x="200.6" y="340.7" class="st2" width="49" height="267"/>
<rect x="335.6" y="547.7" class="st3" width="37" height="60"/>
<rect x="298.6" y="547.7" class="st4" width="37" height="60"/>
<rect x="261.6" y="547.7" class="st5" width="37" height="60"/>
<rect x="342.6" y="340.7" class="st3" width="23" height="23"/>
<rect x="305.6" y="340.7" class="st4" width="23" height="23"/>
<rect x="268.6" y="340.7" class="st5" width="23" height="23"/>
<rect x="342.6" y="377.7" class="st4" width="23" height="23"/>
<rect x="305.6" y="377.7" class="st5" width="23" height="23"/>
<rect x="268.6" y="377.7" class="st4" width="23" height="23"/>
<rect x="342.6" y="414.7" class="st5" width="23" height="23"/>
<rect x="305.6" y="414.7" class="st4" width="23" height="23"/>
<rect x="268.6" y="414.7" class="st3" width="23" height="23"/>
<rect x="342.6" y="451.7" class="st4" width="23" height="23"/>
<rect x="305.6" y="451.7" class="st5" width="23" height="23"/>
<rect x="268.6" y="451.7" class="st4" width="23" height="23"/>
<rect x="342.6" y="488.7" class="st3" width="23" height="23"/>
<rect x="305.6" y="488.7" class="st4" width="23" height="23"/>
<rect x="268.6" y="488.7" class="st5" width="23" height="23"/>
<rect x="46.6" y="430.7" class="st6" width="112" height="147"/>
<g>
	<g>
		<rect id="SVGID_1_" x="24.6" y="427.7" class="st7" width="158" height="158"/>
	</g>
	<g>
		<g>
			<defs>
				<rect id="SVGID_2_" x="24.6" y="427.7" width="158" height="158"/>
			</defs>
			<clipPath id="SVGID_3_">
				<use xlink:href="#SVGID_2_"  style="overflow:visible;"/>
			</clipPath>
			<g class="st8">
				<g>
					
						<rect x="186.2" y="586.9" transform="matrix(0.7071 -0.7071 0.7071 0.7071 -360.7495 304.2231)" class="st9" width="1.3" height="1.4"/>
				</g>
				<g>
					
						<rect x="173" y="581.4" transform="matrix(0.7067 -0.7075 0.7075 0.7067 -358.6566 299.0728)" class="st9" width="16.8" height="1.4"/>
				</g>
				<g>
					
						<rect x="159.8" y="575.9" transform="matrix(0.7071 -0.7071 0.7071 0.7071 -356.1915 293.2857)" class="st9" width="32.3" height="1.4"/>
				</g>
				<g>
					
						<rect x="146.5" y="570.5" transform="matrix(0.7067 -0.7075 0.7075 0.7067 -354.1431 288.0986)" class="st9" width="47.8" height="1.4"/>
				</g>
				<g>
					
						<rect x="133.3" y="565" transform="matrix(0.7069 -0.7073 0.7073 0.7069 -351.7549 282.4783)" class="st9" width="63.3" height="1.4"/>
				</g>
				<g>
					
						<rect x="120.1" y="559.5" transform="matrix(0.7071 -0.7071 0.7071 0.7071 -349.4253 276.8624)" class="st9" width="78.8" height="1.4"/>
				</g>
				<g>
					
						<rect x="106.9" y="554" transform="matrix(0.7069 -0.7073 0.7073 0.7069 -347.1945 271.5467)" class="st9" width="94.3" height="1.4"/>
				</g>
				<g>
					
						<rect x="93.6" y="548.6" transform="matrix(0.7071 -0.7071 0.7071 0.7071 -344.9088 265.9079)" class="st9" width="109.8" height="1.4"/>
				</g>
				<g>
					
						<rect x="80.4" y="543" transform="matrix(0.7069 -0.7073 0.7073 0.7069 -342.6513 260.5068)" class="st9" width="125.3" height="1.4"/>
				</g>
				<g>
					
						<rect x="67.2" y="537.5" transform="matrix(0.7069 -0.7073 0.7073 0.7069 -340.343 255.0359)" class="st9" width="140.8" height="1.4"/>
				</g>
				<g>
					
						<rect x="54" y="532.1" transform="matrix(0.7071 -0.7071 0.7071 0.7071 -338.0427 249.5018)" class="st9" width="156.3" height="1.4"/>
				</g>
				<g>
					
						<rect x="40.7" y="526.6" transform="matrix(0.7069 -0.7073 0.7073 0.7069 -335.8851 244.0769)" class="st9" width="171.8" height="1.4"/>
				</g>
				<g>
					
						<rect x="27.5" y="521.1" transform="matrix(0.7069 -0.7073 0.7073 0.7069 -333.5768 238.606)" class="st9" width="187.3" height="1.4"/>
				</g>
				<g>
					
						<rect x="14.3" y="515.7" transform="matrix(0.7071 -0.7071 0.7071 0.7071 -331.2534 233.0346)" class="st9" width="202.7" height="1.4"/>
				</g>
				<g>
					
						<rect x="1.1" y="510.1" transform="matrix(0.7069 -0.7073 0.7073 0.7069 -328.9957 227.6202)" class="st9" width="218.2" height="1.4"/>
				</g>
				<g>
					
						<rect x="-12.2" y="504.8" transform="matrix(0.7071 -0.7071 0.7071 0.7071 -326.7953 222.0799)" class="st9" width="233.7" height="1.4"/>
				</g>
				<g>
					
						<rect x="-9.9" y="499.3" transform="matrix(0.7071 -0.7071 0.7071 0.7071 -324.4871 216.6113)" class="st9" width="218.2" height="1.4"/>
				</g>
				<g>
					
						<rect x="-7.6" y="493.7" transform="matrix(0.7071 -0.7071 0.7071 0.7071 -322.1495 211.0718)" class="st9" width="202.7" height="1.4"/>
				</g>
				<g>
					
						<rect x="-5.4" y="488.3" transform="matrix(0.7071 -0.7071 0.7071 0.7071 -319.9059 205.6297)" class="st9" width="187.3" height="1.4"/>
				</g>
				<g>
					
						<rect x="-3.1" y="482.8" transform="matrix(0.7071 -0.7071 0.7071 0.7071 -317.6562 200.1612)" class="st9" width="171.8" height="1.4"/>
				</g>
				<g>
					
						<rect x="-0.8" y="477.3" transform="matrix(0.7071 -0.7071 0.7071 0.7071 -315.3479 194.6924)" class="st9" width="156.3" height="1.4"/>
				</g>
				<g>
					
						<rect x="1.4" y="471.9" transform="matrix(0.7071 -0.7071 0.7071 0.7071 -313.1396 189.2064)" class="st9" width="140.8" height="1.4"/>
				</g>
				<g>
					
						<rect x="3.7" y="466.4" transform="matrix(0.7071 -0.7071 0.7071 0.7071 -310.8315 183.7379)" class="st9" width="125.3" height="1.4"/>
				</g>
				<g>
					
						<rect x="6" y="460.8" transform="matrix(0.7071 -0.7071 0.7071 0.7071 -308.494 178.1983)" class="st9" width="109.8" height="1.4"/>
				</g>
				<g>
					
						<rect x="8.3" y="455.4" transform="matrix(0.7071 -0.7071 0.7071 0.7071 -306.2736 172.8002)" class="st9" width="94.3" height="1.4"/>
				</g>
				<g>
					
						<rect x="10.5" y="450" transform="matrix(0.7071 -0.7071 0.7071 0.7071 -304.0652 167.3146)" class="st9" width="78.8" height="1.4"/>
				</g>
				<g>
					
						<rect x="12.8" y="444.4" transform="matrix(0.7071 -0.7071 0.7071 0.7071 -301.7277 161.7751)" class="st9" width="63.3" height="1.4"/>
				</g>
				<g>
					
						<rect x="15.1" y="438.9" transform="matrix(0.7071 -0.7071 0.7071 0.7071 -299.4194 156.3063)" class="st9" width="47.8" height="1.4"/>
				</g>
				<g>
					
						<rect x="17.3" y="433.5" transform="matrix(0.7071 -0.7071 0.7071 0.7071 -297.2112 150.8205)" class="st9" width="32.3" height="1.4"/>
				</g>
				<g>
					
						<rect x="19.6" y="428" transform="matrix(0.7071 -0.7071 0.7071 0.7071 -294.9616 145.3517)" class="st9" width="16.8" height="1.4"/>
				</g>
				<g>
					
						<rect x="21.9" y="422.5" transform="matrix(0.7071 -0.7071 0.7071 0.7071 -292.6533 139.8832)" class="st9" width="1.3" height="1.4"/>
				</g>
			</g>
		</g>
	</g>
</g>
<g>
	<g>
		<g>
			<path class="st10" d="M68.7,388.3c-0.3,0.2-0.7,0.1-0.9-0.2c-0.2-0.3-0.1-0.7,0.2-0.9l34.2-24.2l0,0l0,0l0,0l0,0l0,0l0,0l0,0
				c0,0,0,0,0.1,0s0.1,0,0.2,0l0,0l0,0c0.1,0,0.1,0,0.2,0c0,0,0,0,0.1,0l0,0l0,0l0,0l0,0l0,0l0,0l0,0l34.2,24.2
				c0.3,0.2,0.4,0.6,0.2,0.9s-0.6,0.4-0.9,0.2l-33.8-24L68.7,388.3z"/>
			<circle class="st11" cx="102.6" cy="363.5" r="3.8"/>
		</g>
		<g>
			<path class="st12" d="M0.4,385.1h204.4v238.4H0.4V385.1L0.4,385.1z M46.4,431.1v146.4h112.4V431.1H46.4z"/>
			<g>
				<path class="st13" d="M0.4,385.1h204.4v238.4H0.4V385.1L0.4,385.1z M38.4,423.1v162.3h128.3V423.1H38.4z"/>
				<polygon class="st14" points="22.9,407.6 182.2,407.6 174.7,415.2 30.5,415.2 				"/>
				<polygon class="st15" points="22.9,600.9 182.2,600.9 174.7,593.4 30.5,593.4 				"/>
				<polygon class="st16" points="22.9,407.6 30.5,415.2 30.5,593.4 22.9,600.9 				"/>
				<polygon class="st17" points="182.2,407.6 174.7,415.2 174.7,593.4 182.2,600.9 				"/>
				<polygon class="st14" points="38.4,423.1 166.7,423.1 158.8,431.1 46.4,431.1 				"/>
				<polygon class="st16" points="46.4,431.1 46.4,577.5 38.4,585.4 38.4,423.1 				"/>
				<polygon class="st17" points="166.7,423.1 166.7,585.4 158.8,577.5 158.8,431.1 				"/>
				<polygon class="st15" points="46.4,577.5 158.8,577.5 166.7,585.4 38.4,585.4 				"/>
			</g>
		</g>
	</g>
</g>
<g>
	<rect x="67.6" y="483.6" class="st9" width="69.6" height="37.1"/>
	<rect x="81.6" y="513.5" class="st18" width="41.5" height="1.3"/>
</g>
<g>
	<path class="st18" d="M86.1,494.6c0.1-0.2,0.2-0.2,0.4-0.2h1.9c0.2,0,0.3,0.1,0.3,0.3v1.1c0,0.2-0.1,0.3-0.3,0.3h-0.8l-3.2,4.2
		l3.6,4.5h0.6c0.2,0,0.3,0.1,0.3,0.3v1.1c0,0.2-0.1,0.3-0.3,0.3h-2c-0.2,0-0.2,0-0.5-0.3l-3.9-5.1v3.6H83c0.3,0,0.4,0.1,0.4,0.4v0.9
		c0,0.3,0,0.4-0.4,0.4h-4.1c-0.3,0-0.4,0-0.4-0.4v-0.9c0-0.3,0.1-0.4,0.4-0.4H80V496h-0.9c-0.3,0-0.4-0.1-0.4-0.4v-0.9
		c0-0.3,0-0.4,0.4-0.4h4.1c0.3,0,0.4,0,0.4,0.4v0.9c0,0.3-0.1,0.4-0.4,0.4h-0.8v3.6L86.1,494.6z"/>
	<path class="st18" d="M95.8,496.1c-0.3,0-0.4-0.1-0.4-0.4v-0.9c0-0.3,0.1-0.4,0.4-0.4h4.1c0.3,0,0.4,0,0.4,0.4v0.9
		c0,0.3-0.1,0.4-0.4,0.4H99v6.3c0,1.6-0.3,2.4-1.1,3.2c-0.8,0.8-1.9,1.2-3.3,1.2c-1.6,0-2.7-0.5-3.3-1.4c-0.5-0.7-0.7-1.6-0.7-3
		v-6.3h-0.9c-0.3,0-0.4-0.1-0.4-0.4v-0.9c0-0.3,0-0.4,0.4-0.4h4.2c0.3,0,0.4,0.1,0.4,0.4v0.9c0,0.3-0.1,0.4-0.4,0.4H93v6.3
		c0,1.2,0.1,1.6,0.4,1.9c0.3,0.4,0.8,0.5,1.4,0.5c1.4,0,2-0.7,2-2.4v-6.3L95.8,496.1L95.8,496.1z"/>
	<path class="st18" d="M107.4,500.1c0.4,0.7,0.9,1.9,1.1,2.5c-0.1-1.3-0.1-1.7-0.1-2.3V496h-0.9c-0.3,0-0.4-0.1-0.4-0.4v-0.9
		c0-0.3,0.1-0.4,0.4-0.4h3.8c0.3,0,0.4,0.1,0.4,0.4v0.9c0,0.3-0.1,0.4-0.4,0.4h-0.9v10c0,0.3-0.1,0.4-0.4,0.4h-1.2
		c-0.2,0-0.3,0-0.4-0.2l-3.2-6c-0.5-1-0.8-1.5-1.1-2.4c0.1,1.4,0.1,1.4,0.1,2.3v4.7h0.9c0.3,0,0.4,0.1,0.4,0.4v0.9
		c0,0.3-0.1,0.4-0.4,0.4h-3.8c-0.3,0-0.4,0-0.4-0.4v-0.9c0-0.3,0.1-0.4,0.4-0.4h0.9v-8.7h-0.9c-0.3,0-0.4-0.1-0.4-0.4v-0.9
		c0-0.3,0-0.4,0.4-0.4h2.7c0.2,0,0.3,0,0.4,0.2L107.4,500.1z"/>
	<path class="st18" d="M114.5,504.4c0.7,0.2,1.1,0.4,1.6,0.4c1,0,1.6-0.5,1.6-1.5c0-0.4-0.1-0.8-0.4-1c-0.3-0.3-0.4-0.4-2-1.1
		c-1.1-0.5-1.6-0.8-1.9-1.2c-0.5-0.5-0.8-1.3-0.8-2.2c0-2.2,1.5-3.5,3.8-3.5c1,0,2.2,0.3,2.9,0.7c0.2,0.1,0.3,0.2,0.3,0.4v2.4
		c0,0.2-0.1,0.3-0.3,0.3H118c-0.2,0-0.3-0.1-0.3-0.3v-1.4c-0.5-0.2-0.8-0.2-1.2-0.2c-1,0-1.6,0.5-1.6,1.3c0,0.6,0.3,0.9,1.6,1.6
		c1.7,0.8,2.1,1.1,2.6,1.6c0.6,0.7,0.9,1.5,0.9,2.5c0,2.2-1.5,3.6-3.8,3.6c-1.1,0-2.6-0.3-3.3-0.7c-0.2-0.1-0.3-0.2-0.3-0.4v-2.6
		c0-0.2,0.1-0.3,0.3-0.3h1.3c0.2,0,0.3,0.1,0.3,0.3C114.5,503.1,114.5,504.4,114.5,504.4z"/>
	<path class="st18" d="M126.1,504.8h1.2c0.3,0,0.4,0.1,0.4,0.4v0.9c0,0.3,0,0.4-0.4,0.4h-4.7c-0.3,0-0.4,0-0.4-0.4v-0.9
		c0-0.3,0.1-0.4,0.4-0.4h1.2v-8.4h-1.3v1.7c0,0.2-0.1,0.3-0.3,0.3h-1c-0.2,0-0.3-0.1-0.3-0.3v-3.4c0-0.2,0.1-0.3,0.3-0.3h7.6
		c0.2,0,0.3,0.1,0.3,0.3v3.3c0,0.2-0.1,0.3-0.3,0.3h-1c-0.2,0-0.3-0.1-0.3-0.3v-1.7h-1.3L126.1,504.8L126.1,504.8z"/>
</g>
</svg>
