<?xml version="1.0" encoding="utf-8"?>
<!-- Generator: Adobe Illustrator 21.0.0, SVG Export Plug-In . SVG Version: 6.00 Build 0)  -->
<svg version="1.1" id="Layer_1" xmlns="http://www.w3.org/2000/svg" xmlns:xlink="http://www.w3.org/1999/xlink" x="0px" y="0px"
	 viewBox="0 0 417 268.9" style="enable-background:new 0 0 417 268.9;" xml:space="preserve">
<style type="text/css">
	.st0{fill:#0B9DB8;}
	.st1{fill:#30B085;}
	.st2{fill:#85D6E2;}
	.st3{fill:#EBFBFF;}
	.st4{fill:#EAEAEA;stroke:#000000;stroke-miterlimit:10;}
	.st5{fill:#3E60ED;}
	.st6{fill:#8CF46E;}
	.st7{fill:#E26464;}
	.st8{fill:#FF1212;}
</style>
<rect x="305.1" y="83.6" class="st0" width="20" height="30"/>
<g>
	<rect x="0.1" y="252.6" class="st1" width="417" height="16"/>
</g>
<rect x="73.1" y="133.6" class="st0" width="271" height="119"/>
<rect x="53.1" y="111.6" class="st2" width="310" height="22"/>
<rect x="87.1" y="157.6" class="st3" width="162" height="67"/>
<rect x="264.1" y="157.6" class="st3" width="41" height="95"/>
<polyline class="st4" points="240.1,224.6 240.1,166.6 96.1,166.6 96.1,224.6 "/>
<polygon class="st5" points="199.1,166.6 240.1,166.6 240.1,224.6 188.1,224.6 "/>
<polygon class="st6" points="199.1,166.6 188.1,224.6 127.1,224.6 146.1,166.6 "/>
<polygon class="st7" points="150.1,166.6 138.1,224.6 96.1,224.6 96.1,166.6 "/>
<circle cx="176.8" cy="171.3" r="2.7"/>
<circle cx="176.8" cy="178.9" r="2.7"/>
<circle cx="176.8" cy="186.5" r="2.7"/>
<circle cx="176.8" cy="194.1" r="2.7"/>
<circle cx="176.8" cy="201.7" r="2.7"/>
<circle cx="176.8" cy="209.3" r="2.7"/>
<circle cx="160" cy="171.3" r="2.7"/>
<circle cx="160" cy="178.9" r="2.7"/>
<circle cx="160" cy="186.5" r="2.7"/>
<circle cx="160" cy="194.1" r="2.7"/>
<circle cx="160" cy="201.7" r="2.7"/>
<circle cx="160" cy="209.3" r="2.7"/>
<circle cx="168.4" cy="171.3" r="2.7"/>
<circle cx="168.4" cy="178.9" r="2.7"/>
<circle cx="168.4" cy="186.5" r="2.7"/>
<circle cx="168.4" cy="194.1" r="2.7"/>
<circle cx="168.4" cy="201.7" r="2.7"/>
<circle cx="168.4" cy="209.3" r="2.7"/>
<circle cx="185.3" cy="171.3" r="2.7"/>
<circle cx="185.3" cy="178.9" r="2.7"/>
<circle cx="185.3" cy="186.5" r="2.7"/>
<circle cx="185.3" cy="194.1" r="2.7"/>
<circle cx="185.3" cy="201.7" r="2.7"/>
<circle cx="185.3" cy="209.3" r="2.7"/>
<circle cx="193.7" cy="171.3" r="2.7"/>
<circle cx="193.7" cy="178.9" r="2.7"/>
<circle cx="193.7" cy="186.5" r="2.7"/>
<circle cx="193.7" cy="194.1" r="2.7"/>
<circle cx="193.7" cy="201.7" r="2.7"/>
<circle cx="193.7" cy="209.3" r="2.7"/>
<circle cx="202.1" cy="171.3" r="2.7"/>
<circle cx="202.1" cy="178.9" r="2.7"/>
<circle cx="202.1" cy="186.5" r="2.7"/>
<circle cx="202.1" cy="194.1" r="2.7"/>
<circle cx="202.1" cy="201.7" r="2.7"/>
<circle cx="202.1" cy="209.3" r="2.7"/>
<circle cx="210.2" cy="171.3" r="2.7"/>
<circle cx="210.2" cy="178.9" r="2.7"/>
<circle cx="210.2" cy="186.5" r="2.7"/>
<circle cx="210.2" cy="194.1" r="2.7"/>
<circle cx="210.2" cy="201.7" r="2.7"/>
<circle cx="210.2" cy="209.3" r="2.7"/>
<circle cx="218.3" cy="171.3" r="2.7"/>
<circle cx="218.3" cy="178.9" r="2.7"/>
<circle cx="218.3" cy="186.5" r="2.7"/>
<circle cx="218.3" cy="194.1" r="2.7"/>
<circle cx="218.3" cy="201.7" r="2.7"/>
<circle cx="218.3" cy="209.3" r="2.7"/>
<circle cx="226.4" cy="171.3" r="2.7"/>
<circle cx="226.4" cy="178.9" r="2.7"/>
<circle cx="226.4" cy="186.5" r="2.7"/>
<circle cx="226.4" cy="194.1" r="2.7"/>
<circle cx="226.4" cy="201.7" r="2.7"/>
<circle cx="226.4" cy="209.3" r="2.7"/>
<circle cx="234.4" cy="171.3" r="2.7"/>
<circle cx="234.4" cy="178.9" r="2.7"/>
<circle cx="234.4" cy="186.5" r="2.7"/>
<circle cx="234.4" cy="194.1" r="2.7"/>
<circle cx="234.4" cy="201.7" r="2.7"/>
<circle cx="234.4" cy="209.3" r="2.7"/>
<circle cx="118.6" cy="171.3" r="2.7"/>
<circle cx="118.6" cy="178.9" r="2.7"/>
<circle cx="118.6" cy="186.5" r="2.7"/>
<circle cx="118.6" cy="194.1" r="2.7"/>
<circle cx="118.6" cy="201.7" r="2.7"/>
<circle cx="118.6" cy="209.3" r="2.7"/>
<circle cx="101.7" cy="171.3" r="2.7"/>
<circle cx="101.7" cy="178.9" r="2.7"/>
<circle cx="101.7" cy="186.5" r="2.7"/>
<circle cx="101.7" cy="194.1" r="2.7"/>
<circle cx="101.7" cy="201.7" r="2.7"/>
<circle cx="101.7" cy="209.3" r="2.7"/>
<circle cx="110.2" cy="171.3" r="2.7"/>
<circle cx="110.2" cy="178.9" r="2.7"/>
<circle cx="110.2" cy="186.5" r="2.7"/>
<circle cx="110.2" cy="194.1" r="2.7"/>
<circle cx="110.2" cy="201.7" r="2.7"/>
<circle cx="110.2" cy="209.3" r="2.7"/>
<circle cx="127" cy="171.3" r="2.7"/>
<circle cx="127" cy="178.9" r="2.7"/>
<circle cx="127" cy="186.5" r="2.7"/>
<circle cx="127" cy="194.1" r="2.7"/>
<circle cx="127" cy="201.7" r="2.7"/>
<circle cx="127" cy="209.3" r="2.7"/>
<circle cx="135.5" cy="171.3" r="2.7"/>
<circle cx="135.5" cy="178.9" r="2.7"/>
<circle cx="135.5" cy="186.5" r="2.7"/>
<circle cx="135.5" cy="194.1" r="2.7"/>
<circle cx="135.5" cy="201.7" r="2.7"/>
<circle cx="135.5" cy="209.3" r="2.7"/>
<circle cx="143.9" cy="171.3" r="2.7"/>
<circle cx="143.9" cy="178.9" r="2.7"/>
<circle cx="143.9" cy="186.5" r="2.7"/>
<circle cx="143.9" cy="194.1" r="2.7"/>
<circle cx="143.9" cy="201.7" r="2.7"/>
<circle cx="143.9" cy="209.3" r="2.7"/>
<circle cx="152.4" cy="171.3" r="2.7"/>
<circle cx="152.4" cy="178.9" r="2.7"/>
<circle cx="152.4" cy="186.5" r="2.7"/>
<circle cx="152.4" cy="194.1" r="2.7"/>
<circle cx="152.4" cy="201.7" r="2.7"/>
<circle cx="152.4" cy="209.3" r="2.7"/>
<circle cx="176.8" cy="216.3" r="2.7"/>
<circle cx="160" cy="216.3" r="2.7"/>
<circle cx="168.4" cy="216.3" r="2.7"/>
<circle cx="185.3" cy="216.3" r="2.7"/>
<circle cx="193.7" cy="216.3" r="2.7"/>
<circle cx="202.1" cy="216.3" r="2.7"/>
<circle cx="210.2" cy="216.3" r="2.7"/>
<circle cx="218.3" cy="216.3" r="2.7"/>
<circle cx="226.4" cy="216.3" r="2.7"/>
<circle cx="234.4" cy="216.3" r="2.7"/>
<circle cx="118.6" cy="216.3" r="2.7"/>
<circle cx="101.7" cy="216.3" r="2.7"/>
<circle cx="110.2" cy="216.3" r="2.7"/>
<circle cx="127" cy="216.3" r="2.7"/>
<circle cx="135.5" cy="216.3" r="2.7"/>
<circle cx="143.9" cy="216.3" r="2.7"/>
<circle cx="152.4" cy="216.3" r="2.7"/>
<path d="M179.5,223.3c0,0.5-0.1,0.9-0.3,1.3h-4.7c-0.2-0.4-0.3-0.8-0.3-1.3c0-1.5,1.2-2.7,2.7-2.7
	C178.3,220.6,179.5,221.8,179.5,223.3z"/>
<path d="M162.6,223.3c0,0.5-0.1,0.9-0.3,1.3h-4.7c-0.2-0.4-0.3-0.8-0.3-1.3c0-1.5,1.2-2.7,2.7-2.7
	C161.4,220.6,162.6,221.8,162.6,223.3z"/>
<path d="M171.1,223.3c0,0.5-0.1,0.9-0.3,1.3h-4.7c-0.2-0.4-0.3-0.8-0.3-1.3c0-1.5,1.2-2.7,2.7-2.7
	C169.9,220.6,171.1,221.8,171.1,223.3z"/>
<path d="M188,223.3c0,0.5-0.1,0.9-0.3,1.3H183c-0.2-0.4-0.3-0.8-0.3-1.3c0-1.5,1.2-2.7,2.7-2.7C186.8,220.6,188,221.8,188,223.3z"/>
<path d="M196.4,223.3c0,0.5-0.1,0.9-0.3,1.3h-4.7c-0.2-0.4-0.3-0.8-0.3-1.3c0-1.5,1.2-2.7,2.7-2.7
	C195.2,220.6,196.4,221.8,196.4,223.3z"/>
<path d="M204.8,223.3c0,0.5-0.1,0.9-0.3,1.3h-4.7c-0.2-0.4-0.3-0.8-0.3-1.3c0-1.5,1.2-2.7,2.7-2.7
	C203.6,220.6,204.8,221.8,204.8,223.3z"/>
<path d="M212.9,223.3c0,0.5-0.1,0.9-0.3,1.3h-4.7c-0.2-0.4-0.3-0.8-0.3-1.3c0-1.5,1.2-2.7,2.7-2.7
	C211.7,220.6,212.9,221.8,212.9,223.3z"/>
<path d="M221,223.3c0,0.5-0.1,0.9-0.3,1.3H216c-0.2-0.4-0.3-0.8-0.3-1.3c0-1.5,1.2-2.7,2.7-2.7S221,221.8,221,223.3z"/>
<path d="M229,223.3c0,0.5-0.1,0.9-0.3,1.3H224c-0.2-0.4-0.3-0.8-0.3-1.3c0-1.5,1.2-2.7,2.7-2.7S229,221.8,229,223.3z"/>
<path d="M236.8,224.6c0.2-0.4,0.3-0.8,0.3-1.3c0-1.5-1.2-2.7-2.7-2.7s-2.7,1.2-2.7,2.7c0,0.5,0.1,0.9,0.3,1.3H236.8z"/>
<path d="M121.3,223.3c0,0.5-0.1,0.9-0.3,1.3h-4.7c-0.2-0.4-0.3-0.8-0.3-1.3c0-1.5,1.2-2.7,2.7-2.7S121.3,221.8,121.3,223.3z"/>
<path d="M104.4,223.3c0,0.5-0.1,0.9-0.3,1.3h-4.7c-0.2-0.4-0.3-0.8-0.3-1.3c0-1.5,1.2-2.7,2.7-2.7S104.4,221.8,104.4,223.3z"/>
<path d="M112.9,223.3c0,0.5-0.1,0.9-0.3,1.3h-4.7c-0.2-0.4-0.3-0.8-0.3-1.3c0-1.5,1.2-2.7,2.7-2.7S112.9,221.8,112.9,223.3z"/>
<path d="M129.7,223.3c0,0.5-0.1,0.9-0.3,1.3h-4.7c-0.2-0.4-0.3-0.8-0.3-1.3c0-1.5,1.2-2.7,2.7-2.7S129.7,221.8,129.7,223.3z"/>
<path d="M138.2,223.3c0,0.5-0.1,0.9-0.3,1.3h-4.7c-0.2-0.4-0.3-0.8-0.3-1.3c0-1.5,1.2-2.7,2.7-2.7
	C137,220.6,138.2,221.8,138.2,223.3z"/>
<path d="M146.6,223.3c0,0.5-0.1,0.9-0.3,1.3h-4.7c-0.2-0.4-0.3-0.8-0.3-1.3c0-1.5,1.2-2.7,2.7-2.7S146.6,221.8,146.6,223.3z"/>
<path d="M155,223.3c0,0.5-0.1,0.9-0.3,1.3H150c-0.2-0.4-0.3-0.8-0.3-1.3c0-1.5,1.2-2.7,2.7-2.7S155,221.8,155,223.3z"/>
<path class="st8" d="M194.1,166.6"/>
</svg>
