<?xml version="1.0" encoding="utf-8"?>
<!-- Generator: Adobe Illustrator 21.0.0, SVG Export Plug-In . SVG Version: 6.00 Build 0)  -->
<svg version="1.1" id="Layer_1" xmlns="http://www.w3.org/2000/svg" xmlns:xlink="http://www.w3.org/1999/xlink" x="0px" y="0px"
	 viewBox="0 0 150 150" style="enable-background:new 0 0 150 150;" xml:space="preserve">
<style type="text/css">
	.st0{fill:#3FAF6C;}
	.st1{fill:#3F3F3F;}
</style>
<path class="st0" d="M150,75c0,41.4-33.6,75-75,75S0,116.4,0,75c0-19.7,7.6-37.5,19.9-50.9c1.5-1.6,3.1-3.2,4.8-4.7
	C38,7.3,55.7,0,75,0C116.4,0,150,33.6,150,75z"/>
<g>
	<path class="st1" d="M100.3,110.8L87.8,98.3l-6.2,6.2l12.5,12.5c1.7,1.7,4.5,1.7,6.2,0C102,115.3,102,112.6,100.3,110.8z
		 M116.5,94.7L104,82.2l-6.2,6.2l12.5,12.5c1.7,1.7,4.5,1.7,6.2,0C118.2,99.2,118.2,96.4,116.5,94.7z M106.1,68.6
		c-2.4-2.4-6.4-2.4-8.8,0L96,69.9c-0.3-0.5-0.7-0.9-1.1-1.3L81.3,55c-4.4-4.4-11.6-4.4-16,0l-0.8,0.8l-3.4-3.4
		c-1.4-1.4-2.7-1.4-4-0.7L24.7,19.4c-1.7,1.5-3.3,3.1-4.8,4.7l32.3,32.3c-1,1.5-1.2,2.9,0.4,4.5l3.4,3.4l-1.8,1.8
		c-4.4,4.4-4.4,11.5,0,15.9l13.6,13.6c0.4,0.4,0.8,0.8,1.3,1.1l-1.3,1.3c-2.4,2.4-2.4,6.3,0,8.8c2.4,2.4,6.4,2.4,8.8,0l29.5-29.5
		C108.5,75,108.5,71,106.1,68.6z"/>
</g>
<g>
</g>
<g>
</g>
<g>
</g>
<g>
</g>
<g>
</g>
</svg>
