<?xml version="1.0" encoding="utf-8"?>
<!-- Generator: Adobe Illustrator 21.0.0, SVG Export Plug-In . SVG Version: 6.00 Build 0)  -->
<svg version="1.1" id="Layer_1" xmlns="http://www.w3.org/2000/svg" xmlns:xlink="http://www.w3.org/1999/xlink" x="0px" y="0px"
	 viewBox="0 0 150 150" style="enable-background:new 0 0 150 150;" xml:space="preserve">
<style type="text/css">
	.st0{fill:#E54141;}
	.st1{fill:#3F3F3F;}
</style>
<circle class="st0" cx="75" cy="75" r="75"/>
<g>
	<path class="st1" d="M76.3,64.2c1.5-2.6,2.5-5.4,2.9-8.3c0.5-3.3,0.2-6.8-0.7-10c-0.4-1.4-1-2.9-1.7-4.2c-0.2-0.3-0.4-0.7-0.6-1
		c-0.6-1-1.3-2-2-2.9c-0.5-0.6-1-1.2-1.6-1.8c-2-2-4.3-3.6-6.7-4.7c-0.7-0.3-1.4-0.6-2.1-0.9c-2.1-0.8-4.4-1.2-6.6-1.3
		c-0.7,0-1.5,0-2.2,0s-1.5,0.1-2.2,0.2c-3.7,0.5-7.3,2-10.5,4.3c-0.9,0.7-1.9,1.5-2.7,2.3c-0.9,0.9-1.6,1.8-2.3,2.7
		c-0.9,1.3-1.7,2.6-2.4,4c-0.3,0.7-0.6,1.4-0.9,2.1c-0.3,0.7-0.5,1.4-0.6,2.2c-0.9,3.7-0.9,7.5,0,11.2c0.4,1.8,1.1,3.6,2,5.3
		c1.1,2,2.5,4,4.2,5.7c1.7,1.7,3.6,3.1,5.7,4.2c1.6,0.8,3.2,1.5,4.9,1.9c3.1,0.8,6.2,1,9.3,0.5c2.9-0.4,5.7-1.4,8.3-2.9
		c1.7-1,3.4-2.2,4.9-3.7C74.1,67.5,75.3,65.9,76.3,64.2z M72.1,53.2c0,0.5-0.1,1-0.1,1.5c-0.1,0.8-0.3,1.5-0.5,2.3
		c-0.2,0.7-0.5,1.5-0.8,2.2c-0.1,0.2-0.2,0.5-0.4,0.7c-0.2,0.5-0.5,0.9-0.8,1.4c-0.6,0.9-1.3,1.7-2.1,2.5l0,0
		c-2.4,2.4-5.3,3.8-8.3,4.4c-0.3,0-0.5,0.1-0.8,0.1c-0.5,0.1-1,0.1-1.5,0.1c-0.5,0-1,0-1.5,0c-0.8,0-1.5-0.1-2.3-0.3
		c-0.5-0.1-1-0.2-1.5-0.4c-0.5-0.1-1-0.3-1.5-0.5c-1.9-0.8-3.8-2-5.3-3.5c-1.6-1.6-2.8-3.4-3.5-5.3c-0.2-0.5-0.4-1-0.5-1.5
		c-0.1-0.5-0.3-1-0.4-1.5c-0.1-0.8-0.2-1.5-0.3-2.3c0-0.5,0-1,0-1.5c0-0.5,0.1-1,0.1-1.5c0-0.3,0.1-0.5,0.1-0.8
		c0.6-3.1,2.1-6,4.4-8.3l0,0c0.8-0.8,1.6-1.5,2.5-2.1c0.4-0.3,0.9-0.6,1.4-0.8c0.2-0.1,0.5-0.2,0.7-0.4c0.7-0.3,1.5-0.6,2.2-0.8
		c0.7-0.2,1.5-0.4,2.3-0.5c0.5-0.1,1-0.1,1.5-0.1c0.5,0,1,0,1.5,0c3.9,0.2,7.7,1.8,10.6,4.7c3,3,4.5,6.8,4.7,10.6
		C72.2,52.2,72.2,52.7,72.1,53.2z"/>
	<path class="st1" d="M117,104.9L78.3,66.2c-1.1,1.7-2.3,3.3-3.8,4.8c-1.5,1.5-3.1,2.7-4.8,3.8l21.5,21.5l-6.1,6.1
		c-0.5,0.5-0.5,1.4,0,2l4.3,4.3c0.5,0.5,1.4,0.5,2,0l6.1-6.1l5.6,5.6l-6.1,6.1c-0.5,0.5-0.5,1.4,0,2l4.3,4.3c0.5,0.5,1.4,0.5,2,0
		l6.1-6.1l4.3-4.3l3.3-3.3C117.6,106.3,117.6,105.4,117,104.9z"/>
</g>
<g>
</g>
<g>
</g>
<g>
</g>
<g>
</g>
<g>
</g>
</svg>
