<?xml version="1.0" encoding="utf-8"?>
<!-- Generator: Adobe Illustrator 21.0.0, SVG Export Plug-In . SVG Version: 6.00 Build 0)  -->
<svg version="1.1" id="Layer_1" xmlns="http://www.w3.org/2000/svg" xmlns:xlink="http://www.w3.org/1999/xlink" x="0px" y="0px"
	 viewBox="0 0 1280 1024" style="enable-background:new 0 0 1280 1024;" xml:space="preserve">
<g>
	<path d="M347,456.8c3.6-6.3,5.3-13.6,5.3-22.1c0-7.3-0.9-14.2-2.7-20.7c-1.8-6.5-5.2-12.3-10.3-17.3c-5.1-5-12.2-9-21.3-11.9
		c-9.1-3-21.1-4.4-35.8-4.4h-82.3v33.3h14.2v110.7h-14.2v33.5h81.8v-33.5h-15.5V485h19.3c9.2,0,17.7-1.1,25.8-3.2
		c8.1-2.1,15.1-5.2,21.2-9.4C338.6,468.3,343.4,463,347,456.8z M295.7,452.1c-4.6,3.6-10.6,5.5-18,5.5h-11.4v-44.2h12.7
		c7.5,0,13.3,1.9,17.4,5.8c4.2,3.9,6.2,9.6,6.2,17.3C302.5,443.2,300.2,448.4,295.7,452.1z M474.4,466.5c-3.6-8.2-8.6-15.2-14.9-21
		c-6.3-5.8-13.7-10.1-22.2-13.1c-8.6-3-17.8-4.5-27.8-4.7c-8.8,0-17.4,1.4-25.6,4.3c-8.3,2.9-15.7,7.1-22.2,12.7
		c-6.5,5.6-11.8,12.5-15.7,20.7c-4,8.2-6,17.6-6,28.3c-0.2,11.2,1.7,21,5.7,29.5c4,8.5,9.3,15.5,15.9,21.1
		c6.6,5.6,14.2,9.8,22.7,12.6c8.5,2.8,17.4,4.2,26.5,4.2c9.7,0,18.7-1.5,27.2-4.4c8.4-3,15.8-7.3,22.1-13
		c6.3-5.7,11.2-12.6,14.9-20.8c3.6-8.2,5.4-17.6,5.2-28.1C480,484.2,478.1,474.8,474.4,466.5z M426.9,508.2
		c-0.8,4.1-1.9,7.7-3.4,10.8c-1.5,3-3.4,5.4-5.5,7.1c-2.1,1.7-4.5,2.5-7.3,2.5c-5.4,0-9.9-3.1-13.5-9.4c-3.6-6.3-5.3-14.7-5.3-25.1
		c0-4.6,0.5-8.9,1.4-13c0.9-4.1,2.2-7.6,3.7-10.7c1.5-3.1,3.3-5.4,5.4-7.1c2.1-1.7,4.5-2.5,7-2.5c5.9,0.2,10.5,3.5,13.7,9.9
		c3.2,6.4,4.8,14.5,4.8,24.1C428.1,499.6,427.7,504,426.9,508.2z M614.6,448.6c-5-6.1-11.3-10.9-18.8-14.5c-7.5-3.6-16.2-5.3-26-5.3
		c-3.9,0-7.5,0.4-10.7,1.3c-3.2,0.8-6.1,1.8-8.6,2.9c-2.5,1.1-4.8,2.3-6.7,3.5c-1.9,1.3-3.5,2.4-4.7,3.2l-4.3-8.9h-58.2v33.8h10.7
		v111.7h-10.7v33.3h75.9v-33.3h-13.7v-25.6c0.5,0.4,1.5,1.1,3,2.2c1.5,1.1,3.6,2.2,6.2,3.4c2.6,1.2,5.9,2.2,9.9,3.1
		c4,0.8,8.6,1.3,13.8,1.3c8.1,0,15.7-1.5,22.8-4.6c7.1-3.1,13.3-7.4,18.4-13c5.1-5.6,9.2-12.4,12.2-20.4c3-8,4.5-17.1,4.5-27.3
		c0-9-1.3-17.5-3.8-25.5C623.4,461.8,619.6,454.7,614.6,448.6z M570.2,519c-3.3,5.8-7.7,8.6-13.1,8.6c-2.4,0-4.7-0.8-6.9-2.3
		c-2.2-1.5-4.1-3.7-5.8-6.5c-1.7-2.8-3.1-6-4.1-9.6c-1-3.6-1.5-7.7-1.5-12.1c-0.3-5.1,0-9.6,0.9-13.6c0.9-4,2.2-7.4,3.9-10.2
		c1.7-2.8,3.7-5,6-6.5c2.3-1.5,4.7-2.3,7.2-2.3c2.7,0,5.2,0.9,7.5,2.8c2.3,1.9,4.2,4.2,5.8,7.1c1.6,2.9,2.8,6.2,3.7,10
		c0.8,3.8,1.3,7.6,1.3,11.3C575.1,505.5,573.5,513.2,570.2,519z M825.7,380.3h-75.2v33.5h13.7v53.8c0,11-0.6,19.8-1.8,26.3
		c-1.2,6.5-2.9,11.5-5.2,15c-2.3,3.5-5,5.8-8.1,6.9c-3.1,1.1-6.6,1.7-10.5,1.7c-4.1,0-7.7-0.7-10.8-2c-3.1-1.3-5.8-3.8-8-7.5
		c-2.2-3.6-3.9-8.7-4.9-15.1c-1.1-6.5-1.7-14.7-1.7-24.9v-54.9h13.7v-32.8h-80.8v33h14.2v62.7c0,29,6.7,50.3,20.1,64.1
		c13.4,13.8,32.9,21.1,58.7,22c23.9,0,42-7,54.4-21.1c12.4-14.1,18.5-36.2,18.5-66.3v-61.7h13.7V380.3z M958,448.6
		c-5-6.1-11.3-10.9-18.8-14.5c-7.5-3.6-16.2-5.3-26-5.3c-3.9,0-7.5,0.4-10.7,1.3c-3.2,0.8-6.1,1.8-8.6,2.9c-2.5,1.1-4.8,2.3-6.7,3.5
		c-1.9,1.3-3.5,2.4-4.7,3.2l-4.3-8.9h-58.2v33.8h10.7v111.7h-10.7v33.3h75.9v-33.3h-13.7v-25.6c0.5,0.4,1.5,1.1,3,2.2
		c1.5,1.1,3.6,2.2,6.2,3.4c2.6,1.2,5.9,2.2,9.9,3.1c4,0.8,8.6,1.3,13.8,1.3c8.1,0,15.8-1.5,22.9-4.6c7.1-3.1,13.2-7.4,18.4-13
		c5.2-5.6,9.2-12.4,12.2-20.4c3-8,4.4-17.1,4.4-27.3c0-9-1.3-17.5-3.8-25.5C966.7,461.8,963,454.7,958,448.6z M913.5,519
		c-3.3,5.8-7.7,8.6-13.1,8.6c-2.4,0-4.7-0.8-6.9-2.3c-2.2-1.5-4.1-3.7-5.8-6.5c-1.7-2.8-3-6-4-9.6c-1-3.6-1.5-7.7-1.5-12.1
		c-0.3-5.1,0-9.6,0.9-13.6c0.9-4,2.2-7.4,3.9-10.2c1.7-2.8,3.7-5,6-6.5c2.3-1.5,4.7-2.3,7.2-2.3c2.7,0,5.2,0.9,7.5,2.8
		c2.3,1.9,4.2,4.2,5.8,7.1c1.6,2.9,2.8,6.2,3.7,10c0.8,3.8,1.3,7.6,1.3,11.3C918.5,505.5,916.9,513.2,913.5,519z"/>
</g>
<path d="M1069.8,339.3h-36.3v-38.7c0-7.8,7.9-14.2,17.7-14.2h1c9.7,0,17.7,6.4,17.7,14.2V339.3z"/>
<rect x="1020.1" y="349.1" width="63.1" height="14"/>
<path d="M1051.6,254.5c-46.7,0-84.6,37.9-84.6,84.6c0,25.6,11.4,48.5,29.3,64.1l-9.3,24.7l27.5-12.7c11.2,5.5,23.8,8.6,37.1,8.6
	c3.9,0,7.8-0.3,11.5-0.8c41.3-5.6,73.1-41,73.1-83.8C1136.3,292.3,1098.4,254.5,1051.6,254.5z M1095.4,368.1c0,2.7-2.7,4.9-6.1,4.9
	h-7.3v17.4c0,2.7-2.7,4.9-6.1,4.9c-3.4,0-6.1-2.2-6.1-4.9V373h-36.4v8.9v8.4c0,2.7-2.7,4.9-6.1,4.9c-3.4,0-6.1-2.2-6.1-4.9v-12.2
	V373h-7.3c-3.4,0-6.1-2.2-6.1-4.9v-23.9c0-2.7,2.7-4.9,6.1-4.9h7.3v-38.7c0-13.2,13.4-24,29.9-24h1c16.5,0,29.9,10.8,29.9,24v38.7
	h7.3c3.4,0,6.1,2.2,6.1,4.9V368.1z"/>
<g>
</g>
<g>
</g>
<g>
</g>
<g>
</g>
<g>
</g>
</svg>
