<?xml version="1.0" encoding="utf-8"?>
<!-- Generator: Adobe Illustrator 21.0.0, SVG Export Plug-In . SVG Version: 6.00 Build 0)  -->
<svg version="1.1" id="Layer_1" xmlns="http://www.w3.org/2000/svg" xmlns:xlink="http://www.w3.org/1999/xlink" x="0px" y="0px"
	 viewBox="0 0 1920 858.3" style="enable-background:new 0 0 1920 858.3;" xml:space="preserve">
<style type="text/css">
	.st0{fill:#F2F2F2;}
	.st1{fill:url(#SVGID_1_);}
	.st2{fill:url(#SVGID_2_);}
	.st3{clip-path:url(#SVGID_7_);}
	.st4{clip-path:url(#SVGID_8_);fill:url(#SVGID_9_);}
	.st5{opacity:0.8;fill:url(#SVGID_10_);enable-background:new    ;}
	.st6{clip-path:url(#SVGID_15_);}
	.st7{clip-path:url(#SVGID_16_);fill:url(#SVGID_17_);}
	.st8{opacity:0.8;fill:#F2F2F2;enable-background:new    ;}
	.st9{clip-path:url(#SVGID_22_);}
	.st10{clip-path:url(#SVGID_23_);fill:url(#XMLID_4_);}
	.st11{fill:url(#XMLID_5_);}
	.st12{clip-path:url(#SVGID_28_);}
	.st13{clip-path:url(#SVGID_29_);fill:url(#XMLID_7_);}
	.st14{opacity:0.84;fill:url(#XMLID_8_);}
	.st15{fill:#1D3A58;}
	.st16{opacity:0.5;fill:#FFFFFF;enable-background:new    ;}
	.st17{clip-path:url(#SVGID_34_);}
	.st18{clip-path:url(#SVGID_35_);fill:url(#SVGID_36_);}
	.st19{fill:url(#SVGID_37_);}
	.st20{clip-path:url(#SVGID_42_);}
	.st21{clip-path:url(#SVGID_43_);fill:url(#SVGID_44_);}
	.st22{fill:url(#SVGID_45_);}
	.st23{clip-path:url(#SVGID_50_);}
	.st24{clip-path:url(#SVGID_51_);fill:url(#SVGID_52_);}
	.st25{fill:url(#SVGID_53_);}
	.st26{fill:#FE9CA9;}
	.st27{fill:#85D6E2;}
	.st28{fill:#FFFFFF;}
	.st29{fill:#EBFBFF;}
	.st30{fill:#0B9DB8;}
	.st31{fill:#30B085;}
	.st32{fill:#E2C7D6;}
	.st33{fill:#BDBDBD;}
	.st34{fill:#E7DAE1;}
	.st35{fill:#AFAAAD;}
	.st36{fill:#CCF3FA;}
</style>
<g id="Layer_2">
</g>
<rect x="1" y="786.8" class="st0" width="1918" height="72.4"/>
<g id="Layer_1_1_">
	
		<linearGradient id="SVGID_1_" gradientUnits="userSpaceOnUse" x1="1071.3" y1="72.1" x2="1071.3" y2="105.5" gradientTransform="matrix(1 0 0 -1 0 858)">
		<stop  offset="0" style="stop-color:#85D6E2"/>
		<stop  offset="1" style="stop-color:#E7DAE1"/>
	</linearGradient>
	<polygon class="st1" points="1047.4,785.9 1022.8,752.5 1119.8,752.5 1095.2,785.9 	"/>
	
		<linearGradient id="SVGID_2_" gradientUnits="userSpaceOnUse" x1="960.95" y1="29" x2="960.95" y2="1031.1" gradientTransform="matrix(1 0 0 -1 0 858)">
		<stop  offset="0" style="stop-color:#85D6E2"/>
		<stop  offset="1" style="stop-color:#E7DAE1"/>
	</linearGradient>
	<path class="st2" d="M1.9-173.1v959h908.8l21.9,32h26.8l21.8-32H1920v-959L1.9-173.1L1.9-173.1z M934.6,820.9l5.5,8.1h11.7l5.5-8.1
		l1.6-2.3H933L934.6,820.9z"/>
	<g>
		<g>
			<g>
				<defs>
					<polygon id="SVGID_3_" points="1,1 2,1 1,2 					"/>
				</defs>
				<clipPath id="SVGID_4_">
					<use xlink:href="#SVGID_3_"  style="overflow:visible;"/>
				</clipPath>
			</g>
			<g>
				<defs>
					<polygon id="SVGID_5_" points="1,1 2,1 1,2 					"/>
				</defs>
				<defs>
					<polygon id="SVGID_6_" points="-1,-1 -2,-1 -1,-2 					"/>
				</defs>
				<clipPath id="SVGID_7_">
					<use xlink:href="#SVGID_5_"  style="overflow:visible;"/>
				</clipPath>
				<clipPath id="SVGID_8_" class="st3">
					<use xlink:href="#SVGID_6_"  style="overflow:visible;"/>
				</clipPath>
				
					<linearGradient id="SVGID_9_" gradientUnits="userSpaceOnUse" x1="4678.9067" y1="466.7102" x2="5182.6328" y2="-405.7687" gradientTransform="matrix(-1 0 0 1 5461.5137 602)">
					<stop  offset="0" style="stop-color:#1A1A1A"/>
					<stop  offset="1" style="stop-color:#B3B3B3"/>
				</linearGradient>
				<path class="st4" d="M449.3,474c-20.6-9.4-53.7-13.6-69.1-1.2c-19.7-6.5-45.5,0.3-41.4,15.5c-4.5-11.9-24.6-12.8-38.5-8.8
					c7.2-7.2,6.4-20.6,1-28c-5.2-7.3-17.1-15.1-27.1-18.7c-20-7.2-36.7-9.2-58.4-6.2c-12.8,1.8-20,5-26.6,14.5
					c-9.5-9.5-33.1-11.9-48.6-6.5c4.7-42.8-40.8-57.2-88.8-49.2c0.7-1.5,1.1-3.1,1.1-4.7c0.4-15.2-22.6-26.2-50.4-24.9L0,744.7v76.1
					h1212V716.3c0.5-18.4-10.2-44-71.4-44c-5-8.5-13.8-15.5-30.5-16.4c6.1-21-7.5-33.4-32-42.6c-13.3-5-22-7.7-37.7-7
					c-10.9,0.5-30,2.8-37.1,8.2c0-11.3-21.3-20.9-31.8-20.9c-12.1,0-25.6,0.5-35.6,4.7c-5.4,2.3-15.9,8-15.4,12.2
					c-4.4-3.9-22.1-8.9-36.5-1c0-3.6-2.7-6.9-9.4-9.7c-4-1.6-14.4-2.8-18.4-1.6c3.6-5.8,1.5-13.3-3.1-18.1
					c-7.5-7.9-15.6-10.9-26.2-11.9c-33.8-3.3-64.8,2.8-67.2,21.7c-8.4-5.5-16.1-7.9-28.9-7.9c-10.2,0-29.6,1.2-29.6,7.8
					c3.2-9-6.2-20.4-19-26.4c-7.6-3.5-13.6-6.1-22.6-8.4c-20.2-5.1-49.1-4.3-68.2,3.1c-3.8,1.5-18.8,10.5-18.8,19.6
					c-7.8-8.8-50.5-15.2-61.1,0.3c0-11.3-15.4-18.1-32.1-21.1c21.1-9.6,14.3-41-17.1-41.1c11-3,14.2-14.2,7-25.2
					C469.6,490.7,459.7,478.8,449.3,474z"/>
			</g>
		</g>
	</g>
	
		<linearGradient id="SVGID_10_" gradientUnits="userSpaceOnUse" x1="274.5647" y1="714.3608" x2="787.0307" y2="-173.2562" gradientTransform="matrix(1 0 0 -1 0 858)">
		<stop  offset="0" style="stop-color:#FFFFFF"/>
		<stop  offset="1" style="stop-color:#FFFFFF"/>
	</linearGradient>
	<path class="st5" d="M1208.2,643c-1.4-2.7-3.2-5.4-5.6-7.9c-1.7-1.8-3.7-3.6-6.1-5.3c-2.2-1.6-4.8-3.1-7.7-4.4
		c-4.5-2.1-9.7-3.9-15.9-5.3c-0.3-0.1-0.6-0.1-0.9-0.2c-2-0.4-4-0.8-6.2-1.1c-2.9-0.5-6-0.8-9.2-1.1c-2-0.2-4-0.3-6.1-0.4
		c-2.9-0.1-6-0.2-9.2-0.2c-0.2,0-0.5,0-0.7,0c-1.5-2.5-3.3-4.9-5.5-7c-2.5-2.4-5.5-4.4-9.2-6c-2.3-1-5-1.8-7.9-2.4
		c-2.3-0.5-4.9-0.8-7.6-1c-0.1,0-0.2,0-0.3,0c0.1-0.4,0.2-0.7,0.3-1.1c1.6-6,1.5-11.3,0-16c-0.9-2.8-2.3-5.4-4.2-7.8l0,0
		c-2.1-2.8-4.9-5.3-8.1-7.6c-2-1.4-4.2-2.8-6.5-4.1c-4-2.2-8.5-4.2-13.4-6c-5.6-2.1-10.3-3.8-15.2-5c-6.7-1.7-13.4-2.4-22.5-2
		c-5.1,0.2-11.9,0.9-18.5,2c-7.5,1.3-14.8,3.3-18.6,6.2c0-2.1-0.8-4.2-2.1-6.2c-2.1-3.1-5.5-5.9-9.4-8.2c-0.5-0.3-1-0.6-1.5-0.9
		c-6.4-3.5-13.8-5.6-18.7-5.6c-6.5,0-13.3,0.1-19.8,0.9c-3.8,0.4-7.6,1.1-11,2.1c-1.7,0.5-3.3,1-4.8,1.7c-1,0.4-2.1,0.9-3.3,1.5
		c-4,2-8.8,4.9-10.9,7.7c-0.8,1-1.3,2.1-1.2,3c-1.1-1-3.2-2.1-5.8-3c-6.5-2.3-16.8-3.5-26.3,0c-1.5,0.5-3,1.2-4.4,2
		c0-0.7-0.1-1.4-0.3-2c-0.9-2.8-3.7-5.4-9.1-7.7c-4-1.6-14.4-2.8-18.4-1.6c0.2-0.3,0.4-0.7,0.5-1c1.1-2.2,1.5-4.7,1.2-7.1
		c-0.4-3.7-2.2-7.3-4.8-10c-0.1-0.1-0.2-0.2-0.3-0.3c-3-3.1-6-5.4-9.3-7.1c-4.9-2.6-10.3-3.9-16.6-4.5c-3.9-0.4-7.8-0.6-11.6-0.8
		c-29-1-53.5,5.8-55.6,22.5c-8.4-5.5-16.1-7.9-28.9-7.9c-9.3,0-26.2,1-29.2,6.2c1.6-8.7-7.4-19.1-19.4-24.8
		c-7.6-3.5-13.6-6.1-22.6-8.4c-20.2-5.1-49.1-4.3-68.2,3.1c-3.8,1.5-18.8,10.5-18.8,19.6c-7.8-8.8-50.5-15.2-61.1,0.3
		c0-11.3-15.4-18.1-32.1-21.1c21.1-9.6,14.3-41-17.1-41.1c11-3,14.2-14.2,7-25.2c0.3,0-9.6-11.8-20-16.6
		c-20.6-9.4-53.7-13.6-69.1-1.2c-19.7-6.5-45.5,0.3-41.4,15.5c-4.5-11.9-24.6-12.8-38.5-8.8c7.2-7.2,6.4-20.6,1-28
		c-5.2-7.3-17.1-15.1-27.1-18.7c-20-7.2-36.7-9.2-58.4-6.2c-12.8,1.8-20,5-26.6,14.5c-9.5-9.5-33.1-11.9-48.6-6.5
		c4.7-42.8-40.8-57.2-88.8-49.2c0.7-1.5,1.1-3.1,1.1-4.7c0.4-15.2-22.6-26.2-50.4-24.9l-0.6,93.3L0,686.9v2.5v96.5h910.7l21.9,32
		h26.8l21.8-32H1212V661C1212.2,655.4,1211.2,649,1208.2,643z M934.6,820.9h22.7l1.6-2.3H933L934.6,820.9z"/>
	<g>
		<g>
			<g>
				<defs>
					<polygon id="SVGID_11_" points="1,1 2,1 1,2 					"/>
				</defs>
				<clipPath id="SVGID_12_">
					<use xlink:href="#SVGID_11_"  style="overflow:visible;"/>
				</clipPath>
			</g>
			<g>
				<defs>
					<polygon id="SVGID_13_" points="1,1 2,1 1,2 					"/>
				</defs>
				<defs>
					<polygon id="SVGID_14_" points="-1,-1 -2,-1 -1,-2 					"/>
				</defs>
				<clipPath id="SVGID_15_">
					<use xlink:href="#SVGID_13_"  style="overflow:visible;"/>
				</clipPath>
				<clipPath id="SVGID_16_" class="st6">
					<use xlink:href="#SVGID_14_"  style="overflow:visible;"/>
				</clipPath>
				
					<linearGradient id="SVGID_17_" gradientUnits="userSpaceOnUse" x1="915.0545" y1="436.4707" x2="1350.2201" y2="-317.2583" gradientTransform="matrix(1 0 0 1 314.4727 602)">
					<stop  offset="0" style="stop-color:#1A1A1A"/>
					<stop  offset="1" style="stop-color:#B3B3B3"/>
				</linearGradient>
				<path class="st7" d="M1522.8,529.3c18.2-7.9,47.5-11.4,61-1c17.4-5.4,40.2,0.3,36.6,12.9c4-9.9,21.8-10.7,34-7.3
					c-6.4-6-5.6-17.1-0.9-23.3c4.6-6.1,15.1-12.6,23.9-15.6c17.7-6,32.4-7.7,51.6-5.2c11.3,1.5,17.7,4.2,23.5,12.1
					c8.4-7.9,29.2-10,43-5.4c-4.1-35.7,36-47.7,78.5-41.1c-0.6-1.2-1-2.6-1-3.9c-0.4-12.7,20-21.9,44.5-20.8l2.4,324.4v63.5H848.7
					v-87.2c-0.5-15.3,9-36.7,63.1-36.7c4.4-7.1,12.2-13,27-13.7c-5.4-17.5,6.6-27.8,28.2-35.5c11.8-4.2,19.4-6.5,33.3-5.8
					c9.6,0.5,26.6,2.3,32.8,6.8c0-9.4,18.9-17.4,28.1-17.4c10.7,0,22.7,0.4,31.4,3.9c4.8,1.9,14,6.7,13.6,10.2
					c3.9-3.3,19.6-7.5,32.3-0.8c0-3,2.4-5.8,8.3-8c3.5-1.4,12.8-2.3,16.2-1.3c-3.2-4.9-1.3-11.1,2.8-15.1c6.6-6.6,13.8-9.1,23.1-9.9
					c29.9-2.7,57.3,2.3,59.4,18.1c7.4-4.6,14.2-6.6,25.5-6.6c9,0,26.2,1,26.2,6.5c-2.9-7.5,5.5-17,16.8-22c6.7-3,12-5.1,19.9-7
					c17.9-4.2,43.4-3.6,60.3,2.6c3.3,1.2,16.6,8.7,16.6,16.3c6.9-7.3,44.6-12.7,54,0.2c0-9.4,13.6-15.1,28.4-17.6
					c-18.7-8-12.7-34.2,15.1-34.3c-9.7-2.5-12.6-11.8-6.2-21C1504.9,543.2,1513.7,533.3,1522.8,529.3z"/>
			</g>
		</g>
	</g>
	<path class="st8" d="M1919.9,687.7v98.2H981.1l-21.8,32h-26.8l-21.9-32h-62v-122c0-0.1,0-0.2,0-0.3c0-2.3,0.1-4.7,0.6-7.1
		c0.7-3.4,2.1-7,4.4-10.3c1.7-2.5,4-4.9,7-7.1c6.1-4.6,15.1-8.3,28-10.3c6.6-1,14.2-1.6,23.1-1.6c1.2-2,2.7-3.8,4.5-5.5
		c3.8-3.5,9-6.3,16.3-7.5c1.9-0.3,4-0.5,6.2-0.7c-2.3-7.4-1.5-13.5,1.9-18.7c2.7-4.1,6.9-7.6,12.5-10.7c4-2.2,8.6-4.2,13.8-6.1
		c5.3-1.9,9.7-3.4,14.2-4.4l0,0c0.8-0.2,1.6-0.3,2.5-0.5c4.9-0.9,10-1.2,16.6-0.9c3,0.2,6.8,0.4,10.7,0.9c8.5,1,17.9,2.8,22.1,5.9
		c0-2.1,0.9-4,2.4-5.9c3.1-3.8,8.8-7,14.4-9.1c4.1-1.5,8.2-2.4,11.3-2.4c8.9,0,18.7,0.3,26.8,2.4c1.6,0.4,3.2,0.9,4.6,1.5
		c1.5,0.6,3.5,1.5,5.5,2.6c4.2,2.2,8.4,5.2,8.1,7.6l0,0l0,0c0.9-0.7,2.3-1.5,4.2-2.2c2.1-0.8,4.7-1.4,7.6-1.8
		c2.5-0.3,5.2-0.4,7.9-0.2c3,0.2,6.2,0.8,9.2,2c1.2,0.4,2.3,0.9,3.4,1.5c0-1.8,0.8-3.5,2.8-5.1c1.3-1.1,3.1-2,5.5-2.9
		c0.9-0.4,2.2-0.7,3.7-1c1.9-0.3,4.1-0.6,6.1-0.7c2.6-0.1,5,0,6.4,0.4c-1.8-2.8-2-6-1-9c0.6-2,1.7-3.8,3.2-5.4
		c0.2-0.2,0.4-0.5,0.7-0.7c2-2,4-3.6,6.2-4.9c2.9-1.8,5.9-3,9.2-3.8c1.9-0.5,4-0.8,6.1-1c0.5-0.1,1.1-0.1,1.6-0.2
		c2.6-0.2,5.1-0.4,7.6-0.5c2.1-0.1,4.1-0.2,6.1-0.2c3.2,0,6.2,0,9.2,0.2c2.7,0.2,5.4,0.4,7.9,0.8c3.9,0.5,7.6,1.3,10.9,2.3
		c2.2,0.6,4.2,1.4,6,2.2c2.6,1.2,4.9,2.6,6.7,4.3c2.1,1.8,3.6,4,4.4,6.4c0.3,0.8,0.5,1.7,0.6,2.6c2-1.3,4-2.3,6.1-3.2
		c1.4-0.6,2.8-1.1,4.3-1.5c2.1-0.6,4.3-1.1,6.7-1.4c1.4-0.2,2.8-0.3,4.3-0.4c1.3-0.1,2.7-0.1,4.1-0.1c0.8,0,1.7,0,2.6,0
		c1.4,0,2.9,0.1,4.4,0.2c2.2,0.1,4.5,0.3,6.7,0.6c1.5,0.2,2.9,0.4,4.3,0.7c2.8,0.6,5.2,1.4,6.7,2.5c0.5,0.3,0.8,0.7,1.1,1.2
		c-0.7-3.3,0.6-6.8,3.2-10.2c1.1-1.4,2.3-2.7,3.8-4c2.8-2.5,6.3-4.7,10.2-6.4c5.5-2.5,10.1-4.3,16-6c1.2-0.3,2.5-0.7,3.9-1
		c4.4-1,9.2-1.8,14.2-2.2c4.7-0.4,9.6-0.6,14.5-0.5c2.4,0,4.7,0.2,7.1,0.4c8.9,0.7,17.4,2.3,24.5,4.9c0.8,0.3,2.3,1,4,2
		c2.6,1.5,5.8,3.7,8.3,6.2c0.5,0.5,1,1,1.4,1.6c1.7,2.1,2.9,4.3,2.9,6.5c1.4-1.5,4.2-3,7.8-4.2c4.3-1.5,9.8-2.6,15.6-3.1
		c3-0.3,6-0.4,9-0.3c1.7,0,3.4,0.2,5.1,0.4c4.3,0.5,8.3,1.5,11.4,3.2c1.2,0.6,2.3,1.4,3.2,2.2c0.7,0.6,1.3,1.3,1.8,2
		c0-0.7,0.1-1.4,0.2-2c0.2-0.8,0.4-1.5,0.8-2.2c2.2-4.5,7.8-7.9,14.8-10.3c0.6-0.2,1.2-0.4,1.8-0.6c3.4-1,7.1-1.9,10.8-2.5
		c-9.3-4-12.5-12.4-9.9-19.9c0.2-0.6,0.4-1.2,0.7-1.8c1.9-4,5.5-7.7,10.8-10c3.7-1.6,8.2-2.6,13.5-2.6c-9.1-2.4-12.2-10.7-7.2-19.4
		c0.3-0.5,0.6-1.1,1-1.6c0,0,0,0,0.1-0.1c0.8-0.8,6.4-6.9,13-11.2c0.6-0.4,1.2-0.8,1.8-1.1c1-0.6,2-1.1,3-1.5
		c8.3-3.6,18.9-6.3,29.2-7.2c1.7-0.2,3.4-0.2,5.1-0.3c10.5-0.3,20.4,1.5,26.7,6.4c17.4-5.4,40.2,0.3,36.6,12.9
		c4-9.9,21.8-10.7,34-7.3c-6.4-6-5.6-17.1-0.9-23.3c4.6-6.1,15.1-12.6,23.9-15.6c17.7-6,32.4-7.7,51.6-5.2
		c11.3,1.5,17.7,4.2,23.5,12.1c8.4-7.9,29.2-10,43-5.4c-4.1-35.7,36-47.7,78.5-41.1c-0.6-1.2-1-2.6-1-3.9
		c-0.4-12.7,20-21.9,44.5-20.8l2.4,323.6L1919.9,687.7z"/>
	<g>
		<g>
			<g>
				<defs>
					<polygon id="SVGID_18_" points="1,1 2,1 1,2 					"/>
				</defs>
				<clipPath id="SVGID_19_">
					<use xlink:href="#SVGID_18_"  style="overflow:visible;"/>
				</clipPath>
			</g>
			<g>
				<defs>
					<polygon id="SVGID_20_" points="1,1 2,1 1,2 					"/>
				</defs>
				<defs>
					<polygon id="SVGID_21_" points="-1,-1 -2,-1 -1,-2 					"/>
				</defs>
				<clipPath id="SVGID_22_">
					<use xlink:href="#SVGID_20_"  style="overflow:visible;"/>
				</clipPath>
				<clipPath id="SVGID_23_" class="st9">
					<use xlink:href="#SVGID_21_"  style="overflow:visible;"/>
				</clipPath>
				
					<linearGradient id="XMLID_4_" gradientUnits="userSpaceOnUse" x1="927.9" y1="-425.4" x2="1343.0999" y2="-425.4" gradientTransform="matrix(1 0 0 1 0 602)">
					<stop  offset="0" style="stop-color:#4D4D4D"/>
					<stop  offset="0.974" style="stop-color:#FAFAFA"/>
					<stop  offset="1" style="stop-color:#FFFFFF"/>
				</linearGradient>
				<path id="XMLID_3_" class="st10" d="M1312.9,175.4c-5.4,0-10.5,1.3-14.9,3.3c-4-17.6-23.2-31-46.3-31c-8,0-15.4,1.7-22,4.6
					c-10.3-13.6-28.7-22.7-49.9-22.7c-32.3,0-58.5,21-58.5,46.9c0,0.6,0.2,1.1,0.2,1.6c-0.1,0-0.1,0-0.2,0c-0.6,0-1,0.2-1.6,0.3
					c-6.5-8.5-18.1-14.3-31.5-14.3c-15.5,0-28.7,7.7-34.2,18.5c-3.6-1.5-7.6-2.4-11.9-2.4c-1.9,0-3.6,0.6-5.4,0.9
					c-5-13.7-20.7-23.8-39.4-23.8c-21.1,0-38.2,12.7-40.7,29.1c-1.7-0.3-3.3-0.8-5.1-0.8c-13.1,0-23.6,8.5-23.6,19s10.6,19,23.6,19
					h171.7h42.5h152.2V223c14.2-1.8,25.2-11.7,25.2-23.6C1342.8,186.2,1329.4,175.4,1312.9,175.4z"/>
			</g>
		</g>
	</g>
	
		<linearGradient id="XMLID_5_" gradientUnits="userSpaceOnUse" x1="927.9" y1="-425.4" x2="1343.0999" y2="-425.4" gradientTransform="matrix(1 0 0 1 0 602)">
		<stop  offset="0" style="stop-color:#FFFFFF"/>
		<stop  offset="0.974" style="stop-color:#FFFFFF"/>
		<stop  offset="1" style="stop-color:#FFFFFF"/>
	</linearGradient>
	<path id="XMLID_2172_" class="st11" d="M1312.9,175.4c-5.4,0-10.5,1.3-14.9,3.3c-4-17.6-23.2-31-46.3-31c-8,0-15.4,1.7-22,4.6
		c-10.3-13.6-28.7-22.7-49.9-22.7c-32.3,0-58.5,21-58.5,46.9c0,0.6,0.2,1.1,0.2,1.6c-0.1,0-0.1,0-0.2,0c-0.6,0-1,0.2-1.6,0.3
		c-6.5-8.5-18.1-14.3-31.5-14.3c-15.5,0-28.7,7.7-34.2,18.5c-3.6-1.5-7.6-2.4-11.9-2.4c-1.9,0-3.6,0.6-5.4,0.9
		c-5-13.7-20.7-23.8-39.4-23.8c-21.1,0-38.2,12.7-40.7,29.1c-1.7-0.3-3.3-0.8-5.1-0.8c-13.1,0-23.6,8.5-23.6,19s10.6,19,23.6,19
		h171.7h42.5h152.2V223c14.2-1.8,25.2-11.7,25.2-23.6C1342.8,186.2,1329.4,175.4,1312.9,175.4z"/>
	<g>
		<g>
			<g>
				<defs>
					<polygon id="SVGID_24_" points="1,1 2,1 1,2 					"/>
				</defs>
				<clipPath id="SVGID_25_">
					<use xlink:href="#SVGID_24_"  style="overflow:visible;"/>
				</clipPath>
			</g>
			<g>
				<defs>
					<polygon id="SVGID_26_" points="1,1 2,1 1,2 					"/>
				</defs>
				<defs>
					<polygon id="SVGID_27_" points="-1,-1 -2,-1 -1,-2 					"/>
				</defs>
				<clipPath id="SVGID_28_">
					<use xlink:href="#SVGID_26_"  style="overflow:visible;"/>
				</clipPath>
				<clipPath id="SVGID_29_" class="st12">
					<use xlink:href="#SVGID_27_"  style="overflow:visible;"/>
				</clipPath>
				
					<linearGradient id="XMLID_7_" gradientUnits="userSpaceOnUse" x1="277.3" y1="-360.8" x2="579.3" y2="-360.8" gradientTransform="matrix(1 0 0 1 0 602)">
					<stop  offset="0" style="stop-color:#4D4D4D"/>
					<stop  offset="0.974" style="stop-color:#FAFAFA"/>
					<stop  offset="1" style="stop-color:#FFFFFF"/>
				</linearGradient>
				<path id="XMLID_2_" class="st13" d="M557.5,240c-4,0-7.6,1.3-10.8,3.3c-2.9-17.6-16.9-31-33.7-31c-5.8,0-11.2,1.7-16,4.6
					c-7.5-13.6-20.8-22.7-36.3-22.7c-23.5,0-42.6,21-42.6,46.9c0,0.6,0.1,1.1,0.1,1.6c-0.1,0-0.1,0-0.1,0c-0.4,0-0.8,0.2-1.2,0.3
					c-4.7-8.5-13.2-14.3-22.9-14.3c-11.3,0-20.9,7.7-24.9,18.5c-2.6-1.5-5.5-2.4-8.6-2.4c-1.4,0-2.6,0.6-4,0.9
					c-3.7-13.7-15-23.8-28.7-23.8c-15.3,0-27.8,12.7-29.6,29.1c-1.2-0.3-2.4-0.8-3.7-0.8c-9.5,0-17.2,8.5-17.2,19s7.7,19,17.2,19
					h124.9h30.9H561v-0.4c10.4-1.8,18.3-11.7,18.3-23.6C579.3,250.7,569.5,240,557.5,240z"/>
			</g>
		</g>
	</g>
	
		<linearGradient id="XMLID_8_" gradientUnits="userSpaceOnUse" x1="326.5772" y1="-348.5176" x2="574.4893" y2="-348.5176" gradientTransform="matrix(1 0 0 1 0 602)">
		<stop  offset="0" style="stop-color:#FFFFFF"/>
		<stop  offset="0.974" style="stop-color:#FFFFFF"/>
		<stop  offset="1" style="stop-color:#FFFFFF"/>
	</linearGradient>
	<path id="XMLID_6_" class="st14" d="M556.6,252.5c-3.3,0-6.2,1.1-8.9,2.7c-2.4-14.4-13.9-25.4-27.7-25.4c-4.8,0-9.2,1.4-13.1,3.8
		c-6.2-11.2-17.1-18.6-29.8-18.6c-19.3,0-35,17.2-35,38.5c0,0.5,0.1,0.9,0.1,1.3c-0.1,0-0.1,0-0.1,0c-0.3,0-0.7,0.2-1,0.2
		c-3.9-7-10.8-11.7-18.8-11.7c-9.3,0-17.2,6.3-20.4,15.2c-2.1-1.2-4.5-2-7.1-2c-1.1,0-2.1,0.5-3.3,0.7c-3-11.2-12.3-19.5-23.6-19.5
		c-12.6,0-22.8,10.4-24.3,23.9c-1-0.2-2-0.7-3-0.7c-7.8,0-14.1,7-14.1,15.6c0,8.6,6.3,15.6,14.1,15.6h102.5h25.4h90.9v-0.3
		c8.5-1.5,15-9.6,15-19.4C574.5,261.3,566.4,252.5,556.6,252.5z"/>
	<g>
		<g>
			<path class="st15" d="M1065.4,342.2h-2.4c0-6.5-10.2-11.7-22.6-11.7c-0.7,0-1.2-0.4-1.2-0.9s0.5-0.9,1.2-0.9
				c11.1,0,20.6,4,23.8,9.5c3.2-5.5,12.7-9.5,23.8-9.5c0.6,0,1.2,0.4,1.2,0.9s-0.5,0.9-1.2,0.9
				C1075.6,330.4,1065.4,335.7,1065.4,342.2z"/>
		</g>
		<g>
			<path class="st15" d="M1124.2,360h-2.6c0-3.7-5.9-6.6-13.1-6.6c-0.7,0-1.3-0.5-1.3-1c0-0.6,0.6-1,1.3-1c6.5,0,12,2.1,14.4,5.2
				c2.4-3.1,7.9-5.2,14.4-5.2c0.7,0,1.3,0.5,1.3,1c0,0.6-0.6,1-1.3,1C1130,353.4,1124.2,356.4,1124.2,360z"/>
		</g>
		<g>
			<path class="st15" d="M1392.2,292.2h-2.6c0-3.7-5.9-6.6-13.1-6.6c-0.7,0-1.3-0.5-1.3-1c0-0.6,0.6-1,1.3-1c6.5,0,12,2.1,14.4,5.2
				c2.4-3.1,7.9-5.2,14.4-5.2c0.7,0,1.3,0.5,1.3,1c0,0.6-0.6,1-1.3,1C1398.1,285.5,1392.2,288.5,1392.2,292.2z"/>
		</g>
		<g>
			<path class="st15" d="M1585.5,226.6h-2.6c0-3.7-5.9-6.6-13.1-6.6c-0.7,0-1.3-0.5-1.3-1c0-0.6,0.6-1,1.3-1c6.5,0,12,2.1,14.4,5.2
				c2.4-3.1,7.9-5.2,14.4-5.2c0.7,0,1.3,0.5,1.3,1c0,0.6-0.6,1-1.3,1C1591.4,220,1585.5,223,1585.5,226.6z"/>
		</g>
	</g>
	<path class="st16" d="M1314.3,277.4c8.1,6.5,8.2,16.9,0.1,23.4c8.1-6.5,20.9-6.5,29,0c-8.1-6.5-8-16.9,0.1-23.4
		C1335.5,283.9,1322.5,283.9,1314.3,277.4z"/>
	<path class="st16" d="M725.9,288.6c8.1,6.5,8.2,16.9,0.1,23.4c8.1-6.5,20.9-6.5,29,0c-8.1-6.5-8-16.9,0.1-23.4
		C747,295.2,734,295.2,725.9,288.6z"/>
	<path class="st16" d="M1323.9,133.6c8.1,6.5,8.2,16.9,0.1,23.4c8.1-6.5,20.9-6.5,29,0c-8.1-6.5-8-16.9,0.1-23.4
		C1345,140.2,1332,140.2,1323.9,133.6z"/>
	<path class="st16" d="M549.9,145.6c8.1,6.5,8.2,16.9,0.1,23.4c8.1-6.5,20.9-6.5,29,0c-8.1-6.5-8-16.9,0.1-23.4
		C571,152.2,558,152.2,549.9,145.6z"/>
	<path class="st16" d="M829.8,226.8c3.2,2.6,3.3,6.7,0,9.3c3.2-2.6,8.3-2.6,11.5,0c-3.2-2.6-3.2-6.7,0-9.3
		C838.2,229.4,833,229.4,829.8,226.8z"/>
	<path class="st16" d="M1497.8,272.8c3.2,2.6,3.3,6.7,0,9.3c3.2-2.6,8.3-2.6,11.5,0c-3.2-2.6-3.2-6.7,0-9.3
		C1506.2,275.4,1501,275.4,1497.8,272.8z"/>
	<path class="st16" d="M1611.6,205.6c3.2,2.6,3.3,6.7,0,9.3c3.2-2.6,8.3-2.6,11.5,0c-3.2-2.6-3.2-6.7,0-9.3
		C1620,208.1,1614.8,208.1,1611.6,205.6z"/>
	<g>
		<g>
			<g>
				<defs>
					<polygon id="SVGID_30_" points="1,1 2,1 1,2 					"/>
				</defs>
				<clipPath id="SVGID_31_">
					<use xlink:href="#SVGID_30_"  style="overflow:visible;"/>
				</clipPath>
			</g>
			<g>
				<defs>
					<polygon id="SVGID_32_" points="1,1 2,1 1,2 					"/>
				</defs>
				<defs>
					<polygon id="SVGID_33_" points="-1,-1 -2,-1 -1,-2 					"/>
				</defs>
				<clipPath id="SVGID_34_">
					<use xlink:href="#SVGID_32_"  style="overflow:visible;"/>
				</clipPath>
				<clipPath id="SVGID_35_" class="st17">
					<use xlink:href="#SVGID_33_"  style="overflow:visible;"/>
				</clipPath>
				
					<linearGradient id="SVGID_36_" gradientUnits="userSpaceOnUse" x1="1401.6715" y1="-422.3" x2="1544.6722" y2="-422.3" gradientTransform="matrix(1 0 0 1 0 602)">
					<stop  offset="0" style="stop-color:#4D4D4D"/>
					<stop  offset="0.974" style="stop-color:#FAFAFA"/>
					<stop  offset="1" style="stop-color:#FFFFFF"/>
				</linearGradient>
				<path class="st18" d="M1523.9,175.7c-1.2,0-2.4,0.1-3.6,0.2v-0.1c0-9.2-9.3-16.7-20.8-16.7c-2.6,0-5.1,0.4-7.4,1.1
					c-3.2-5.9-10.5-9.9-19-9.9s-15.8,4.1-19,9.9c-2.3-0.7-4.8-1.1-7.4-1.1c-11.5,0-20.8,7.5-20.8,16.7v0.1c-1.2-0.2-2.3-0.2-3.6-0.2
					c-11.5,0-20.8,7.5-20.8,16.7c0,8.8,8.5,16,19.2,16.6v0.1h103.7l0,0c11.2-0.3,20.1-7.6,20.1-16.7
					C1544.6,183.1,1535.3,175.7,1523.9,175.7z"/>
			</g>
		</g>
	</g>
	
		<linearGradient id="SVGID_37_" gradientUnits="userSpaceOnUse" x1="1401.6715" y1="-422.3" x2="1544.6722" y2="-422.3" gradientTransform="matrix(1 0 0 1 0 602)">
		<stop  offset="0" style="stop-color:#FFFFFF"/>
		<stop  offset="0.974" style="stop-color:#FFFFFF"/>
		<stop  offset="1" style="stop-color:#FFFFFF"/>
	</linearGradient>
	<path class="st19" d="M1523.9,175.7c-1.2,0-2.4,0.1-3.6,0.2v-0.1c0-9.2-9.3-16.7-20.8-16.7c-2.6,0-5.1,0.4-7.4,1.1
		c-3.2-5.9-10.5-9.9-19-9.9s-15.8,4.1-19,9.9c-2.3-0.7-4.8-1.1-7.4-1.1c-11.5,0-20.8,7.5-20.8,16.7v0.1c-1.2-0.2-2.3-0.2-3.6-0.2
		c-11.5,0-20.8,7.5-20.8,16.7c0,8.8,8.5,16,19.2,16.6v0.1h103.7l0,0c11.2-0.3,20.1-7.6,20.1-16.7
		C1544.6,183.1,1535.3,175.7,1523.9,175.7z"/>
	<g>
		<g>
			<g>
				<defs>
					<polygon id="SVGID_38_" points="1,1 2,1 1,2 					"/>
				</defs>
				<clipPath id="SVGID_39_">
					<use xlink:href="#SVGID_38_"  style="overflow:visible;"/>
				</clipPath>
			</g>
			<g>
				<defs>
					<polygon id="SVGID_40_" points="1,1 2,1 1,2 					"/>
				</defs>
				<defs>
					<polygon id="SVGID_41_" points="-1,-1 -2,-1 -1,-2 					"/>
				</defs>
				<clipPath id="SVGID_42_">
					<use xlink:href="#SVGID_40_"  style="overflow:visible;"/>
				</clipPath>
				<clipPath id="SVGID_43_" class="st20">
					<use xlink:href="#SVGID_41_"  style="overflow:visible;"/>
				</clipPath>
				
					<linearGradient id="SVGID_44_" gradientUnits="userSpaceOnUse" x1="1662.6715" y1="-341.3" x2="1805.6722" y2="-341.3" gradientTransform="matrix(1 0 0 1 0 602)">
					<stop  offset="0" style="stop-color:#4D4D4D"/>
					<stop  offset="0.974" style="stop-color:#FAFAFA"/>
					<stop  offset="1" style="stop-color:#FFFFFF"/>
				</linearGradient>
				<path class="st21" d="M1784.9,256.7c-1.2,0-2.4,0.1-3.6,0.2v-0.1c0-9.2-9.3-16.7-20.8-16.7c-2.6,0-5.1,0.4-7.4,1.1
					c-3.2-5.9-10.5-9.9-19-9.9s-15.8,4.1-19,9.9c-2.3-0.7-4.8-1.1-7.4-1.1c-11.5,0-20.8,7.5-20.8,16.7v0.1c-1.2-0.2-2.3-0.2-3.6-0.2
					c-11.5,0-20.8,7.5-20.8,16.7c0,8.8,8.5,16,19.2,16.6v0.1h103.7l0,0c11.2-0.3,20.1-7.6,20.1-16.7
					C1805.6,264.1,1796.3,256.7,1784.9,256.7z"/>
			</g>
		</g>
	</g>
	
		<linearGradient id="SVGID_45_" gradientUnits="userSpaceOnUse" x1="1662.6715" y1="-341.3" x2="1805.6722" y2="-341.3" gradientTransform="matrix(1 0 0 1 0 602)">
		<stop  offset="0" style="stop-color:#FFFFFF"/>
		<stop  offset="0.974" style="stop-color:#FFFFFF"/>
		<stop  offset="1" style="stop-color:#FFFFFF"/>
	</linearGradient>
	<path class="st22" d="M1784.9,256.7c-1.2,0-2.4,0.1-3.6,0.2v-0.1c0-9.2-9.3-16.7-20.8-16.7c-2.6,0-5.1,0.4-7.4,1.1
		c-3.2-5.9-10.5-9.9-19-9.9s-15.8,4.1-19,9.9c-2.3-0.7-4.8-1.1-7.4-1.1c-11.5,0-20.8,7.5-20.8,16.7v0.1c-1.2-0.2-2.3-0.2-3.6-0.2
		c-11.5,0-20.8,7.5-20.8,16.7c0,8.8,8.5,16,19.2,16.6v0.1h103.7l0,0c11.2-0.3,20.1-7.6,20.1-16.7
		C1805.6,264.1,1796.3,256.7,1784.9,256.7z"/>
	<g>
		<g>
			<g>
				<g>
					<defs>
						<polygon id="SVGID_46_" points="1,1 2,1 1,2 						"/>
					</defs>
					<clipPath id="SVGID_47_">
						<use xlink:href="#SVGID_46_"  style="overflow:visible;"/>
					</clipPath>
				</g>
				<g>
					<defs>
						<polygon id="SVGID_48_" points="1,1 2,1 1,2 						"/>
					</defs>
					<defs>
						<polygon id="SVGID_49_" points="-1,-1 -2,-1 -1,-2 						"/>
					</defs>
					<clipPath id="SVGID_50_">
						<use xlink:href="#SVGID_48_"  style="overflow:visible;"/>
					</clipPath>
					<clipPath id="SVGID_51_" class="st23">
						<use xlink:href="#SVGID_49_"  style="overflow:visible;"/>
					</clipPath>
					
						<linearGradient id="SVGID_52_" gradientUnits="userSpaceOnUse" x1="641.8" y1="-433" x2="770.2" y2="-433" gradientTransform="matrix(1 0 0 1 0 602)">
						<stop  offset="0" style="stop-color:#4D4D4D"/>
						<stop  offset="0.974" style="stop-color:#FAFAFA"/>
						<stop  offset="1" style="stop-color:#FFFFFF"/>
					</linearGradient>
					<path class="st24" d="M749.3,160.5c-1.2,0-2.4,0.1-3.6,0.3v-0.1c0-9.2-9.3-16.7-20.9-16.7c-8.3,0-15.5,3.9-18.8,9.6
						c-3.3-5.7-10.5-9.6-18.8-9.6c-11.5,0-20.9,7.5-20.9,16.7v0.1c-1.2-0.2-2.4-0.3-3.6-0.3c-11.5,0-20.9,7.5-20.9,16.7
						c0,8.8,8.5,16,19.3,16.7v0.1H750l0,0c11.2-0.3,20.2-7.7,20.2-16.7C770.2,168,760.8,160.5,749.3,160.5z"/>
				</g>
			</g>
		</g>
		
			<linearGradient id="SVGID_53_" gradientUnits="userSpaceOnUse" x1="641.8" y1="-433" x2="770.2" y2="-433" gradientTransform="matrix(1 0 0 1 0 602)">
			<stop  offset="0" style="stop-color:#FFFFFF"/>
			<stop  offset="0.974" style="stop-color:#FFFFFF"/>
			<stop  offset="1" style="stop-color:#FFFFFF"/>
		</linearGradient>
		<path class="st25" d="M749.3,160.5c-1.2,0-2.4,0.1-3.6,0.3v-0.1c0-9.2-9.3-16.7-20.9-16.7c-8.3,0-15.5,3.9-18.8,9.6
			c-3.3-5.7-10.5-9.6-18.8-9.6c-11.5,0-20.9,7.5-20.9,16.7v0.1c-1.2-0.2-2.4-0.3-3.6-0.3c-11.5,0-20.9,7.5-20.9,16.7
			c0,8.8,8.5,16,19.3,16.7v0.1H750l0,0c11.2-0.3,20.2-7.7,20.2-16.7C770.2,168,760.8,160.5,749.3,160.5z"/>
	</g>
	<polygon class="st26" points="1047.4,785.9 1022.8,752.5 1119.8,752.5 1095.2,785.9 	"/>
	<path class="st26" d="M1545,657.7c0,7.2-0.3,14.3-0.8,21.4c-0.1,1.5-0.2,2.9-0.4,4.4c0,0.2,0,0.5-0.1,0.7c-0.5,6-1.3,11.9-2.2,17.7
		c-0.7,4.6-1.5,9.2-2.5,13.7c0,0.1-0.1,0.3-0.1,0.4c-0.9,4.5-1.9,19.2-3.1,36.4H977.5c-1.1-17.1-2.1-31.9-3.1-36.4
		c0-0.1-0.1-0.3-0.1-0.4c-0.9-4.5-1.7-9.1-2.4-13.7c-0.9-5.9-1.6-11.8-2.2-17.8c0-0.2,0-0.5-0.1-0.7c-0.7-7.8-1.1-15.7-1.1-23.6
		c0-0.7,0-1.4,0-2.1c0-3.2,0.1-6.3,0.2-9.5c0.1-3.2,0.3-6.4,0.5-9.5c0.3-3.9,0.6-7.8,1-11.6c0.3-3.2,0.7-6.4,1.2-9.5
		c0.5-3.9,1.2-7.8,1.9-11.6c0.6-3.2,1.2-6.4,1.9-9.5c0.8-3.9,1.8-7.8,2.8-11.6c0.8-3.2,1.7-6.4,2.7-9.5c1.2-3.9,2.4-7.8,3.7-11.6
		c1.1-3.2,2.3-6.4,3.5-9.5c1.5-3.9,3.1-7.8,4.8-11.6c1.4-3.2,2.9-6.4,4.4-9.5c1.9-3.9,3.9-7.8,5.9-11.6c1.7-3.2,3.5-6.4,5.4-9.5
		c2.3-3.9,4.7-7.8,7.2-11.6c2.1-3.2,4.3-6.4,6.5-9.5c2.8-4,5.7-7.8,8.7-11.6c2.6-3.2,5.2-6.4,7.9-9.5c3.4-4,7-7.9,10.6-11.6
		c3.1-3.2,6.3-6.4,9.6-9.5c4.2-4,8.6-7.9,13.1-11.6c3.9-3.3,7.9-6.4,12-9.5c7.3-5.5,14.8-10.6,22.6-15.4c3.8-2.3,7.7-4.6,11.6-6.8
		c41.2-22.7,88.5-35.6,138.8-35.6c74,0,141.6,27.9,192.6,73.8c5.6,5,10.9,10.2,16.1,15.6c2,2.1,3.9,4.2,5.8,6.3
		c1.8,2,3.6,4.1,5.4,6.2c6.8,8,13.2,16.5,19.1,25.2c0.4,0.6,0.8,1.2,1.2,1.9c4.9,7.3,9.4,14.9,13.6,22.7c0.7,1.2,1.3,2.4,1.9,3.6
		c1.5,2.9,3,5.8,4.4,8.7c0.4,0.8,0.7,1.5,1.1,2.3c5.2,11.1,9.6,22.5,13.4,34.3c0.2,0.6,0.4,1.2,0.6,1.9c3.4,11,6.2,22.2,8.3,33.7
		c0.1,0.6,0.2,1.2,0.3,1.9c1.9,11,3.2,22.3,3.9,33.7c0,0.6,0.1,1.2,0.1,1.9C1544.9,648,1545,652.8,1545,657.7z"/>
	<g>
		<rect x="940.7" y="405.4" class="st27" width="169.7" height="282.2"/>
		<rect x="951.7" y="415.4" class="st28" width="147.6" height="28.1"/>
		<rect x="951.7" y="452.6" class="st29" width="147.6" height="11"/>
		<rect x="951.7" y="472.6" class="st29" width="147.6" height="11"/>
		<rect x="951.7" y="492.7" class="st29" width="147.6" height="11"/>
		<rect x="951.7" y="512.8" class="st28" width="147.6" height="11"/>
		<rect x="951.7" y="532.9" class="st29" width="147.6" height="11"/>
		<rect x="951.7" y="553" class="st29" width="147.6" height="11"/>
		<rect x="951.7" y="573.1" class="st28" width="147.6" height="11"/>
		<rect x="951.7" y="593.2" class="st28" width="147.6" height="11"/>
		<rect x="951.7" y="613.2" class="st28" width="147.6" height="11"/>
		<rect x="951.7" y="633.3" class="st29" width="147.6" height="11"/>
		<rect x="951.7" y="653.4" class="st29" width="147.6" height="11"/>
		<rect x="985.9" y="376.4" class="st30" width="81.3" height="29.1"/>
	</g>
	<polygon class="st31" points="1119.8,752.5 1095.2,785.9 1047.4,785.9 1022.8,752.5 	"/>
	<polygon class="st31" points="1.9,785.9 1.9,752.4 848.7,752.4 977.5,752.4 1212,752.4 1535.8,752.4 1919.9,752.4 1920,752.4 
		1920,717.9 1920,717.5 1920,704.5 1920,686.9 1919.9,686.9 1543.4,686.9 1219.7,686.9 1212,686.9 1118,686.9 1110.4,686.9 
		1068.2,686.9 1042,686.9 970,686.9 940.7,686.9 848.7,686.9 806.3,686.9 799.6,686.9 1.9,686.9 0,686.9 0,686.9 0,689.4 0,704.5 
		0,717.5 0,717.9 0,785.9 	"/>
	<g>
		<polygon class="st31" points="1563.1,506.7 1575.5,488.6 1615.9,488.6 1629.1,506.7 		"/>
		<rect x="1563.1" y="506.7" class="st26" width="41.1" height="180.4"/>
		<rect x="1596.1" y="506.7" class="st32" width="33" height="180.4"/>
		<g>
			<rect x="1608" y="669.4" class="st29" width="8.3" height="17.7"/>
			<rect x="1608" y="638.1" class="st29" width="8.3" height="17.7"/>
			<rect x="1608" y="606.7" class="st29" width="8.3" height="17.7"/>
			<rect x="1608" y="575.4" class="st29" width="8.3" height="17.7"/>
			<rect x="1608" y="544.1" class="st29" width="8.3" height="17.7"/>
			<rect x="1608" y="512.8" class="st29" width="8.3" height="17.7"/>
		</g>
		<g>
			<rect x="1577.6" y="669.4" class="st29" width="8.3" height="17.7"/>
			<rect x="1577.6" y="638.1" class="st29" width="8.3" height="17.7"/>
			<rect x="1577.6" y="606.7" class="st29" width="8.3" height="17.7"/>
			<rect x="1577.6" y="575.4" class="st29" width="8.3" height="17.7"/>
			<rect x="1577.6" y="544.1" class="st29" width="8.3" height="17.7"/>
			<rect x="1577.6" y="512.8" class="st29" width="8.3" height="17.7"/>
		</g>
	</g>
	<rect y="704.5" class="st33" width="1920" height="13"/>
	<g>
		<g>
			<rect x="918.8" y="442.8" class="st33" width="3.2" height="48.9"/>
		</g>
		<rect x="815.3" y="463.2" class="st15" width="117.3" height="223.6"/>
		<g>
			<rect x="815.3" y="472.3" class="st34" width="117.3" height="10.3"/>
			<rect x="815.3" y="489.7" class="st34" width="117.3" height="10.3"/>
			<rect x="815.3" y="507.1" class="st34" width="117.3" height="10.3"/>
			<rect x="815.3" y="524.5" class="st34" width="117.3" height="10.3"/>
			<rect x="815.3" y="541.9" class="st34" width="117.3" height="10.3"/>
			<rect x="815.3" y="559.3" class="st34" width="117.3" height="10.3"/>
			<rect x="815.3" y="576.7" class="st34" width="117.3" height="10.3"/>
			<rect x="815.3" y="594" class="st34" width="117.3" height="10.3"/>
			<rect x="815.3" y="611.4" class="st34" width="117.3" height="10.3"/>
			<rect x="815.3" y="628.8" class="st34" width="117.3" height="10.3"/>
			<rect x="815.3" y="646.2" class="st34" width="117.3" height="10.3"/>
			<rect x="815.3" y="663.6" class="st34" width="117.3" height="10.3"/>
		</g>
	</g>
	<g>
		<polygon class="st31" points="1641.9,614 1621.3,675.6 1641.9,675.6 1662.4,675.6 		"/>
		<rect x="1639.7" y="675.6" class="st15" width="4.2" height="11.9"/>
	</g>
	<rect y="717.9" class="st35" width="1920" height="68"/>
	<g>
		<polygon class="st31" points="1587.1,635.6 1572.6,679.1 1587.1,679.1 1601.6,679.1 		"/>
		<rect x="1585.6" y="679.1" class="st15" width="3" height="8.4"/>
	</g>
	<g>
		<polygon class="st31" points="803,576.7 770.3,674.5 803,674.5 835.6,674.5 		"/>
		<rect x="799.6" y="674.5" class="st15" width="6.7" height="18.9"/>
	</g>
	<g>
		<polygon class="st15" points="1055.1,647.7 1041.8,687.6 1055.1,687.6 1068.4,687.6 		"/>
		<rect x="1053.7" y="687.6" class="st15" width="2.7" height="7.7"/>
	</g>
	<g>
		<g>
			<rect x="1136.2" y="412.3" class="st33" width="3.3" height="49.4"/>
			<rect x="1151.2" y="421.7" class="st33" width="3.3" height="49.4"/>
		</g>
		<rect id="XMLID_136_" x="1126.5" y="443.3" class="st31" width="84.9" height="11.8"/>
		<rect id="XMLID_135_" x="1118" y="452" class="st30" width="101.7" height="235.7"/>
		<g id="XMLID_128_">
			<rect id="XMLID_134_" x="1125.9" y="464.8" class="st36" width="9.2" height="17.6"/>
			<rect id="XMLID_133_" x="1141.3" y="464.8" class="st36" width="9.2" height="17.6"/>
			<rect id="XMLID_132_" x="1156.6" y="464.8" class="st36" width="9.2" height="17.6"/>
			<rect id="XMLID_131_" x="1172" y="464.8" class="st36" width="9.2" height="17.6"/>
			<rect id="XMLID_130_" x="1187.3" y="464.8" class="st36" width="9.2" height="17.6"/>
			<rect id="XMLID_129_" x="1202.6" y="464.8" class="st36" width="9.2" height="17.6"/>
		</g>
		<g id="XMLID_121_">
			<rect id="XMLID_127_" x="1125.9" y="487.7" class="st36" width="9.2" height="17.6"/>
			<rect id="XMLID_126_" x="1141.3" y="487.7" class="st36" width="9.2" height="17.6"/>
			<rect id="XMLID_125_" x="1156.6" y="487.7" class="st36" width="9.2" height="17.6"/>
			<rect id="XMLID_124_" x="1172" y="487.7" class="st36" width="9.2" height="17.6"/>
			<rect id="XMLID_123_" x="1187.3" y="487.7" class="st36" width="9.2" height="17.6"/>
			<rect id="XMLID_122_" x="1202.6" y="487.7" class="st36" width="9.2" height="17.6"/>
		</g>
		<g id="XMLID_114_">
			<rect id="XMLID_120_" x="1125.9" y="510.7" class="st36" width="9.2" height="17.6"/>
			<rect id="XMLID_119_" x="1141.3" y="510.7" class="st36" width="9.2" height="17.6"/>
			<rect id="XMLID_118_" x="1156.6" y="510.7" class="st36" width="9.2" height="17.6"/>
			<rect id="XMLID_117_" x="1172" y="510.7" class="st36" width="9.2" height="17.6"/>
			<rect id="XMLID_116_" x="1187.3" y="510.7" class="st36" width="9.2" height="17.6"/>
			<rect id="XMLID_115_" x="1202.6" y="510.7" class="st36" width="9.2" height="17.6"/>
		</g>
		<g id="XMLID_107_">
			<rect id="XMLID_113_" x="1125.9" y="533.6" class="st36" width="9.2" height="17.6"/>
			<rect id="XMLID_112_" x="1141.3" y="533.6" class="st36" width="9.2" height="17.6"/>
			<rect id="XMLID_111_" x="1156.6" y="533.6" class="st36" width="9.2" height="17.6"/>
			<rect id="XMLID_110_" x="1172" y="533.6" class="st36" width="9.2" height="17.6"/>
			<rect id="XMLID_109_" x="1187.3" y="533.6" class="st36" width="9.2" height="17.6"/>
			<rect id="XMLID_108_" x="1202.6" y="533.6" class="st36" width="9.2" height="17.6"/>
		</g>
		<g id="XMLID_100_">
			<rect id="XMLID_106_" x="1125.9" y="556.6" class="st36" width="9.2" height="17.6"/>
			<rect id="XMLID_105_" x="1141.3" y="556.6" class="st36" width="9.2" height="17.6"/>
			<rect id="XMLID_104_" x="1156.6" y="556.6" class="st36" width="9.2" height="17.6"/>
			<rect id="XMLID_103_" x="1172" y="556.6" class="st36" width="9.2" height="17.6"/>
			<rect id="XMLID_102_" x="1187.3" y="556.6" class="st36" width="9.2" height="17.6"/>
			<rect id="XMLID_101_" x="1202.6" y="556.6" class="st36" width="9.2" height="17.6"/>
		</g>
		<g id="XMLID_93_">
			<rect id="XMLID_99_" x="1125.9" y="579.5" class="st36" width="9.2" height="17.6"/>
			<rect id="XMLID_98_" x="1141.3" y="579.5" class="st36" width="9.2" height="17.6"/>
			<rect id="XMLID_97_" x="1156.6" y="579.5" class="st36" width="9.2" height="17.6"/>
			<rect id="XMLID_96_" x="1172" y="579.5" class="st36" width="9.2" height="17.6"/>
			<rect id="XMLID_95_" x="1187.3" y="579.5" class="st36" width="9.2" height="17.6"/>
			<rect id="XMLID_94_" x="1202.6" y="579.5" class="st36" width="9.2" height="17.6"/>
		</g>
		<g id="XMLID_86_">
			<rect id="XMLID_92_" x="1125.9" y="602.5" class="st36" width="9.2" height="17.6"/>
			<rect id="XMLID_91_" x="1141.3" y="602.5" class="st36" width="9.2" height="17.6"/>
			<rect id="XMLID_90_" x="1156.6" y="602.5" class="st36" width="9.2" height="17.6"/>
			<rect id="XMLID_89_" x="1172" y="602.5" class="st36" width="9.2" height="17.6"/>
			<rect id="XMLID_88_" x="1187.3" y="602.5" class="st36" width="9.2" height="17.6"/>
			<rect id="XMLID_87_" x="1202.6" y="602.5" class="st36" width="9.2" height="17.6"/>
		</g>
		<g id="XMLID_79_">
			<rect id="XMLID_85_" x="1125.9" y="625.4" class="st36" width="9.2" height="17.6"/>
			<rect id="XMLID_84_" x="1141.3" y="625.4" class="st36" width="9.2" height="17.6"/>
			<rect id="XMLID_83_" x="1156.6" y="625.4" class="st36" width="9.2" height="17.6"/>
			<rect id="XMLID_82_" x="1172" y="625.4" class="st36" width="9.2" height="17.6"/>
			<rect id="XMLID_81_" x="1187.3" y="625.4" class="st36" width="9.2" height="17.6"/>
			<rect id="XMLID_80_" x="1202.6" y="625.4" class="st36" width="9.2" height="17.6"/>
		</g>
	</g>
	<g>
		<g>
			<rect id="XMLID_78_" x="1230.6" y="530.6" class="st36" width="107.9" height="157.1"/>
			<g>
				<rect id="XMLID_77_" x="1236.6" y="543" class="st28" width="6.7" height="126.8"/>
				<rect id="XMLID_76_" x="1247.7" y="543" class="st28" width="6.7" height="126.8"/>
				<rect id="XMLID_75_" x="1258.7" y="543" class="st28" width="6.7" height="126.8"/>
				<rect id="XMLID_74_" x="1269.7" y="543" class="st28" width="6.7" height="126.8"/>
				<rect id="XMLID_73_" x="1280.8" y="543" class="st28" width="6.7" height="126.8"/>
				<rect id="XMLID_72_" x="1291.8" y="543" class="st28" width="6.7" height="126.8"/>
				<rect id="XMLID_71_" x="1302.8" y="543" class="st28" width="6.7" height="126.8"/>
				<rect id="XMLID_70_" x="1313.9" y="543" class="st28" width="6.7" height="126.8"/>
				<rect id="XMLID_69_" x="1324.9" y="543" class="st28" width="6.7" height="126.8"/>
			</g>
		</g>
		<g>
			<rect x="1255.5" y="518.7" class="st27" width="57.9" height="12.3"/>
			<polygon class="st15" points="1243.9,516.1 1243.9,517.7 1243.9,519.4 1325,519.4 1325,517.7 1325,516.1 			"/>
		</g>
	</g>
	<g>
		<rect x="1350.9" y="473.4" class="st34" width="86.1" height="214.3"/>
		<g>
			<rect x="1410.7" y="559.4" class="st30" width="10.7" height="17.9"/>
			<rect x="1398.6" y="559.4" class="st30" width="10.7" height="17.9"/>
		</g>
		<g>
			<rect x="1377.5" y="559.4" class="st30" width="10.7" height="17.9"/>
			<rect x="1365.4" y="559.4" class="st30" width="10.7" height="17.9"/>
		</g>
		<g>
			<rect x="1410.7" y="534.2" class="st30" width="10.7" height="17.9"/>
			<rect x="1398.6" y="534.2" class="st30" width="10.7" height="17.9"/>
		</g>
		<g>
			<rect x="1377.5" y="534.2" class="st30" width="10.7" height="17.9"/>
			<rect x="1365.4" y="534.2" class="st30" width="10.7" height="17.9"/>
		</g>
		<g>
			<rect x="1410.7" y="509.4" class="st30" width="10.7" height="17.9"/>
			<rect x="1398.6" y="509.4" class="st30" width="10.7" height="17.9"/>
		</g>
		<g>
			<rect x="1377.5" y="509.4" class="st30" width="10.7" height="17.9"/>
			<rect x="1365.4" y="509.4" class="st30" width="10.7" height="17.9"/>
		</g>
		<g>
			<rect x="1410.7" y="484.7" class="st30" width="10.7" height="17.9"/>
			<rect x="1398.6" y="484.7" class="st30" width="10.7" height="17.9"/>
		</g>
		<g>
			<rect x="1377.5" y="484.7" class="st30" width="10.7" height="17.9"/>
			<rect x="1365.4" y="484.7" class="st30" width="10.7" height="17.9"/>
		</g>
		<g>
			<rect x="1410.7" y="658.9" class="st30" width="10.7" height="17.9"/>
			<rect x="1398.6" y="658.9" class="st30" width="10.7" height="17.9"/>
		</g>
		<g>
			<rect x="1377.5" y="658.9" class="st30" width="10.7" height="17.9"/>
			<rect x="1365.4" y="658.9" class="st30" width="10.7" height="17.9"/>
		</g>
		<g>
			<rect x="1410.7" y="633.7" class="st30" width="10.7" height="17.9"/>
			<rect x="1398.6" y="633.7" class="st30" width="10.7" height="17.9"/>
		</g>
		<g>
			<rect x="1377.5" y="633.7" class="st30" width="10.7" height="17.9"/>
			<rect x="1365.4" y="633.7" class="st30" width="10.7" height="17.9"/>
		</g>
		<g>
			<rect x="1410.7" y="609" class="st30" width="10.7" height="17.9"/>
			<rect x="1398.6" y="609" class="st30" width="10.7" height="17.9"/>
		</g>
		<g>
			<rect x="1377.5" y="609" class="st30" width="10.7" height="17.9"/>
			<rect x="1365.4" y="609" class="st30" width="10.7" height="17.9"/>
		</g>
		<g>
			<rect x="1410.7" y="584.2" class="st30" width="10.7" height="17.9"/>
			<rect x="1398.6" y="584.2" class="st30" width="10.7" height="17.9"/>
		</g>
		<g>
			<rect x="1377.5" y="584.2" class="st30" width="10.7" height="17.9"/>
			<rect x="1365.4" y="584.2" class="st30" width="10.7" height="17.9"/>
		</g>
		<polygon id="XMLID_138_" class="st15" points="1349.6,458.8 1438.5,458.8 1447.2,473.7 1341,473.7 		"/>
	</g>
	<g>
		<rect x="1446" y="403.5" class="st15" width="111.1" height="284.1"/>
		<g>
			<rect x="1485.2" y="443.6" class="st27" width="32.8" height="32.1"/>
			<rect x="1485.2" y="477.4" class="st27" width="32.8" height="32"/>
			<rect x="1485.2" y="511.2" class="st27" width="32.8" height="33.3"/>
			<rect x="1451.1" y="443.6" class="st27" width="32.3" height="32.1"/>
			<polygon class="st27" points="1552,408.4 1519.8,408.4 1519.8,441.8 1551.9,441.8 1551.9,443.6 1519.8,443.6 1519.8,475.6 
				1551.9,475.6 1551.9,477.4 1519.8,477.4 1519.8,509.4 1551.9,509.4 1551.9,511.2 1519.8,511.2 1519.8,544.5 1552,544.5 			"/>
			<rect x="1485.2" y="408.4" class="st27" width="32.8" height="33.4"/>
			<rect x="1451.1" y="408.4" class="st27" width="32.3" height="33.4"/>
			<rect x="1451.1" y="477.4" class="st27" width="32.3" height="32"/>
			<rect x="1451.1" y="511.2" class="st27" width="32.3" height="33.3"/>
			<rect x="1485.3" y="581" class="st27" width="32.8" height="32.1"/>
			<rect x="1485.3" y="614.8" class="st27" width="32.8" height="32"/>
			<rect x="1451.2" y="546.7" class="st27" width="32.3" height="32.5"/>
			<rect x="1451.2" y="581" class="st27" width="32.3" height="32.1"/>
			<rect x="1451.2" y="614.8" class="st27" width="32.3" height="32"/>
			<polygon class="st27" points="1519.9,546.7 1519.9,579.2 1552,579.2 1552,581 1519.9,581 1519.9,613.1 1552,613.1 1552,614.8 
				1519.9,614.8 1519.9,646.9 1552,646.9 1552,648.6 1519.9,648.6 1519.9,682.7 1552,682.7 1552,546.7 			"/>
			<rect x="1451.2" y="648.6" class="st27" width="32.3" height="34.1"/>
			<rect x="1485.3" y="546.7" class="st27" width="32.8" height="32.5"/>
			<rect x="1485.3" y="648.6" class="st27" width="32.8" height="34.1"/>
		</g>
	</g>
	<g>
		<polygon class="st30" points="1256.2,630.9 1235.7,692.5 1256.2,692.5 1276.8,692.5 		"/>
		<rect x="1254.1" y="692.5" class="st15" width="4.2" height="11.9"/>
	</g>
	<polygon class="st35" points="1014.1,778.9 1009.3,785.9 987.5,817.9 987.1,818.5 987.1,818.6 985.5,820.9 980,829 972,840.7 
		971.6,841.3 960.5,857.5 960,858.3 959.5,857.5 948.5,841.3 948.1,840.7 940.1,829 934.6,820.9 933,818.6 932.9,818.5 932.5,817.9 
		910.7,785.9 905.9,778.9 	"/>
</g>
<g>
	<path d="M149.9,120.6c1.6-2.8,2.4-6.1,2.4-9.9c0-3.3-0.4-6.3-1.2-9.2c-0.8-2.9-2.3-5.5-4.6-7.7c-2.3-2.2-5.4-4-9.5-5.3
		c-4.1-1.3-9.4-2-16-2H84.2v14.9h6.3v49.4h-6.3v15h36.5v-15h-6.9v-17.6h8.6c4.1,0,7.9-0.5,11.5-1.4s6.7-2.3,9.5-4.2
		C146.2,125.7,148.3,123.4,149.9,120.6z M127,118.5c-2.1,1.6-4.7,2.5-8,2.5h-5.1v-19.7h5.7c3.3,0,5.9,0.8,7.8,2.6
		c1.9,1.7,2.8,4.3,2.8,7.7C130,114.5,129,116.8,127,118.5z M206.8,124.9c-1.6-3.7-3.8-6.8-6.7-9.4c-2.8-2.6-6.1-4.5-9.9-5.9
		c-3.8-1.3-8-2-12.4-2.1c-3.9,0-7.8,0.6-11.4,1.9c-3.7,1.3-7,3.2-9.9,5.7c-2.9,2.5-5.3,5.6-7,9.2c-1.8,3.7-2.7,7.9-2.7,12.6
		c-0.1,5,0.8,9.4,2.5,13.2c1.8,3.8,4.2,6.9,7.1,9.4c2.9,2.5,6.3,4.4,10.1,5.6c3.8,1.3,7.8,1.9,11.8,1.9c4.3,0,8.4-0.7,12.1-2
		c3.8-1.3,7.1-3.3,9.9-5.8c2.8-2.5,5-5.6,6.7-9.3c1.6-3.7,2.4-7.9,2.3-12.6C209.3,132.8,208.5,128.6,206.8,124.9z M185.6,143.6
		c-0.4,1.8-0.8,3.4-1.5,4.8c-0.7,1.3-1.5,2.4-2.5,3.2c-0.9,0.8-2,1.1-3.3,1.1c-2.4,0-4.4-1.4-6-4.2c-1.6-2.8-2.4-6.6-2.4-11.2
		c0-2.1,0.2-4,0.6-5.8c0.4-1.8,1-3.4,1.7-4.8c0.7-1.4,1.5-2.4,2.4-3.2c0.9-0.8,2-1.1,3.1-1.1c2.6,0.1,4.7,1.6,6.1,4.4
		c1.4,2.9,2.1,6.5,2.1,10.8C186.1,139.7,185.9,141.7,185.6,143.6z M269.4,116.9c-2.2-2.7-5-4.9-8.4-6.5s-7.2-2.4-11.6-2.4
		c-1.7,0-3.3,0.2-4.8,0.6c-1.4,0.4-2.7,0.8-3.8,1.3c-1.1,0.5-2.1,1-3,1.6c-0.8,0.6-1.6,1.1-2.1,1.4l-1.9-4h-26v15.1h4.8V174h-4.8
		v14.9h33.9V174h-6.1v-11.4c0.2,0.2,0.7,0.5,1.3,1c0.7,0.5,1.6,1,2.8,1.5c1.2,0.5,2.6,1,4.4,1.4c1.8,0.4,3.8,0.6,6.2,0.6
		c3.6,0,7-0.7,10.2-2.1c3.2-1.4,5.9-3.3,8.2-5.8c2.3-2.5,4.1-5.5,5.4-9.1c1.3-3.6,2-7.6,2-12.2c0-4-0.6-7.8-1.7-11.4
		C273.4,122.8,271.7,119.7,269.4,116.9z M249.6,148.4c-1.5,2.6-3.4,3.8-5.9,3.8c-1.1,0-2.1-0.4-3.1-1c-1-0.7-1.8-1.7-2.6-2.9
		c-0.8-1.3-1.4-2.7-1.8-4.3c-0.4-1.6-0.7-3.4-0.7-5.4c-0.1-2.3,0-4.3,0.4-6.1c0.4-1.8,1-3.3,1.7-4.6c0.8-1.3,1.7-2.2,2.7-2.9
		s2.1-1,3.2-1c1.2,0,2.3,0.4,3.3,1.3s1.9,1.9,2.6,3.2c0.7,1.3,1.3,2.8,1.7,4.5c0.4,1.7,0.6,3.4,0.6,5
		C251.8,142.3,251.1,145.8,249.6,148.4z M363.7,86.4h-33.6v15h6.1v24c0,4.9-0.3,8.8-0.8,11.7c-0.5,2.9-1.3,5.1-2.3,6.7
		s-2.2,2.6-3.6,3.1c-1.4,0.5-2.9,0.8-4.7,0.8c-1.8,0-3.4-0.3-4.8-0.9c-1.4-0.6-2.6-1.7-3.6-3.3c-1-1.6-1.7-3.9-2.2-6.7
		c-0.5-2.9-0.8-6.6-0.8-11.1v-24.5h6.1V86.4h-36.1v14.7h6.3v28c0,13,3,22.5,9,28.6c6,6.2,14.7,9.4,26.2,9.8
		c10.7,0,18.8-3.1,24.3-9.4c5.5-6.3,8.3-16.2,8.3-29.6V101h6.1L363.7,86.4L363.7,86.4z M422.8,116.9c-2.2-2.7-5-4.9-8.4-6.5
		s-7.2-2.4-11.6-2.4c-1.7,0-3.3,0.2-4.8,0.6c-1.4,0.4-2.7,0.8-3.8,1.3c-1.1,0.5-2.1,1-3,1.6c-0.8,0.6-1.6,1.1-2.1,1.4l-1.9-4h-26
		v15.1h4.8V174h-4.8v14.9h33.9V174h-6.1v-11.4c0.2,0.2,0.7,0.5,1.3,1c0.7,0.5,1.6,1,2.8,1.5s2.6,1,4.4,1.4c1.8,0.4,3.8,0.6,6.2,0.6
		c3.6,0,7.1-0.7,10.2-2.1c3.2-1.4,5.9-3.3,8.2-5.8c2.3-2.5,4.1-5.5,5.4-9.1c1.3-3.6,2-7.6,2-12.2c0-4-0.6-7.8-1.7-11.4
		C426.7,122.8,425,119.7,422.8,116.9z M402.9,148.4c-1.5,2.6-3.4,3.8-5.9,3.8c-1.1,0-2.1-0.4-3.1-1s-1.8-1.7-2.6-2.9
		c-0.8-1.3-1.3-2.7-1.8-4.3c-0.4-1.6-0.7-3.4-0.7-5.4c-0.1-2.3,0-4.3,0.4-6.1c0.4-1.8,1-3.3,1.7-4.6c0.8-1.3,1.7-2.2,2.7-2.9
		s2.1-1,3.2-1c1.2,0,2.3,0.4,3.3,1.3s1.9,1.9,2.6,3.2c0.7,1.3,1.3,2.8,1.7,4.5c0.4,1.7,0.6,3.4,0.6,5
		C405.2,142.3,404.4,145.8,402.9,148.4z"/>
</g>
<path d="M472.7,68.1h-16.2V50.8c0-3.5,3.5-6.3,7.9-6.3h0.4c4.3,0,7.9,2.9,7.9,6.3L472.7,68.1L472.7,68.1z"/>
<rect x="450.5" y="72.5" width="28.2" height="6.3"/>
<path d="M464.6,30.2c-20.9,0-37.8,16.9-37.8,37.8c0,11.4,5.1,21.7,13.1,28.6l-4.2,11L448,102c5,2.5,10.6,3.8,16.6,3.8
	c1.7,0,3.5-0.1,5.1-0.4c18.4-2.5,32.6-18.3,32.6-37.4C502.4,47.1,485.5,30.2,464.6,30.2z M484.2,81c0,1.2-1.2,2.2-2.7,2.2h-3.3v7.8
	c0,1.2-1.2,2.2-2.7,2.2c-1.5,0-2.7-1-2.7-2.2v-7.8h-16.3v4v3.8c0,1.2-1.2,2.2-2.7,2.2c-1.5,0-2.7-1-2.7-2.2v-5.4v-2.3h-3.3
	c-1.5,0-2.7-1-2.7-2.2V70.3c0-1.2,1.2-2.2,2.7-2.2h3.3V50.8c0-5.9,6-10.7,13.4-10.7h0.4c7.4,0,13.4,4.8,13.4,10.7v17.3h3.3
	c1.5,0,2.7,1,2.7,2.2L484.2,81L484.2,81z"/>
</svg>
