<?xml version="1.0" encoding="utf-8"?>
<!-- Generator: Adobe Illustrator 21.0.0, SVG Export Plug-In . SVG Version: 6.00 Build 0)  -->
<svg version="1.1" id="Layer_1" xmlns="http://www.w3.org/2000/svg" xmlns:xlink="http://www.w3.org/1999/xlink" x="0px" y="0px"
	 viewBox="0 0 377.4 442.9" style="enable-background:new 0 0 377.4 442.9;" xml:space="preserve">
<style type="text/css">
	.st0{fill:#F2F2F2;}
	.st1{fill:url(#SVGID_1_);}
	.st2{fill:url(#SVGID_2_);}
	.st3{clip-path:url(#SVGID_7_);}
	.st4{clip-path:url(#SVGID_8_);fill:url(#SVGID_9_);}
	.st5{opacity:0.8;fill:url(#SVGID_10_);enable-background:new    ;}
	.st6{clip-path:url(#SVGID_15_);}
	.st7{clip-path:url(#SVGID_16_);fill:url(#SVGID_17_);}
	.st8{opacity:0.8;fill:#F2F2F2;enable-background:new    ;}
	.st9{clip-path:url(#SVGID_22_);}
	.st10{clip-path:url(#SVGID_23_);fill:url(#XMLID_4_);}
	.st11{fill:url(#XMLID_5_);}
	.st12{clip-path:url(#SVGID_28_);}
	.st13{clip-path:url(#SVGID_29_);fill:url(#XMLID_7_);}
	.st14{opacity:0.84;fill:url(#XMLID_8_);enable-background:new    ;}
	.st15{fill:#1D3A58;}
	.st16{opacity:0.5;fill:#FFFFFF;enable-background:new    ;}
	.st17{clip-path:url(#SVGID_34_);}
	.st18{clip-path:url(#SVGID_35_);fill:url(#SVGID_36_);}
	.st19{fill:url(#SVGID_37_);}
	.st20{clip-path:url(#SVGID_42_);}
	.st21{clip-path:url(#SVGID_43_);fill:url(#SVGID_44_);}
	.st22{fill:url(#SVGID_45_);}
	.st23{clip-path:url(#SVGID_50_);}
	.st24{clip-path:url(#SVGID_51_);fill:url(#SVGID_52_);}
	.st25{fill:url(#SVGID_53_);}
	.st26{fill:#FE9CA9;}
	.st27{fill:#85D6E2;}
	.st28{fill:#FFFFFF;}
	.st29{fill:#EBFBFF;}
	.st30{fill:#0B9DB8;}
	.st31{fill:#30B085;}
	.st32{fill:#E2C7D6;}
	.st33{fill:#BDBDBD;}
	.st34{fill:#E7DAE1;}
	.st35{fill:#AFAAAD;}
	.st36{fill:#CCF3FA;}
</style>
<rect y="411.7" class="st0" width="377.4" height="31.1"/>
<g id="Layer_2">
</g>
<polygon class="st0" points="210,412.1 201.4,424.8 200.9,425.4 200.8,425.7 200.8,425.7 200.1,426.7 197.7,430.2 194.3,435.2 
	194.1,435.5 189.3,442.4 189.1,442.8 188.9,442.4 184.2,435.5 184,435.2 180.6,430.2 178.2,426.7 177.5,425.7 177.5,425.7 
	177.3,425.4 168.2,412.1 "/>
<g id="Layer_1_1_">
	
		<linearGradient id="SVGID_1_" gradientUnits="userSpaceOnUse" x1="133.3271" y1="-290.4159" x2="133.3271" y2="-304.7627" gradientTransform="matrix(1 0 0 1 0 702.09)">
		<stop  offset="0" style="stop-color:#85D6E2"/>
		<stop  offset="1" style="stop-color:#E7DAE1"/>
	</linearGradient>
	<polygon class="st1" points="123.1,411.7 112.5,397.3 154.2,397.3 143.6,411.7 	"/>
	
		<linearGradient id="SVGID_2_" gradientUnits="userSpaceOnUse" x1="189.5376" y1="-271.9025" x2="189.5376" y2="-702.3498" gradientTransform="matrix(1 0 0 1 0 702.09)">
		<stop  offset="0" style="stop-color:#85D6E2"/>
		<stop  offset="1" style="stop-color:#E7DAE1"/>
	</linearGradient>
	<path class="st2" d="M-222.4-0.3v411.9H168l9.4,13.7h11.5l9.4-13.7h403.3V-0.3L-222.4-0.3L-222.4-0.3z M178.2,426.7l2.4,3.5h5
		l2.4-3.5l0.7-1h-11.1L178.2,426.7z"/>
	<g>
		<g>
			<g>
				<g>
					<defs>
						<polygon id="SVGID_3_" points="-222.8,74.5 -222.4,74.5 -222.8,75 						"/>
					</defs>
					<clipPath id="SVGID_4_">
						<use xlink:href="#SVGID_3_"  style="overflow:visible;"/>
					</clipPath>
				</g>
				<g>
					<defs>
						<polygon id="SVGID_5_" points="-222.8,74.5 -222.4,74.5 -222.8,75 						"/>
					</defs>
					<defs>
						<polygon id="SVGID_6_" points="-223.7,73.7 -224.1,73.7 -223.7,73.2 						"/>
					</defs>
					<clipPath id="SVGID_7_">
						<use xlink:href="#SVGID_5_"  style="overflow:visible;"/>
					</clipPath>
					<clipPath id="SVGID_8_" class="st3">
						<use xlink:href="#SVGID_6_"  style="overflow:visible;"/>
					</clipPath>
					
						<linearGradient id="SVGID_9_" gradientUnits="userSpaceOnUse" x1="5485.9824" y1="93.9561" x2="5702.3555" y2="468.7253" gradientTransform="matrix(-1 0 0 -1 5598.9136 627.11)">
						<stop  offset="0" style="stop-color:#1A1A1A"/>
						<stop  offset="1" style="stop-color:#B3B3B3"/>
					</linearGradient>
					<path class="st4" d="M-30.2,277.7c-8.8-4-23.1-5.8-29.7-0.5c-8.5-2.8-19.5,0.1-17.8,6.7c-1.9-5.1-10.6-5.5-16.5-3.8
						c3.1-3.1,2.7-8.8,0.4-12c-2.2-3.1-7.3-6.5-11.6-8c-8.6-3.1-15.8-4-25.1-2.7c-5.5,0.8-8.6,2.1-11.4,6.2
						c-4.1-4.1-14.2-5.1-20.9-2.8c2-18.4-17.5-24.6-38.1-21.1c0.3-0.6,0.5-1.3,0.5-2c0.2-6.5-9.7-11.3-21.6-10.7l-1.1,167.1v32.7
						h520.6v-44.9c0.2-7.9-4.4-18.9-30.7-18.9c-2.1-3.7-5.9-6.7-13.1-7c2.6-9-3.2-14.3-13.7-18.3c-5.7-2.1-9.4-3.3-16.2-3
						c-4.7,0.2-12.9,1.2-15.9,3.5c0-4.9-9.1-9-13.7-9c-5.2,0-11,0.2-15.3,2c-2.3,1-6.8,3.4-6.6,5.2c-1.9-1.7-9.5-3.8-15.7-0.4
						c0-1.5-1.2-3-4-4.2c-1.7-0.7-6.2-1.2-7.9-0.7c1.5-2.5,0.6-5.7-1.3-7.8c-3.2-3.4-6.7-4.7-11.3-5.1c-14.5-1.4-27.8,1.2-28.9,9.3
						c-3.6-2.4-6.9-3.4-12.4-3.4c-4.4,0-12.7,0.5-12.7,3.4c1.4-3.9-2.7-8.8-8.2-11.3c-3.3-1.5-5.8-2.6-9.7-3.6
						c-8.7-2.2-21.1-1.8-29.3,1.3c-1.6,0.6-8.1,4.5-8.1,8.4c-3.4-3.8-21.7-6.5-26.2,0.1c0-4.9-6.6-7.8-13.8-9.1
						c9.1-4.1,6.1-17.6-7.3-17.7c4.7-1.3,6.1-6.1,3-10.8C-21.5,284.9-25.8,279.8-30.2,277.7z"/>
				</g>
			</g>
		</g>
	</g>
	
		<linearGradient id="SVGID_10_" gradientUnits="userSpaceOnUse" x1="-39.0909" y1="-543.6084" x2="154.6607" y2="-208.021" gradientTransform="matrix(1 0 0 1 0 702.09)">
		<stop  offset="0" style="stop-color:#FFFFFF"/>
		<stop  offset="1" style="stop-color:#FFFFFF"/>
	</linearGradient>
	<path class="st5" d="M296.1,350.3c-0.5-1.2-1.1-2.3-1.9-3.4c-0.2-0.3-0.5-0.7-0.8-1c-0.4-0.4-0.8-0.9-1.3-1.3
		c-0.4-0.4-0.9-0.7-1.3-1.1c-0.4-0.3-0.8-0.6-1.3-0.8c-1.5-0.9-3.3-1.7-5.4-2.3c-0.1,0-0.2,0-0.3-0.1c-0.7-0.2-1.4-0.3-2.1-0.5
		c-0.4-0.1-0.9-0.2-1.4-0.2c-0.6-0.1-1.2-0.2-1.8-0.2c-0.3,0-0.6-0.1-0.9-0.1c-0.4,0-0.8,0-1.2-0.1c-0.9,0-1.8-0.1-2.7-0.1h-0.6
		c-0.5-1.1-1.1-2.1-1.9-3c0,0-0.1-0.1-0.1-0.1c-0.8-1-1.8-1.8-3.1-2.5c-0.3-0.1-0.6-0.3-0.9-0.4c-0.6-0.2-1.2-0.4-1.8-0.6
		c-0.8-0.2-1.7-0.3-2.6-0.4h-0.1c0-0.2,0.1-0.3,0.1-0.5c0.1-0.4,0.1-0.7,0.2-1.1c0.3-2.1,0.2-4.1-0.2-5.8c-0.2-0.6-0.4-1.2-0.6-1.8
		c-0.2-0.5-0.5-1.1-0.8-1.6c-0.1-0.2-0.3-0.5-0.4-0.7c-0.1-0.2-0.2-0.3-0.3-0.4c-0.2-0.3-0.4-0.5-0.6-0.8c-0.4-0.5-0.9-0.9-1.4-1.4
		c-0.4-0.4-0.9-0.8-1.4-1.1c-0.3-0.2-0.6-0.4-0.8-0.6c-0.8-0.5-1.6-1-2.4-1.5c-0.7-0.4-1.4-0.8-2.2-1.1c-0.9-0.4-1.8-0.8-2.6-1.2
		c-0.9-0.4-1.7-0.7-2.6-1c-0.1,0-0.1,0-0.2,0c-2.2-0.7-4.5-1-7.5-0.8c-1.7,0.1-3.9,0.4-6.1,0.8c-0.1,0-0.2,0-0.2,0
		c-2.6,0.5-5.1,1.4-6.4,2.7c0-0.9-0.3-1.8-0.7-2.7c0,0,0,0,0,0c-0.7-1.3-1.9-2.5-3.2-3.5c-0.2-0.1-0.3-0.2-0.5-0.4c0,0,0,0-0.1,0
		c-2.2-1.5-4.7-2.4-6.3-2.4c-2.2,0-4.5,0-6.8,0.4c-1.3,0.2-2.6,0.5-3.8,0.9c-0.5,0.2-1,0.4-1.4,0.6c-0.1,0-0.2,0.1-0.2,0.1
		c-0.2,0.1-0.4,0.2-0.6,0.3c-0.2,0.1-0.3,0.2-0.5,0.3c-1.4,0.9-3,2.1-3.7,3.3c-0.1,0.1-0.1,0.2-0.2,0.3c-0.2,0.3-0.3,0.7-0.2,1
		c-0.3-0.3-0.8-0.7-1.4-1c-0.2-0.1-0.4-0.2-0.6-0.3c-2.2-1-5.8-1.5-9,0c-0.2,0.1-0.4,0.2-0.6,0.3c-0.2,0.1-0.3,0.2-0.5,0.3
		c-0.1,0.1-0.3,0.2-0.4,0.3c0-0.3,0-0.6-0.1-0.9c-0.3-1.2-1.3-2.3-3.1-3.3c-0.3-0.1-0.7-0.3-1.1-0.4c-1-0.3-2.4-0.5-3.5-0.5
		c-0.7,0-1.3,0-1.7,0.2c0.1-0.1,0.1-0.3,0.2-0.4c0,0,0,0,0,0c0.4-0.9,0.5-2,0.4-3v0c-0.1-1.6-0.8-3.1-1.6-4.3c0,0-0.1-0.1-0.1-0.1
		c0,0,0,0,0,0c-1-1.3-2-2.3-3.2-3c0,0,0,0-0.1,0c-1.6-1.1-3.5-1.6-5.6-1.9c-1.3-0.2-2.7-0.3-4-0.3c-5.2-0.2-10,0.5-13.5,2.2
		c-1.6,0.8-2.9,1.8-3.8,3c-0.9,1.2-1.5,2.7-1.7,4.4c-2.9-2.4-5.5-3.4-9.9-3.4c-1.6,0-3.8,0.1-5.8,0.5c-2,0.4-3.7,1.1-4.2,2.2
		c0.5-3.7-2.5-8.2-6.6-10.7c-2.6-1.5-4.7-2.6-7.7-3.6c-6.9-2.2-16.8-1.8-23.3,1.3c-1.3,0.6-6.4,4.5-6.4,8.4
		c-2.7-3.8-17.3-6.5-20.9,0.1c0-4.8-5.3-7.8-11-9.1c7.2-4.1,4.9-17.6-5.9-17.7c3.8-1.3,4.9-6.1,2.4-10.8c0-0.2-3.3-5.1-6.9-7.1
		c-7-4-18.4-5.8-23.6-0.5c-6.7-2.8-15.6,0.1-14.2,6.7c-1.5-5.1-8.4-5.5-13.2-3.8c2.5-3.1,2.2-8.8,0.3-12c-1.8-3.1-5.8-6.5-9.3-8
		c-6.8-3.1-12.6-4-20-2.7c-4.4,0.8-6.8,2.1-9.1,6.2c-3.2-4.1-11.3-5.1-16.6-2.8c1.6-18.4-14-24.6-30.4-21.1c0.2-0.6,0.4-1.3,0.4-2
		c0.1-6.5-7.7-11.2-17.2-10.7l-0.2,40.1l-0.7,125.9v42.5h311.8l0.2,0.4l1.5,2.8l5.4,9.9l8.7-12.7h8.1l0.2-0.4h79V358
		C297.5,355.6,297.1,352.9,296.1,350.3z"/>
	<g>
		<g>
			<g>
				<g>
					<defs>
						<polygon id="SVGID_11_" points="-222.8,74.5 -222.4,74.5 -222.8,75 						"/>
					</defs>
					<clipPath id="SVGID_12_">
						<use xlink:href="#SVGID_11_"  style="overflow:visible;"/>
					</clipPath>
				</g>
				<g>
					<defs>
						<polygon id="SVGID_13_" points="-222.8,74.5 -222.4,74.5 -222.8,75 						"/>
					</defs>
					<defs>
						<polygon id="SVGID_14_" points="-223.7,73.7 -224.1,73.7 -223.7,73.2 						"/>
					</defs>
					<clipPath id="SVGID_15_">
						<use xlink:href="#SVGID_13_"  style="overflow:visible;"/>
					</clipPath>
					<clipPath id="SVGID_16_" class="st6">
						<use xlink:href="#SVGID_14_"  style="overflow:visible;"/>
					</clipPath>
					
						<linearGradient id="SVGID_17_" gradientUnits="userSpaceOnUse" x1="-9.569" y1="106.9453" x2="177.3543" y2="430.7061" gradientTransform="matrix(1 0 0 -1 314.4727 627.11)">
						<stop  offset="0" style="stop-color:#1A1A1A"/>
						<stop  offset="1" style="stop-color:#B3B3B3"/>
					</linearGradient>
					<path class="st7" d="M430.9,301.5c7.8-3.4,20.4-4.9,26.2-0.4c7.5-2.3,17.3,0.1,15.7,5.5c1.7-4.3,9.4-4.6,14.6-3.1
						c-2.7-2.6-2.4-7.3-0.4-10c2-2.6,6.5-5.4,10.3-6.7c7.6-2.6,13.9-3.3,22.2-2.2c4.9,0.6,7.6,1.8,10.1,5.2
						c3.6-3.4,12.5-4.3,18.5-2.3c-1.8-15.3,15.5-20.5,33.7-17.7c-0.3-0.5-0.4-1.1-0.4-1.7c-0.2-5.5,8.6-9.4,19.1-8.9l1,139.3v27.3
						H141.3v-37.5c-0.2-6.6,3.9-15.8,27.1-15.8c1.9-3,5.2-5.6,11.6-5.9c-2.3-7.5,2.8-11.9,12.1-15.2c5.1-1.8,8.3-2.8,14.3-2.5
						c4.1,0.2,11.4,1,14.1,2.9c0-4,8.1-7.5,12.1-7.5c4.6,0,9.8,0.2,13.5,1.7c2.1,0.8,6,2.9,5.8,4.4c1.7-1.4,8.4-3.2,13.9-0.3
						c0-1.3,1-2.5,3.6-3.4c1.5-0.6,5.5-1,7-0.6c-1.4-2.1-0.6-4.8,1.2-6.5c2.8-2.8,5.9-3.9,9.9-4.3c12.8-1.2,24.6,1,25.5,7.8
						c3.2-2,6.1-2.8,11-2.8c3.9,0,11.3,0.4,11.3,2.8c-1.2-3.2,2.4-7.3,7.2-9.4c2.9-1.3,5.2-2.2,8.5-3c7.7-1.8,18.6-1.5,25.9,1.1
						c1.4,0.5,7.1,3.7,7.1,7c3-3.1,19.2-5.5,23.2,0.1c0-4,5.8-6.5,12.2-7.6c-8-3.4-5.5-14.7,6.5-14.7c-4.2-1.1-5.4-5.1-2.7-9
						C423.2,307.4,427,303.2,430.9,301.5z"/>
				</g>
			</g>
		</g>
	</g>
	<path class="st8" d="M601.5,369.5v42.2H198.2l-0.3,0.4l-1.9,2.8l-7.2,10.5h-11.5l-9.1-13.4l-0.3-0.4h-26.6v-52.5c0-1,0-2,0.3-3
		c0.3-1.5,0.9-3,1.9-4.4c0.7-1.1,1.7-2.1,3-3c2.6-2,6.5-3.6,12-4.4c2.8-0.4,6.1-0.7,9.9-0.7c0.5-0.9,1.2-1.6,1.9-2.4
		c1.6-1.5,3.9-2.7,7-3.2c0,0,0,0,0,0c0.8-0.1,1.7-0.2,2.6-0.3c-1-3.2-0.6-5.8,0.8-8c0,0,0,0,0-0.1c1.2-1.7,3-3.2,5.3-4.5
		c1.7-0.9,3.7-1.8,5.9-2.6c2.3-0.8,4.2-1.5,6.1-1.9c0,0,0,0,0.1,0c0.3-0.1,0.6-0.1,1-0.2c2.1-0.4,4.3-0.5,7.1-0.4
		c1.3,0.1,2.9,0.2,4.6,0.4c3.7,0.4,7.7,1.2,9.5,2.5c0-0.9,0.4-1.7,1-2.5c1.3-1.6,3.8-3,6.2-3.9c1.8-0.7,3.5-1,4.9-1
		c3.8,0,8,0.1,11.5,1c0.7,0.2,1.4,0.4,2,0.6c0.6,0.3,1.5,0.6,2.4,1.1c1.8,0.9,3.6,2.2,3.5,3.3c0.4-0.3,1-0.6,1.8-0.9c0,0,0,0,0,0
		c0.9-0.3,2-0.6,3.2-0.8c0,0,0,0,0.1,0c0.9-0.1,1.8-0.2,2.8-0.1c0.2,0,0.4,0,0.6,0h0c1.3,0.1,2.6,0.4,3.9,0.9c0,0,0,0,0,0
		c0.5,0.2,1,0.4,1.4,0.6c0-0.8,0.3-1.5,1.2-2.2c0,0,0,0,0.1,0c0.5-0.5,1.3-0.8,2.3-1.2c0.4-0.2,0.9-0.3,1.6-0.4c0,0,0,0,0.1,0
		c0.8-0.1,1.7-0.2,2.6-0.3h0c1.1,0,2.1,0,2.7,0.2c-0.8-1.2-0.9-2.6-0.4-3.9c0,0,0,0,0,0c0.3-0.8,0.7-1.6,1.4-2.3c0,0,0,0,0,0
		c0.1-0.1,0.2-0.2,0.3-0.3c0.9-0.9,1.7-1.5,2.7-2.1c1.2-0.8,2.5-1.3,3.9-1.6c0.8-0.2,1.7-0.4,2.6-0.4c0.2-0.1,0.5-0.1,0.7-0.1
		c1.1-0.1,2.2-0.2,3.3-0.2c0.9,0,1.8-0.1,2.6-0.1c1.4,0,2.7,0,4,0.1c1.2,0.1,2.3,0.2,3.4,0.3c1.7,0.2,3.3,0.6,4.7,1
		c1,0.2,1.8,0.6,2.6,0.9c1.1,0.5,2.1,1.1,2.9,1.8c0.9,0.8,1.5,1.7,1.9,2.8c0.1,0.3,0.2,0.7,0.3,1.1c0.9-0.6,1.7-1,2.6-1.4
		c0.6-0.3,1.2-0.5,1.8-0.6c0.9-0.3,1.9-0.5,2.9-0.6c0.6-0.1,1.2-0.1,1.8-0.2c0.6,0,1.2,0,1.8,0h1.1c0.6,0,1.2,0,1.9,0.1
		c0.9,0,1.9,0.1,2.9,0.2c0.6,0.1,1.2,0.2,1.8,0.3c1.2,0.3,2.2,0.6,2.9,1.1c0.2,0.1,0.3,0.3,0.5,0.5c-0.3-1.4,0.3-2.9,1.4-4.4
		c0.5-0.6,1-1.2,1.6-1.7c0,0,0.1,0,0.1-0.1c1.2-1,2.7-2,4.3-2.7c2.4-1.1,4.3-1.8,6.9-2.6c0.1,0,0.2-0.1,0.3-0.1
		c0.4-0.1,0.9-0.2,1.3-0.3c1.9-0.4,3.9-0.8,6.1-1c2-0.2,4.1-0.3,6.2-0.2c0.6,0,1.3,0,1.9,0.1c0.4,0,0.8,0.1,1.1,0.1
		c3.8,0.3,7.5,1,10.5,2.1c0.3,0.1,0.9,0.4,1.6,0.8c0,0,0.1,0,0.1,0.1c1.1,0.7,2.5,1.6,3.6,2.7c0.2,0.2,0.4,0.4,0.6,0.7
		c0.7,0.9,1.2,1.8,1.2,2.8c0.6-0.7,1.8-1.3,3.3-1.8c1.8-0.6,4.2-1.1,6.7-1.3c1.3-0.1,2.6-0.2,3.9-0.1c0.7,0,1.5,0.1,2.2,0.2
		c1.8,0.2,3.4,0.6,4.7,1.3c0.1,0,0.1,0.1,0.2,0.1c0.5,0.2,0.9,0.6,1.3,0.9c0,0,0.1,0,0.1,0.1c0.3,0.3,0.6,0.6,0.8,0.9
		c0-0.3,0.1-0.6,0.1-0.9c0,0,0,0,0-0.1c0.1-0.3,0.2-0.6,0.3-0.9c0,0,0-0.1,0.1-0.1c1-1.9,3.3-3.3,6.3-4.3c0,0,0,0,0,0
		c0.2-0.1,0.5-0.2,0.7-0.2c0,0,0,0,0.1,0c1.4-0.4,3-0.8,4.6-1.1c-2.8-1.2-4.3-3.4-4.6-5.7c-0.1-0.5-0.1-0.9,0-1.4
		c0.1-0.5,0.2-1,0.3-1.5c0,0,0,0,0-0.1c0.1-0.2,0.2-0.5,0.3-0.7c0,0,0-0.1,0.1-0.1c0.8-1.7,2.4-3.2,4.6-4.2c0,0,0,0,0.1,0
		c1.6-0.7,3.5-1.1,5.7-1.1c-3.9-1-5.2-4.6-3.1-8.3c0,0,0-0.1,0.1-0.1c0.1-0.2,0.2-0.4,0.4-0.6c0,0,0,0,0,0c0,0,0.1,0,0.1-0.1
		c0.5-0.6,2.8-3,5.5-4.7c0,0,0,0,0,0c0.2-0.2,0.5-0.3,0.7-0.4c0,0,0,0,0,0c0.4-0.2,0.8-0.5,1.2-0.6c3.6-1.5,8.1-2.7,12.5-3.1h0
		c0.7-0.1,1.4-0.1,2.2-0.1h0c4.5-0.1,8.7,0.6,11.4,2.7c7.5-2.3,17.3,0.1,15.7,5.5c1.7-4.3,9.4-4.6,14.6-3.1c-2.8-2.6-2.4-7.3-0.4-10
		c2-2.6,6.5-5.4,10.3-6.7c7.6-2.6,13.9-3.3,22.2-2.2c4.9,0.6,7.6,1.8,10.1,5.2c3.6-3.4,12.5-4.3,18.5-2.3
		c-1.8-15.3,15.5-20.5,33.7-17.7c-0.3-0.5-0.4-1.1-0.4-1.7c-0.2-5.5,8.6-9.4,19.1-8.9l1,139v0L601.5,369.5z"/>
	<g>
		<g>
			<g>
				<g>
					<defs>
						<polygon id="SVGID_18_" points="-222.8,74.5 -222.4,74.5 -222.8,75 						"/>
					</defs>
					<clipPath id="SVGID_19_">
						<use xlink:href="#SVGID_18_"  style="overflow:visible;"/>
					</clipPath>
				</g>
				<g>
					<defs>
						<polygon id="SVGID_20_" points="-222.8,74.5 -222.4,74.5 -222.8,75 						"/>
					</defs>
					<defs>
						<polygon id="SVGID_21_" points="-223.7,73.7 -224.1,73.7 -223.7,73.2 						"/>
					</defs>
					<clipPath id="SVGID_22_">
						<use xlink:href="#SVGID_20_"  style="overflow:visible;"/>
					</clipPath>
					<clipPath id="SVGID_23_" class="st9">
						<use xlink:href="#SVGID_21_"  style="overflow:visible;"/>
					</clipPath>
					
						<linearGradient id="XMLID_4_" gradientUnits="userSpaceOnUse" x1="175.3411" y1="477.1578" x2="353.6883" y2="477.1578" gradientTransform="matrix(1 0 0 -1 0 627.11)">
						<stop  offset="0" style="stop-color:#4D4D4D"/>
						<stop  offset="0.974" style="stop-color:#FAFAFA"/>
						<stop  offset="1" style="stop-color:#FFFFFF"/>
					</linearGradient>
					<path id="XMLID_3_" class="st10" d="M340.7,149.4c-2.3,0-4.5,0.6-6.4,1.4c-1.7-7.6-10-13.3-19.9-13.3c-3.4,0-6.6,0.7-9.4,2
						c-4.4-5.8-12.3-9.8-21.4-9.8c-13.9,0-25.1,9-25.1,20.1c0,0.3,0.1,0.5,0.1,0.7c0,0,0,0-0.1,0c-0.3,0-0.4,0.1-0.7,0.1
						c-2.8-3.7-7.8-6.1-13.5-6.1c-6.7,0-12.3,3.3-14.7,7.9c-1.5-0.6-3.3-1-5.1-1c-0.8,0-1.5,0.3-2.3,0.4
						c-2.1-5.9-8.9-10.2-16.9-10.2c-9.1,0-16.4,5.5-17.5,12.5c-0.7-0.1-1.4-0.3-2.2-0.3c-5.6,0-10.1,3.7-10.1,8.2s4.6,8.2,10.1,8.2
						h73.8h18.3h65.4v-0.3c6.1-0.8,10.8-5,10.8-10.1C353.6,154.1,347.8,149.4,340.7,149.4z"/>
				</g>
			</g>
		</g>
	</g>
	
		<linearGradient id="XMLID_5_" gradientUnits="userSpaceOnUse" x1="175.3411" y1="477.1578" x2="353.6883" y2="477.1578" gradientTransform="matrix(1 0 0 -1 0 627.11)">
		<stop  offset="0" style="stop-color:#FFFFFF"/>
		<stop  offset="0.974" style="stop-color:#FFFFFF"/>
		<stop  offset="1" style="stop-color:#FFFFFF"/>
	</linearGradient>
	<path id="XMLID_2172_" class="st11" d="M340.7,149.4c-2.3,0-4.5,0.6-6.4,1.4c-1.7-7.6-10-13.3-19.9-13.3c-3.4,0-6.6,0.7-9.4,2
		c-4.4-5.8-12.3-9.8-21.4-9.8c-13.9,0-25.1,9-25.1,20.1c0,0.3,0.1,0.5,0.1,0.7c0,0,0,0-0.1,0c-0.3,0-0.4,0.1-0.7,0.1
		c-2.8-3.7-7.8-6.1-13.5-6.1c-6.7,0-12.3,3.3-14.7,7.9c-1.5-0.6-3.3-1-5.1-1c-0.8,0-1.5,0.3-2.3,0.4c-2.1-5.9-8.9-10.2-16.9-10.2
		c-9.1,0-16.4,5.5-17.5,12.5c-0.7-0.1-1.4-0.3-2.2-0.3c-5.6,0-10.1,3.7-10.1,8.2s4.6,8.2,10.1,8.2h73.8h18.3h65.4v-0.3
		c6.1-0.8,10.8-5,10.8-10.1C353.6,154.1,347.8,149.4,340.7,149.4z"/>
	<g>
		<g>
			<g>
				<g>
					<defs>
						<polygon id="SVGID_24_" points="-222.8,74.5 -222.4,74.5 -222.8,75 						"/>
					</defs>
					<clipPath id="SVGID_25_">
						<use xlink:href="#SVGID_24_"  style="overflow:visible;"/>
					</clipPath>
				</g>
				<g>
					<defs>
						<polygon id="SVGID_26_" points="-222.8,74.5 -222.4,74.5 -222.8,75 						"/>
					</defs>
					<defs>
						<polygon id="SVGID_27_" points="-223.7,73.7 -224.1,73.7 -223.7,73.2 						"/>
					</defs>
					<clipPath id="SVGID_28_">
						<use xlink:href="#SVGID_26_"  style="overflow:visible;"/>
					</clipPath>
					<clipPath id="SVGID_29_" class="st12">
						<use xlink:href="#SVGID_27_"  style="overflow:visible;"/>
					</clipPath>
					
						<linearGradient id="XMLID_7_" gradientUnits="userSpaceOnUse" x1="-104.121" y1="449.4092" x2="25.6017" y2="449.4092" gradientTransform="matrix(1 0 0 -1 0 627.11)">
						<stop  offset="0" style="stop-color:#4D4D4D"/>
						<stop  offset="0.974" style="stop-color:#FAFAFA"/>
						<stop  offset="1" style="stop-color:#FFFFFF"/>
					</linearGradient>
					<path id="XMLID_2_" class="st13" d="M16.2,177.2c-1.7,0-3.3,0.6-4.6,1.4c-1.2-7.6-7.3-13.3-14.5-13.3c-2.5,0-4.8,0.7-6.9,2
						c-3.2-5.8-8.9-9.8-15.6-9.8c-10.1,0-18.3,9-18.3,20.1c0,0.3,0,0.5,0,0.7c0,0,0,0,0,0c-0.2,0-0.3,0.1-0.5,0.1
						c-2-3.7-5.7-6.1-9.8-6.1c-4.9,0-9,3.3-10.7,7.9c-1.1-0.6-2.4-1-3.7-1c-0.6,0-1.1,0.3-1.7,0.4c-1.6-5.9-6.4-10.2-12.3-10.2
						c-6.6,0-11.9,5.5-12.7,12.5c-0.5-0.1-1-0.3-1.6-0.3c-4.1,0-7.4,3.7-7.4,8.2c0,4.5,3.3,8.2,7.4,8.2h53.7h13.3h47.6v-0.2
						c4.5-0.8,7.9-5,7.9-10.1C25.6,181.8,21.4,177.2,16.2,177.2z"/>
				</g>
			</g>
		</g>
	</g>
	
		<linearGradient id="XMLID_8_" gradientUnits="userSpaceOnUse" x1="-82.9874" y1="444.1043" x2="23.4973" y2="444.1043" gradientTransform="matrix(1 0 0 -1 0 627.11)">
		<stop  offset="0" style="stop-color:#FFFFFF"/>
		<stop  offset="0.974" style="stop-color:#FFFFFF"/>
		<stop  offset="1" style="stop-color:#FFFFFF"/>
	</linearGradient>
	<path id="XMLID_6_" class="st14" d="M15.9,182.6c-1.4,0-2.7,0.5-3.8,1.2c-1-6.2-6-10.9-11.9-10.9c-2.1,0-4,0.6-5.6,1.6
		c-2.7-4.8-7.3-8-12.8-8c-8.3,0-15,7.4-15,16.5c0,0.2,0,0.4,0,0.6c0,0,0,0,0,0c-0.1,0-0.3,0.1-0.4,0.1c-1.7-3-4.6-5-8.1-5
		c-4,0-7.4,2.7-8.8,6.5c-0.9-0.5-1.9-0.9-3-0.9c-0.5,0-0.9,0.2-1.4,0.3c-1.3-4.8-5.3-8.4-10.1-8.4c-5.4,0-9.8,4.5-10.4,10.3
		c-0.4-0.1-0.9-0.3-1.3-0.3c-3.4,0-6.1,3-6.1,6.7s2.7,6.7,6.1,6.7h44H-22h39v-0.1c3.7-0.6,6.4-4.1,6.4-8.3
		C23.5,186.3,20.1,182.6,15.9,182.6z"/>
	<g>
		<g>
			<path class="st15" d="M130.8,221.1h-1c0-2.8-4.4-5-9.7-5c-0.3,0-0.5-0.2-0.5-0.4c0-0.2,0.2-0.4,0.5-0.4c4.8,0,8.8,1.7,10.2,4.1
				c1.4-2.4,5.5-4.1,10.2-4.1c0.3,0,0.5,0.2,0.5,0.4c0,0.2-0.2,0.4-0.5,0.4C135.2,216,130.8,218.3,130.8,221.1z"/>
		</g>
		<g>
			<path class="st15" d="M156.1,228.7h-1.1c0-1.6-2.5-2.8-5.6-2.8c-0.3,0-0.6-0.2-0.6-0.4c0-0.3,0.3-0.4,0.6-0.4
				c2.8,0,5.2,0.9,6.2,2.2c1-1.3,3.4-2.2,6.2-2.2c0.3,0,0.6,0.2,0.6,0.4c0,0.3-0.3,0.4-0.6,0.4C158.5,225.9,156.1,227.2,156.1,228.7
				z"/>
		</g>
		<g>
			<path class="st15" d="M271.2,199.6h-1.1c0-1.6-2.5-2.8-5.6-2.8c-0.3,0-0.6-0.2-0.6-0.4c0-0.3,0.3-0.4,0.6-0.4
				c2.8,0,5.2,0.9,6.2,2.2c1-1.3,3.4-2.2,6.2-2.2c0.3,0,0.6,0.2,0.6,0.4c0,0.3-0.3,0.4-0.6,0.4C273.7,196.7,271.2,198,271.2,199.6z"
				/>
		</g>
		<g>
			<path class="st15" d="M354.2,171.4h-1.1c0-1.6-2.5-2.8-5.6-2.8c-0.3,0-0.6-0.2-0.6-0.4c0-0.3,0.3-0.4,0.6-0.4
				c2.8,0,5.2,0.9,6.2,2.2c1-1.3,3.4-2.2,6.2-2.2c0.3,0,0.6,0.2,0.6,0.4c0,0.3-0.3,0.4-0.6,0.4C356.7,168.6,354.2,169.9,354.2,171.4
				z"/>
		</g>
	</g>
	<path class="st16" d="M341.3,193.3c3.5,2.8,3.5,7.3,0,10.1c3.5-2.8,9-2.8,12.5,0c-3.5-2.8-3.4-7.3,0-10.1
		C350.4,196,344.8,196,341.3,193.3z"/>
	<path class="st16" d="M88.6,198.1c3.5,2.8,3.5,7.3,0,10.1c3.5-2.8,9-2.8,12.5,0c-3.5-2.8-3.4-7.3,0-10.1
		C97.6,200.9,92.1,200.9,88.6,198.1z"/>
	<path class="st16" d="M345.4,131.5c3.5,2.8,3.5,7.3,0,10.1c3.5-2.8,9-2.8,12.5,0c-3.5-2.8-3.4-7.3,0-10.1
		C354.5,134.3,348.9,134.3,345.4,131.5z"/>
	<path class="st16" d="M13,136.6c3.5,2.8,3.5,7.3,0,10.1c3.5-2.8,9-2.8,12.5,0c-3.5-2.8-3.4-7.3,0-10.1
		C22,139.5,16.5,139.5,13,136.6z"/>
	<path class="st16" d="M133.2,171.5c1.4,1.1,1.4,2.9,0,4c1.4-1.1,3.6-1.1,4.9,0c-1.4-1.1-1.4-2.9,0-4
		C136.8,172.6,134.6,172.6,133.2,171.5z"/>
	<path class="st16" d="M420.1,191.3c1.4,1.1,1.4,2.9,0,4c1.4-1.1,3.6-1.1,4.9,0c-1.4-1.1-1.4-2.9,0-4
		C423.7,192.4,421.5,192.4,420.1,191.3z"/>
	<path class="st16" d="M469,162.4c1.4,1.1,1.4,2.9,0,4c1.4-1.1,3.6-1.1,4.9,0c-1.4-1.1-1.4-2.9,0-4
		C472.6,163.5,470.4,163.5,469,162.4z"/>
	<g>
		<g>
			<g>
				<g>
					<defs>
						<polygon id="SVGID_30_" points="-222.8,74.5 -222.4,74.5 -222.8,75 						"/>
					</defs>
					<clipPath id="SVGID_31_">
						<use xlink:href="#SVGID_30_"  style="overflow:visible;"/>
					</clipPath>
				</g>
				<g>
					<defs>
						<polygon id="SVGID_32_" points="-222.8,74.5 -222.4,74.5 -222.8,75 						"/>
					</defs>
					<defs>
						<polygon id="SVGID_33_" points="-223.7,73.7 -224.1,73.7 -223.7,73.2 						"/>
					</defs>
					<clipPath id="SVGID_34_">
						<use xlink:href="#SVGID_32_"  style="overflow:visible;"/>
					</clipPath>
					<clipPath id="SVGID_35_" class="st17">
						<use xlink:href="#SVGID_33_"  style="overflow:visible;"/>
					</clipPath>
					
						<linearGradient id="SVGID_36_" gradientUnits="userSpaceOnUse" x1="378.8475" y1="475.8262" x2="440.2727" y2="475.8262" gradientTransform="matrix(1 0 0 -1 0 627.11)">
						<stop  offset="0" style="stop-color:#4D4D4D"/>
						<stop  offset="0.974" style="stop-color:#FAFAFA"/>
						<stop  offset="1" style="stop-color:#FFFFFF"/>
					</linearGradient>
					<path class="st18" d="M431.4,149.6c-0.5,0-1,0-1.5,0.1v0c0-4-4-7.2-8.9-7.2c-1.1,0-2.2,0.2-3.2,0.5c-1.4-2.5-4.5-4.3-8.2-4.3
						c-3.7,0-6.8,1.8-8.2,4.3c-1-0.3-2.1-0.5-3.2-0.5c-4.9,0-8.9,3.2-8.9,7.2v0c-0.5-0.1-1-0.1-1.5-0.1c-4.9,0-8.9,3.2-8.9,7.2
						c0,3.8,3.7,6.9,8.2,7.1v0h44.5l0,0c4.8-0.1,8.6-3.3,8.6-7.2C440.2,152.7,436.2,149.6,431.4,149.6z"/>
				</g>
			</g>
		</g>
	</g>
	
		<linearGradient id="SVGID_37_" gradientUnits="userSpaceOnUse" x1="378.8475" y1="475.8262" x2="440.2727" y2="475.8262" gradientTransform="matrix(1 0 0 -1 0 627.11)">
		<stop  offset="0" style="stop-color:#FFFFFF"/>
		<stop  offset="0.974" style="stop-color:#FFFFFF"/>
		<stop  offset="1" style="stop-color:#FFFFFF"/>
	</linearGradient>
	<path class="st19" d="M431.4,149.6c-0.5,0-1,0-1.5,0.1v0c0-4-4-7.2-8.9-7.2c-1.1,0-2.2,0.2-3.2,0.5c-1.4-2.5-4.5-4.3-8.2-4.3
		c-3.7,0-6.8,1.8-8.2,4.3c-1-0.3-2.1-0.5-3.2-0.5c-4.9,0-8.9,3.2-8.9,7.2v0c-0.5-0.1-1-0.1-1.5-0.1c-4.9,0-8.9,3.2-8.9,7.2
		c0,3.8,3.7,6.9,8.2,7.1v0h44.5l0,0c4.8-0.1,8.6-3.3,8.6-7.2C440.2,152.7,436.2,149.6,431.4,149.6z"/>
	<g>
		<g>
			<g>
				<g>
					<defs>
						<polygon id="SVGID_38_" points="-222.8,74.5 -222.4,74.5 -222.8,75 						"/>
					</defs>
					<clipPath id="SVGID_39_">
						<use xlink:href="#SVGID_38_"  style="overflow:visible;"/>
					</clipPath>
				</g>
				<g>
					<defs>
						<polygon id="SVGID_40_" points="-222.8,74.5 -222.4,74.5 -222.8,75 						"/>
					</defs>
					<defs>
						<polygon id="SVGID_41_" points="-223.7,73.7 -224.1,73.7 -223.7,73.2 						"/>
					</defs>
					<clipPath id="SVGID_42_">
						<use xlink:href="#SVGID_40_"  style="overflow:visible;"/>
					</clipPath>
					<clipPath id="SVGID_43_" class="st20">
						<use xlink:href="#SVGID_41_"  style="overflow:visible;"/>
					</clipPath>
					
						<linearGradient id="SVGID_44_" gradientUnits="userSpaceOnUse" x1="490.9588" y1="441.0331" x2="552.3841" y2="441.0331" gradientTransform="matrix(1 0 0 -1 0 627.11)">
						<stop  offset="0" style="stop-color:#4D4D4D"/>
						<stop  offset="0.974" style="stop-color:#FAFAFA"/>
						<stop  offset="1" style="stop-color:#FFFFFF"/>
					</linearGradient>
					<path class="st21" d="M543.5,184.4c-0.5,0-1,0-1.5,0.1v0c0-4-4-7.2-8.9-7.2c-1.1,0-2.2,0.2-3.2,0.5c-1.4-2.5-4.5-4.3-8.2-4.3
						s-6.8,1.8-8.2,4.3c-1-0.3-2.1-0.5-3.2-0.5c-4.9,0-8.9,3.2-8.9,7.2v0c-0.5-0.1-1-0.1-1.5-0.1c-4.9,0-8.9,3.2-8.9,7.2
						c0,3.8,3.7,6.9,8.2,7.1v0h44.5l0,0c4.8-0.1,8.6-3.3,8.6-7.2C552.4,187.5,548.4,184.4,543.5,184.4z"/>
				</g>
			</g>
		</g>
	</g>
	
		<linearGradient id="SVGID_45_" gradientUnits="userSpaceOnUse" x1="490.9588" y1="441.0331" x2="552.3841" y2="441.0331" gradientTransform="matrix(1 0 0 -1 0 627.11)">
		<stop  offset="0" style="stop-color:#FFFFFF"/>
		<stop  offset="0.974" style="stop-color:#FFFFFF"/>
		<stop  offset="1" style="stop-color:#FFFFFF"/>
	</linearGradient>
	<path class="st22" d="M543.5,184.4c-0.5,0-1,0-1.5,0.1v0c0-4-4-7.2-8.9-7.2c-1.1,0-2.2,0.2-3.2,0.5c-1.4-2.5-4.5-4.3-8.2-4.3
		s-6.8,1.8-8.2,4.3c-1-0.3-2.1-0.5-3.2-0.5c-4.9,0-8.9,3.2-8.9,7.2v0c-0.5-0.1-1-0.1-1.5-0.1c-4.9,0-8.9,3.2-8.9,7.2
		c0,3.8,3.7,6.9,8.2,7.1v0h44.5l0,0c4.8-0.1,8.6-3.3,8.6-7.2C552.4,187.5,548.4,184.4,543.5,184.4z"/>
	<g>
		<g>
			<g>
				<g>
					<g>
						<defs>
							<polygon id="SVGID_46_" points="-222.8,74.5 -222.4,74.5 -222.8,75 							"/>
						</defs>
						<clipPath id="SVGID_47_">
							<use xlink:href="#SVGID_46_"  style="overflow:visible;"/>
						</clipPath>
					</g>
					<g>
						<defs>
							<polygon id="SVGID_48_" points="-222.8,74.5 -222.4,74.5 -222.8,75 							"/>
						</defs>
						<defs>
							<polygon id="SVGID_49_" points="-223.7,73.7 -224.1,73.7 -223.7,73.2 							"/>
						</defs>
						<clipPath id="SVGID_50_">
							<use xlink:href="#SVGID_48_"  style="overflow:visible;"/>
						</clipPath>
						<clipPath id="SVGID_51_" class="st23">
							<use xlink:href="#SVGID_49_"  style="overflow:visible;"/>
						</clipPath>
						
							<linearGradient id="SVGID_52_" gradientUnits="userSpaceOnUse" x1="52.4482" y1="480.4224" x2="107.6019" y2="480.4224" gradientTransform="matrix(1 0 0 -1 0 627.11)">
							<stop  offset="0" style="stop-color:#4D4D4D"/>
							<stop  offset="0.974" style="stop-color:#FAFAFA"/>
							<stop  offset="1" style="stop-color:#FFFFFF"/>
						</linearGradient>
						<path class="st24" d="M98.6,143c-0.5,0-1,0-1.5,0.1v0c0-4-4-7.2-9-7.2c-3.6,0-6.7,1.7-8.1,4.1c-1.4-2.4-4.5-4.1-8.1-4.1
							c-4.9,0-9,3.2-9,7.2v0c-0.5-0.1-1-0.1-1.5-0.1c-4.9,0-9,3.2-9,7.2c0,3.8,3.7,6.9,8.3,7.2v0h38.2l0,0c4.8-0.1,8.7-3.3,8.7-7.2
							C107.6,146.3,103.6,143,98.6,143z"/>
					</g>
				</g>
			</g>
		</g>
		
			<linearGradient id="SVGID_53_" gradientUnits="userSpaceOnUse" x1="52.4482" y1="480.4224" x2="107.6019" y2="480.4224" gradientTransform="matrix(1 0 0 -1 0 627.11)">
			<stop  offset="0" style="stop-color:#FFFFFF"/>
			<stop  offset="0.974" style="stop-color:#FFFFFF"/>
			<stop  offset="1" style="stop-color:#FFFFFF"/>
		</linearGradient>
		<path class="st25" d="M98.6,143c-0.5,0-1,0-1.5,0.1v0c0-4-4-7.2-9-7.2c-3.6,0-6.7,1.7-8.1,4.1c-1.4-2.4-4.5-4.1-8.1-4.1
			c-4.9,0-9,3.2-9,7.2v0c-0.5-0.1-1-0.1-1.5-0.1c-4.9,0-9,3.2-9,7.2c0,3.8,3.7,6.9,8.3,7.2v0h38.2l0,0c4.8-0.1,8.7-3.3,8.7-7.2
			C107.6,146.3,103.6,143,98.6,143z"/>
	</g>
	<polygon class="st26" points="226.7,411.7 216.1,397.3 257.8,397.3 247.2,411.7 	"/>
	<path class="st26" d="M336.8,356.6c0,3.1-0.1,6.1-0.3,9.2c0,0.6-0.1,1.2-0.2,1.9c0,0.1,0,0.2,0,0.3c-0.2,2.6-0.6,5.1-0.9,7.6
		c-0.3,2-0.6,4-1.1,5.9c0,0,0,0.1,0,0.2c-0.4,1.9-0.8,8.2-1.3,15.6H93c-0.5-7.3-0.9-13.7-1.3-15.6c0,0,0-0.1,0-0.2
		c-0.4-1.9-0.7-3.9-1-5.9c-0.4-2.5-0.7-5.1-0.9-7.6c0-0.1,0-0.2,0-0.3c-0.3-3.4-0.5-6.7-0.5-10.1c0-0.3,0-0.6,0-0.9
		c0-1.4,0-2.7,0.1-4.1c0-1.4,0.1-2.7,0.2-4.1c0.1-1.7,0.3-3.4,0.4-5c0.1-1.4,0.3-2.7,0.5-4.1c0.2-1.7,0.5-3.4,0.8-5
		c0.3-1.4,0.5-2.7,0.8-4.1c0.3-1.7,0.8-3.4,1.2-5c0.3-1.4,0.7-2.7,1.2-4.1c0.5-1.7,1-3.4,1.6-5c0.5-1.4,1-2.7,1.5-4.1
		c0.6-1.7,1.3-3.4,2.1-5c0.6-1.4,1.2-2.7,1.9-4.1c0.8-1.7,1.7-3.4,2.5-5c0.7-1.4,1.5-2.7,2.3-4.1c1-1.7,2-3.4,3.1-5
		c0.9-1.4,1.8-2.7,2.8-4.1c1.2-1.7,2.4-3.4,3.7-5c1.1-1.4,2.2-2.7,3.4-4.1c1.5-1.7,3-3.4,4.6-5c1.3-1.4,2.7-2.7,4.1-4.1
		c1.8-1.7,3.7-3.4,5.6-5c1.7-1.4,3.4-2.7,5.2-4.1c3.1-2.4,6.4-4.6,9.7-6.6c1.6-1,3.3-2,5-2.9c17.7-9.8,38-15.3,59.6-15.3
		c31.8,0,60.8,12,82.7,31.7c2.4,2.1,4.7,4.4,6.9,6.7c0.9,0.9,1.7,1.8,2.5,2.7c0.8,0.9,1.5,1.8,2.3,2.7c2.9,3.4,5.7,7.1,8.2,10.8
		c0.2,0.3,0.3,0.5,0.5,0.8c2.1,3.1,4,6.4,5.8,9.8c0.3,0.5,0.6,1,0.8,1.5c0.6,1.2,1.3,2.5,1.9,3.7c0.2,0.3,0.3,0.6,0.5,1
		c2.2,4.8,4.1,9.7,5.8,14.7c0.1,0.3,0.2,0.5,0.3,0.8c1.5,4.7,2.7,9.5,3.6,14.5c0,0.3,0.1,0.5,0.1,0.8c0.8,4.7,1.4,9.6,1.7,14.5
		c0,0.3,0,0.5,0,0.8C336.8,352.4,336.8,354.5,336.8,356.6z"/>
	<g>
		<rect x="77.2" y="248.2" class="st27" width="72.9" height="121.2"/>
		<rect x="82" y="252.5" class="st28" width="63.4" height="12.1"/>
		<rect x="82" y="268.5" class="st29" width="63.4" height="4.7"/>
		<rect x="82" y="277.1" class="st29" width="63.4" height="4.7"/>
		<rect x="82" y="285.7" class="st29" width="63.4" height="4.7"/>
		<rect x="82" y="294.4" class="st28" width="63.4" height="4.7"/>
		<rect x="82" y="303" class="st29" width="63.4" height="4.7"/>
		<rect x="82" y="311.6" class="st29" width="63.4" height="4.7"/>
		<rect x="82" y="320.3" class="st28" width="63.4" height="4.7"/>
		<rect x="82" y="328.9" class="st28" width="63.4" height="4.7"/>
		<rect x="82" y="337.5" class="st28" width="63.4" height="4.7"/>
		<rect x="82" y="346.1" class="st29" width="63.4" height="4.7"/>
		<rect x="82" y="354.8" class="st29" width="63.4" height="4.7"/>
		<rect x="96.6" y="235.8" class="st30" width="34.9" height="12.5"/>
	</g>
	<polygon class="st31" points="257.8,397.3 247.2,411.7 226.7,411.7 216.1,397.3 	"/>
	<polygon class="st31" points="-222.4,411.7 -222.4,397.3 141.3,397.3 196.6,397.3 297.4,397.3 436.5,397.3 601.5,397.3 
		601.5,397.3 601.5,382.5 601.5,382.3 601.5,376.7 601.5,369.1 601.5,369.1 439.7,369.1 300.7,369.1 297.4,369.1 257,369.1 
		253.7,369.1 235.6,369.1 224.4,369.1 193.4,369.1 180.8,369.1 141.3,369.1 123.1,369.1 120.2,369.1 -222.4,369.1 -223.2,369.1 
		-223.2,369.1 -223.2,370.2 -223.2,376.7 -223.2,382.3 -223.2,382.5 -223.2,411.7 	"/>
	<g>
		<polygon class="st31" points="344.6,291.7 349.9,284 367.3,284 372.9,291.7 		"/>
		<rect x="344.6" y="291.7" class="st26" width="17.7" height="77.5"/>
		<rect x="358.8" y="291.7" class="st32" width="14.2" height="77.5"/>
		<g>
			<rect x="363.9" y="361.6" class="st29" width="3.6" height="7.6"/>
			<rect x="363.9" y="348.2" class="st29" width="3.6" height="7.6"/>
			<rect x="363.9" y="334.7" class="st29" width="3.6" height="7.6"/>
			<rect x="363.9" y="321.3" class="st29" width="3.6" height="7.6"/>
			<rect x="363.9" y="307.8" class="st29" width="3.6" height="7.6"/>
			<rect x="363.9" y="294.4" class="st29" width="3.6" height="7.6"/>
		</g>
		<g>
			<rect x="350.8" y="361.6" class="st29" width="3.6" height="7.6"/>
			<rect x="350.8" y="348.2" class="st29" width="3.6" height="7.6"/>
			<rect x="350.8" y="334.7" class="st29" width="3.6" height="7.6"/>
			<rect x="350.8" y="321.3" class="st29" width="3.6" height="7.6"/>
			<rect x="350.8" y="307.8" class="st29" width="3.6" height="7.6"/>
			<rect x="350.8" y="294.4" class="st29" width="3.6" height="7.6"/>
		</g>
	</g>
	<rect x="-223.2" y="376.7" class="st33" width="824.7" height="5.6"/>
	<g>
		<g>
			<rect x="67.8" y="264.3" class="st33" width="1.4" height="21"/>
		</g>
		<rect x="23.4" y="273.1" class="st15" width="50.4" height="96"/>
		<g>
			<rect x="23.4" y="277" class="st34" width="50.4" height="4.4"/>
			<rect x="23.4" y="284.4" class="st34" width="50.4" height="4.4"/>
			<rect x="23.4" y="291.9" class="st34" width="50.4" height="4.4"/>
			<rect x="23.4" y="299.4" class="st34" width="50.4" height="4.4"/>
			<rect x="23.4" y="306.9" class="st34" width="50.4" height="4.4"/>
			<rect x="23.4" y="314.3" class="st34" width="50.4" height="4.4"/>
			<rect x="23.4" y="321.8" class="st34" width="50.4" height="4.4"/>
			<rect x="23.4" y="329.2" class="st34" width="50.4" height="4.4"/>
			<rect x="23.4" y="336.7" class="st34" width="50.4" height="4.4"/>
			<rect x="23.4" y="344.2" class="st34" width="50.4" height="4.4"/>
			<rect x="23.4" y="351.7" class="st34" width="50.4" height="4.4"/>
			<rect x="23.4" y="359.1" class="st34" width="50.4" height="4.4"/>
		</g>
	</g>
	<g>
		<polygon class="st31" points="378.4,337.8 369.6,364.3 378.4,364.3 387.2,364.3 		"/>
		<rect x="377.5" y="364.3" class="st15" width="1.8" height="5.1"/>
	</g>
	<rect x="-223.2" y="382.5" class="st35" width="824.7" height="29.2"/>
	<g>
		<polygon class="st31" points="354.9,347.1 348.7,365.8 354.9,365.8 361.1,365.8 		"/>
		<rect x="354.2" y="365.8" class="st15" width="1.3" height="3.6"/>
	</g>
	<g>
		<polygon class="st31" points="18.1,321.8 4,363.8 18.1,363.8 32.1,363.8 		"/>
		<rect x="16.6" y="363.8" class="st15" width="2.9" height="8.1"/>
	</g>
	<g>
		<polygon class="st15" points="126.4,352.3 120.7,369.4 126.4,369.4 132.1,369.4 		"/>
		<rect x="125.8" y="369.4" class="st15" width="1.2" height="3.3"/>
	</g>
	<g>
		<g>
			<rect x="161.2" y="251.2" class="st33" width="1.4" height="21.2"/>
			<rect x="167.6" y="255.2" class="st33" width="1.4" height="21.2"/>
		</g>
		<rect id="XMLID_136_" x="157" y="264.5" class="st31" width="36.5" height="5.1"/>
		<rect id="XMLID_135_" x="153.4" y="268.2" class="st30" width="43.7" height="101.2"/>
		<g id="XMLID_128_">
			<rect id="XMLID_134_" x="156.8" y="273.7" class="st36" width="4" height="7.6"/>
			<rect id="XMLID_133_" x="163.4" y="273.7" class="st36" width="4" height="7.6"/>
			<rect id="XMLID_132_" x="170" y="273.7" class="st36" width="4" height="7.6"/>
			<rect id="XMLID_131_" x="176.6" y="273.7" class="st36" width="4" height="7.6"/>
			<rect id="XMLID_130_" x="183.2" y="273.7" class="st36" width="4" height="7.6"/>
			<rect id="XMLID_129_" x="189.7" y="273.7" class="st36" width="4" height="7.6"/>
		</g>
		<g id="XMLID_121_">
			<rect id="XMLID_127_" x="156.8" y="283.6" class="st36" width="4" height="7.6"/>
			<rect id="XMLID_126_" x="163.4" y="283.6" class="st36" width="4" height="7.6"/>
			<rect id="XMLID_125_" x="170" y="283.6" class="st36" width="4" height="7.6"/>
			<rect id="XMLID_124_" x="176.6" y="283.6" class="st36" width="4" height="7.6"/>
			<rect id="XMLID_123_" x="183.2" y="283.6" class="st36" width="4" height="7.6"/>
			<rect id="XMLID_122_" x="189.7" y="283.6" class="st36" width="4" height="7.6"/>
		</g>
		<g id="XMLID_114_">
			<rect id="XMLID_120_" x="156.8" y="293.5" class="st36" width="4" height="7.6"/>
			<rect id="XMLID_119_" x="163.4" y="293.5" class="st36" width="4" height="7.6"/>
			<rect id="XMLID_118_" x="170" y="293.5" class="st36" width="4" height="7.6"/>
			<rect id="XMLID_117_" x="176.6" y="293.5" class="st36" width="4" height="7.6"/>
			<rect id="XMLID_116_" x="183.2" y="293.5" class="st36" width="4" height="7.6"/>
			<rect id="XMLID_115_" x="189.7" y="293.5" class="st36" width="4" height="7.6"/>
		</g>
		<g id="XMLID_107_">
			<rect id="XMLID_113_" x="156.8" y="303.3" class="st36" width="4" height="7.6"/>
			<rect id="XMLID_112_" x="163.4" y="303.3" class="st36" width="4" height="7.6"/>
			<rect id="XMLID_111_" x="170" y="303.3" class="st36" width="4" height="7.6"/>
			<rect id="XMLID_110_" x="176.6" y="303.3" class="st36" width="4" height="7.6"/>
			<rect id="XMLID_109_" x="183.2" y="303.3" class="st36" width="4" height="7.6"/>
			<rect id="XMLID_108_" x="189.7" y="303.3" class="st36" width="4" height="7.6"/>
		</g>
		<g id="XMLID_100_">
			<rect id="XMLID_106_" x="156.8" y="313.2" class="st36" width="4" height="7.6"/>
			<rect id="XMLID_105_" x="163.4" y="313.2" class="st36" width="4" height="7.6"/>
			<rect id="XMLID_104_" x="170" y="313.2" class="st36" width="4" height="7.6"/>
			<rect id="XMLID_103_" x="176.6" y="313.2" class="st36" width="4" height="7.6"/>
			<rect id="XMLID_102_" x="183.2" y="313.2" class="st36" width="4" height="7.6"/>
			<rect id="XMLID_101_" x="189.7" y="313.2" class="st36" width="4" height="7.6"/>
		</g>
		<g id="XMLID_93_">
			<rect id="XMLID_99_" x="156.8" y="323" class="st36" width="4" height="7.6"/>
			<rect id="XMLID_98_" x="163.4" y="323" class="st36" width="4" height="7.6"/>
			<rect id="XMLID_97_" x="170" y="323" class="st36" width="4" height="7.6"/>
			<rect id="XMLID_96_" x="176.6" y="323" class="st36" width="4" height="7.6"/>
			<rect id="XMLID_95_" x="183.2" y="323" class="st36" width="4" height="7.6"/>
			<rect id="XMLID_94_" x="189.7" y="323" class="st36" width="4" height="7.6"/>
		</g>
		<g id="XMLID_86_">
			<rect id="XMLID_92_" x="156.8" y="332.9" class="st36" width="4" height="7.6"/>
			<rect id="XMLID_91_" x="163.4" y="332.9" class="st36" width="4" height="7.6"/>
			<rect id="XMLID_90_" x="170" y="332.9" class="st36" width="4" height="7.6"/>
			<rect id="XMLID_89_" x="176.6" y="332.9" class="st36" width="4" height="7.6"/>
			<rect id="XMLID_88_" x="183.2" y="332.9" class="st36" width="4" height="7.6"/>
			<rect id="XMLID_87_" x="189.7" y="332.9" class="st36" width="4" height="7.6"/>
		</g>
		<g id="XMLID_79_">
			<rect id="XMLID_85_" x="156.8" y="342.7" class="st36" width="4" height="7.6"/>
			<rect id="XMLID_84_" x="163.4" y="342.7" class="st36" width="4" height="7.6"/>
			<rect id="XMLID_83_" x="170" y="342.7" class="st36" width="4" height="7.6"/>
			<rect id="XMLID_82_" x="176.6" y="342.7" class="st36" width="4" height="7.6"/>
			<rect id="XMLID_81_" x="183.2" y="342.7" class="st36" width="4" height="7.6"/>
			<rect id="XMLID_80_" x="189.7" y="342.7" class="st36" width="4" height="7.6"/>
		</g>
	</g>
	<g>
		<g>
			<rect id="XMLID_78_" x="201.8" y="302" class="st36" width="46.3" height="67.5"/>
			<g>
				<rect id="XMLID_77_" x="204.3" y="307.3" class="st28" width="2.9" height="54.5"/>
				<rect id="XMLID_76_" x="209.1" y="307.3" class="st28" width="2.9" height="54.5"/>
				<rect id="XMLID_75_" x="213.8" y="307.3" class="st28" width="2.9" height="54.5"/>
				<rect id="XMLID_74_" x="218.5" y="307.3" class="st28" width="2.9" height="54.5"/>
				<rect id="XMLID_73_" x="223.3" y="307.3" class="st28" width="2.9" height="54.5"/>
				<rect id="XMLID_72_" x="228" y="307.3" class="st28" width="2.9" height="54.5"/>
				<rect id="XMLID_71_" x="232.8" y="307.3" class="st28" width="2.9" height="54.5"/>
				<rect id="XMLID_70_" x="237.5" y="307.3" class="st28" width="2.9" height="54.5"/>
				<rect id="XMLID_69_" x="242.3" y="307.3" class="st28" width="2.9" height="54.5"/>
			</g>
		</g>
		<g>
			<rect x="212.4" y="296.9" class="st27" width="24.9" height="5.3"/>
			<polygon class="st15" points="207.5,295.8 207.5,296.5 207.5,297.2 242.3,297.2 242.3,296.5 242.3,295.8 			"/>
		</g>
	</g>
	<g>
		<rect x="253.4" y="277.4" class="st34" width="37" height="92.1"/>
		<g>
			<rect x="279.1" y="314.4" class="st30" width="4.6" height="7.7"/>
			<rect x="273.9" y="314.4" class="st30" width="4.6" height="7.7"/>
		</g>
		<g>
			<rect x="264.9" y="314.4" class="st30" width="4.6" height="7.7"/>
			<rect x="259.7" y="314.4" class="st30" width="4.6" height="7.7"/>
		</g>
		<g>
			<rect x="279.1" y="303.6" class="st30" width="4.6" height="7.7"/>
			<rect x="273.9" y="303.6" class="st30" width="4.6" height="7.7"/>
		</g>
		<g>
			<rect x="264.9" y="303.6" class="st30" width="4.6" height="7.7"/>
			<rect x="259.7" y="303.6" class="st30" width="4.6" height="7.7"/>
		</g>
		<g>
			<rect x="279.1" y="292.9" class="st30" width="4.6" height="7.7"/>
			<rect x="273.9" y="292.9" class="st30" width="4.6" height="7.7"/>
		</g>
		<g>
			<rect x="264.9" y="292.9" class="st30" width="4.6" height="7.7"/>
			<rect x="259.7" y="292.9" class="st30" width="4.6" height="7.7"/>
		</g>
		<g>
			<rect x="279.1" y="282.3" class="st30" width="4.6" height="7.7"/>
			<rect x="273.9" y="282.3" class="st30" width="4.6" height="7.7"/>
		</g>
		<g>
			<rect x="264.9" y="282.3" class="st30" width="4.6" height="7.7"/>
			<rect x="259.7" y="282.3" class="st30" width="4.6" height="7.7"/>
		</g>
		<g>
			<rect x="279.1" y="357.1" class="st30" width="4.6" height="7.7"/>
			<rect x="273.9" y="357.1" class="st30" width="4.6" height="7.7"/>
		</g>
		<g>
			<rect x="264.9" y="357.1" class="st30" width="4.6" height="7.7"/>
			<rect x="259.7" y="357.1" class="st30" width="4.6" height="7.7"/>
		</g>
		<g>
			<rect x="279.1" y="346.3" class="st30" width="4.6" height="7.7"/>
			<rect x="273.9" y="346.3" class="st30" width="4.6" height="7.7"/>
		</g>
		<g>
			<rect x="264.9" y="346.3" class="st30" width="4.6" height="7.7"/>
			<rect x="259.7" y="346.3" class="st30" width="4.6" height="7.7"/>
		</g>
		<g>
			<rect x="279.1" y="335.7" class="st30" width="4.6" height="7.7"/>
			<rect x="273.9" y="335.7" class="st30" width="4.6" height="7.7"/>
		</g>
		<g>
			<rect x="264.9" y="335.7" class="st30" width="4.6" height="7.7"/>
			<rect x="259.7" y="335.7" class="st30" width="4.6" height="7.7"/>
		</g>
		<g>
			<rect x="279.1" y="325" class="st30" width="4.6" height="7.7"/>
			<rect x="273.9" y="325" class="st30" width="4.6" height="7.7"/>
		</g>
		<g>
			<rect x="264.9" y="325" class="st30" width="4.6" height="7.7"/>
			<rect x="259.7" y="325" class="st30" width="4.6" height="7.7"/>
		</g>
		<polygon id="XMLID_138_" class="st15" points="252.9,271.2 291.1,271.2 294.8,277.6 249.2,277.6 		"/>
	</g>
	<g>
		<rect x="294.3" y="247.4" class="st15" width="47.7" height="122"/>
		<g>
			<rect x="311.1" y="264.6" class="st27" width="14.1" height="13.8"/>
			<rect x="311.1" y="279.2" class="st27" width="14.1" height="13.7"/>
			<rect x="311.1" y="293.7" class="st27" width="14.1" height="14.3"/>
			<rect x="296.5" y="264.6" class="st27" width="13.9" height="13.8"/>
			<polygon class="st27" points="339.8,249.5 326,249.5 326,263.9 339.8,263.9 339.8,264.6 326,264.6 326,278.4 339.8,278.4 
				339.8,279.2 326,279.2 326,292.9 339.8,292.9 339.8,293.7 326,293.7 326,308 339.8,308 			"/>
			<rect x="311.1" y="249.5" class="st27" width="14.1" height="14.3"/>
			<rect x="296.5" y="249.5" class="st27" width="13.9" height="14.3"/>
			<rect x="296.5" y="279.2" class="st27" width="13.9" height="13.7"/>
			<rect x="296.5" y="293.7" class="st27" width="13.9" height="14.3"/>
			<rect x="311.2" y="323.7" class="st27" width="14.1" height="13.8"/>
			<rect x="311.2" y="338.2" class="st27" width="14.1" height="13.7"/>
			<rect x="296.5" y="308.9" class="st27" width="13.9" height="14"/>
			<rect x="296.5" y="323.7" class="st27" width="13.9" height="13.8"/>
			<rect x="296.5" y="338.2" class="st27" width="13.9" height="13.7"/>
			<polygon class="st27" points="326,308.9 326,322.9 339.8,322.9 339.8,323.7 326,323.7 326,337.4 339.8,337.4 339.8,338.2 
				326,338.2 326,352 339.8,352 339.8,352.7 326,352.7 326,367.3 339.8,367.3 339.8,308.9 			"/>
			<rect x="296.5" y="352.7" class="st27" width="13.9" height="14.6"/>
			<rect x="311.2" y="308.9" class="st27" width="14.1" height="14"/>
			<rect x="311.2" y="352.7" class="st27" width="14.1" height="14.6"/>
		</g>
	</g>
	<g>
		<polygon class="st30" points="212.8,345.1 203.9,371.6 212.8,371.6 221.6,371.6 		"/>
		<rect x="211.8" y="371.6" class="st15" width="1.8" height="5.1"/>
	</g>
	<polygon class="st35" points="212.4,408.7 210.3,411.7 210,412.1 201.4,424.8 200.9,425.4 200.8,425.7 200.8,425.7 200.1,426.7 
		197.7,430.2 194.3,435.2 194.1,435.5 189.3,442.4 189.1,442.8 188.9,442.4 184.2,435.5 184,435.2 180.6,430.2 178.2,426.7 
		177.5,425.7 177.5,425.7 177.3,425.4 168.2,412.1 168,411.7 165.9,408.7 	"/>
</g>
<g>
	<path d="M47.7,97.1c0.7-1.2,1-2.6,1-4.3c0-1.4-0.2-2.7-0.5-4c-0.3-1.2-1-2.4-2-3.3c-1-0.9-2.3-1.7-4.1-2.3c-1.8-0.6-4-0.9-6.9-0.9
		H19.5v6.4h2.7v21.2h-2.7v6.4h15.7v-6.4h-3v-7.6h3.7c1.8,0,3.4-0.2,4.9-0.6c1.5-0.4,2.9-1,4.1-1.8C46.1,99.3,47,98.3,47.7,97.1z
		 M37.9,96.2c-0.9,0.7-2,1.1-3.4,1.1h-2.2v-8.5h2.4c1.4,0,2.5,0.3,3.4,1.1c0.8,0.7,1.2,1.8,1.2,3.3C39.2,94.5,38.7,95.5,37.9,96.2z
		 M72.2,99c-0.7-1.6-1.6-2.9-2.9-4c-1.2-1.1-2.6-1.9-4.3-2.5c-1.6-0.6-3.4-0.9-5.3-0.9c-1.7,0-3.4,0.3-4.9,0.8
		c-1.6,0.6-3,1.4-4.3,2.4c-1.2,1.1-2.3,2.4-3,4c-0.8,1.6-1.2,3.4-1.2,5.4c0,2.1,0.3,4,1.1,5.7c0.8,1.6,1.8,3,3,4
		c1.2,1.1,2.7,1.9,4.3,2.4c1.6,0.6,3.4,0.8,5.1,0.8c1.8,0,3.6-0.3,5.2-0.9c1.6-0.6,3-1.4,4.3-2.5c1.2-1.1,2.1-2.4,2.9-4
		c0.7-1.6,1-3.4,1-5.4C73.2,102.4,72.9,100.6,72.2,99z M63.1,107c-0.2,0.8-0.3,1.5-0.6,2.1c-0.3,0.6-0.6,1-1.1,1.4
		c-0.4,0.3-0.9,0.5-1.4,0.5c-1,0-1.9-0.6-2.6-1.8s-1-2.8-1-4.8c0-0.9,0.1-1.7,0.3-2.5c0.2-0.8,0.4-1.5,0.7-2.1c0.3-0.6,0.6-1,1-1.4
		c0.4-0.3,0.9-0.5,1.3-0.5c1.1,0,2,0.7,2.6,1.9c0.6,1.2,0.9,2.8,0.9,4.6C63.3,105.3,63.2,106.2,63.1,107z M99,95.5
		c-0.9-1.2-2.1-2.1-3.6-2.8c-1.5-0.7-3.1-1-5-1c-0.7,0-1.4,0.1-2.1,0.3c-0.6,0.2-1.2,0.3-1.6,0.6c-0.5,0.2-0.9,0.4-1.3,0.7
		c-0.3,0.3-0.7,0.5-0.9,0.6l-0.8-1.7H72.6v6.5h2.1v21.5h-2.1v6.4h14.6v-6.4h-2.6v-4.9c0.1,0.1,0.3,0.2,0.6,0.4
		c0.3,0.2,0.7,0.4,1.2,0.6c0.5,0.2,1.1,0.4,1.9,0.6c0.8,0.2,1.6,0.3,2.7,0.3c1.5,0,3-0.3,4.4-0.9c1.4-0.6,2.5-1.4,3.5-2.5
		c1-1.1,1.8-2.4,2.3-3.9c0.6-1.5,0.9-3.3,0.9-5.2c0-1.7-0.3-3.4-0.7-4.9C100.8,98.1,100,96.7,99,95.5z M90.5,109.1
		c-0.6,1.1-1.5,1.6-2.5,1.6c-0.5,0-0.9-0.2-1.3-0.4c-0.4-0.3-0.8-0.7-1.1-1.2c-0.3-0.6-0.6-1.2-0.8-1.8c-0.2-0.7-0.3-1.5-0.3-2.3
		c0-1,0-1.8,0.2-2.6c0.2-0.8,0.4-1.4,0.7-2c0.3-0.6,0.7-0.9,1.2-1.2c0.4-0.3,0.9-0.4,1.4-0.4c0.5,0,1,0.2,1.4,0.6
		c0.4,0.4,0.8,0.8,1.1,1.4s0.6,1.2,0.7,1.9c0.2,0.7,0.3,1.5,0.3,2.1C91.5,106.4,91.2,107.9,90.5,109.1z M139.6,82.4h-14.4v6.4h2.6
		v10.3c0,2.1-0.1,3.8-0.3,5c-0.2,1.2-0.6,2.2-1,2.9c-0.4,0.7-0.9,1.1-1.5,1.3c-0.6,0.2-1.2,0.3-2,0.3c-0.8,0-1.5-0.1-2.1-0.4
		c-0.6-0.3-1.1-0.7-1.5-1.4c-0.4-0.7-0.7-1.7-0.9-2.9c-0.2-1.2-0.3-2.8-0.3-4.8V88.8h2.6v-6.4h-15.5v6.3h2.7v12
		c0,5.6,1.3,9.7,3.9,12.3c2.6,2.7,6.3,4,11.3,4.2c4.6,0,8.1-1.3,10.4-4c2.4-2.7,3.6-7,3.6-12.7V88.7h2.6L139.6,82.4L139.6,82.4z
		 M164.9,95.5c-0.9-1.2-2.1-2.1-3.6-2.8c-1.5-0.7-3.1-1-5-1c-0.7,0-1.4,0.1-2.1,0.3c-0.6,0.2-1.2,0.3-1.6,0.6
		c-0.5,0.2-0.9,0.4-1.3,0.7c-0.3,0.3-0.7,0.5-0.9,0.6l-0.8-1.7h-11.2v6.5h2.1v21.5h-2.1v6.4H153v-6.4h-2.6v-4.9
		c0.1,0.1,0.3,0.2,0.6,0.4c0.3,0.2,0.7,0.4,1.2,0.6c0.5,0.2,1.1,0.4,1.9,0.6c0.8,0.2,1.6,0.3,2.7,0.3c1.5,0,3-0.3,4.4-0.9
		c1.4-0.6,2.5-1.4,3.5-2.5c1-1.1,1.8-2.4,2.3-3.9c0.6-1.5,0.9-3.3,0.9-5.2c0-1.7-0.3-3.4-0.7-4.9C166.6,98.1,165.9,96.7,164.9,95.5z
		 M156.4,109.1c-0.6,1.1-1.5,1.6-2.5,1.6c-0.5,0-0.9-0.2-1.3-0.4c-0.4-0.3-0.8-0.7-1.1-1.2c-0.3-0.6-0.6-1.2-0.8-1.8
		c-0.2-0.7-0.3-1.5-0.3-2.3c0-1,0-1.8,0.2-2.6c0.2-0.8,0.4-1.4,0.7-2c0.3-0.6,0.7-0.9,1.2-1.2c0.4-0.3,0.9-0.4,1.4-0.4
		c0.5,0,1,0.2,1.4,0.6c0.4,0.4,0.8,0.8,1.1,1.4s0.6,1.2,0.7,1.9c0.2,0.7,0.3,1.5,0.3,2.1C157.4,106.4,157,107.9,156.4,109.1z"/>
</g>
<path d="M186.4,74.6h-7v-7.4c0-1.5,1.5-2.7,3.4-2.7h0.2c1.8,0,3.4,1.2,3.4,2.7L186.4,74.6L186.4,74.6z"/>
<rect x="176.8" y="76.5" width="12.1" height="2.7"/>
<path d="M182.9,58.3c-9,0-16.2,7.3-16.2,16.2c0,4.9,2.2,9.3,5.6,12.3l-1.8,4.7l5.3-2.4c2.1,1.1,4.6,1.6,7.1,1.6c0.7,0,1.5,0,2.2-0.2
	c7.9-1.1,14-7.9,14-16.1C199.1,65.5,191.9,58.3,182.9,58.3z M191.3,80.1c0,0.5-0.5,0.9-1.2,0.9h-1.4v3.4c0,0.5-0.5,0.9-1.2,0.9
	s-1.2-0.4-1.2-0.9v-3.4h-7v1.7v1.6c0,0.5-0.5,0.9-1.2,0.9s-1.2-0.4-1.2-0.9v-2.3v-1h-1.4c-0.6,0-1.2-0.4-1.2-0.9v-4.6
	c0-0.5,0.5-0.9,1.2-0.9h1.4v-7.4c0-2.5,2.6-4.6,5.8-4.6h0.2c3.2,0,5.8,2.1,5.8,4.6v7.4h1.4c0.6,0,1.2,0.4,1.2,0.9L191.3,80.1
	L191.3,80.1z"/>
</svg>
